<svg width="28" height="28" viewBox="0 0 28 28" fill="none" xmlns="http://www.w3.org/2000/svg">
<g clip-path="url(#clip0_2420_159)">
<rect width="28" height="28" rx="1.16667" fill="white"/>
<g clip-path="url(#clip1_2420_159)">
<path d="M25.0643 0H1.46765C1.07945 0.00344461 0.70811 0.161965 0.433603 0.441422C0.159096 0.720878 0.0033836 1.09891 0 1.49411L0 4.17186C0 4.36807 0.0379618 4.56236 0.111718 4.74364C0.185474 4.92491 0.29358 5.08962 0.429863 5.22836C0.566147 5.3671 0.727939 5.47716 0.906002 5.55224C1.08406 5.62733 1.27491 5.66597 1.46765 5.66597H25.0643C25.4545 5.66327 25.8283 5.50559 26.106 5.22652C26.3836 4.94744 26.5433 4.56903 26.551 4.17186V1.51351C26.5505 1.11226 26.3937 0.727592 26.115 0.443865C25.8363 0.160137 25.4585 0.000513438 25.0643 0ZM25.0643 14.9023H1.46765C1.0784 14.9023 0.7051 15.0597 0.429863 15.3399C0.154626 15.6201 0 16.0001 0 16.3964L0 19.0742C0 19.4704 0.154626 19.8504 0.429863 20.1306C0.7051 20.4108 1.0784 20.5683 1.46765 20.5683H25.0643C25.4555 20.5688 25.8311 20.4122 26.1095 20.1325C26.3879 19.8527 26.5466 19.4724 26.551 19.0742V16.3964C26.5504 16.1987 26.5114 16.0031 26.4362 15.8209C26.3611 15.6386 26.2512 15.4733 26.113 15.3344C25.9749 15.1956 25.8111 15.0859 25.6311 15.0117C25.4511 14.9376 25.2585 14.9004 25.0643 14.9023ZM14.7527 22.334H1.46765C1.27491 22.334 1.08406 22.3727 0.906002 22.4478C0.727939 22.5228 0.566147 22.6329 0.429863 22.7716C0.29358 22.9104 0.185474 23.0751 0.111718 23.2564C0.0379618 23.4376 0 23.6319 0 23.8281L0 26.5059C0 26.9022 0.154626 27.2822 0.429863 27.5624C0.7051 27.8426 1.0784 28 1.46765 28H14.7336C15.1229 28 15.4962 27.8426 15.7714 27.5624C16.0467 27.2822 16.2013 26.9022 16.2013 26.5059V23.8281C16.205 23.6325 16.1702 23.4381 16.0989 23.2565C16.0277 23.0748 15.9214 22.9094 15.7864 22.7702C15.6514 22.6309 15.4904 22.5206 15.3129 22.4457C15.1353 22.3708 14.9449 22.3328 14.7527 22.334ZM26.551 7.45114H1.46765C1.27491 7.45114 1.08406 7.48979 0.906002 7.56488C0.727939 7.63996 0.566147 7.75002 0.429863 7.88876C0.29358 8.0275 0.185474 8.19221 0.111718 8.37348C0.0379618 8.55476 0 8.74904 0 8.94525L0 11.623C0 12.0193 0.154626 12.3993 0.429863 12.6795C0.7051 12.9597 1.0784 13.1171 1.46765 13.1171H26.532C26.9212 13.1171 27.2945 12.9597 27.5698 12.6795C27.845 12.3993 27.9996 12.0193 27.9996 11.623V8.94525C28.0017 8.75009 27.9658 8.55645 27.8939 8.37549C27.8221 8.19454 27.7158 8.02985 27.5811 7.89095C27.4464 7.75204 27.2861 7.64166 27.1093 7.56617C26.9325 7.49069 26.7428 7.45159 26.551 7.45114Z" fill="#00C3F7"/>
</g>
</g>
<defs>
<clipPath id="clip0_2420_159">
<rect width="28" height="28" rx="1.16667" fill="white"/>
</clipPath>
<clipPath id="clip1_2420_159">
<rect width="28" height="28" fill="white"/>
</clipPath>
</defs>
</svg>
