<svg width="28" height="28" viewBox="0 0 28 28" fill="none" xmlns="http://www.w3.org/2000/svg">
<g clip-path="url(#clip0_2420_1047)">
<rect width="28" height="28" rx="1.16667" fill="white"/>
<path d="M21.9186 10.9008C22.0344 10.8084 22.0923 10.7622 22.1502 10.716C22.9552 10.0348 23.986 10.1098 24.6751 10.9181C24.7446 10.9989 24.7793 11.0047 24.8488 10.9354C24.8952 10.8835 24.9473 10.843 24.9936 10.7911C25.5322 10.2657 26.2445 10.1098 26.9104 10.4043C27.6111 10.716 27.9876 11.2645 27.9933 12.0324C28.0049 13.6893 27.9991 15.3405 27.9991 16.9974C27.9991 17.5863 27.6343 17.9558 27.0494 17.9558C26.8178 17.9558 26.5861 17.9385 26.3545 17.9616C26.1171 17.9847 26.0476 17.9096 26.0476 17.6614C26.0592 16.0448 26.0534 14.4283 26.0534 12.8118C26.0534 12.7425 26.0534 12.679 26.0534 12.6097C26.0476 12.2344 25.897 12.0785 25.538 12.0612C25.2137 12.0439 24.9878 12.2402 24.9531 12.5693C24.9473 12.6443 24.9531 12.7252 24.9531 12.8002C24.9531 14.1974 24.9531 15.5887 24.9531 16.9859C24.9531 17.5979 24.5998 17.9558 23.986 17.95C23.6733 17.9443 23.2505 18.0886 23.071 17.8865C22.9147 17.7133 23.0189 17.3034 23.0189 16.9974C23.0189 15.5656 23.0189 14.1281 23.0189 12.6963C23.0189 12.1882 22.6888 11.9284 22.2603 12.1016C21.9939 12.2113 21.907 12.4249 21.907 12.7021C21.9128 14.0415 21.907 15.3751 21.907 16.7145C21.907 16.8185 21.907 16.9282 21.907 17.0321C21.8896 17.5921 21.5306 17.9443 20.9747 17.95C20.743 17.9558 20.5114 17.9327 20.2797 17.9558C20.0307 17.9789 19.9555 17.9096 19.9612 17.6441C19.9728 15.3751 19.967 13.1062 19.967 10.8315C19.967 10.7334 19.9728 10.641 19.967 10.5428C19.9555 10.4158 20.0076 10.3754 20.135 10.3754C20.6677 10.3812 21.1947 10.3812 21.7275 10.3754C21.8607 10.3754 21.9244 10.41 21.9128 10.5544C21.9012 10.6583 21.9128 10.7507 21.9186 10.9008Z" fill="#02B9EF"/>
<path d="M9.6412 14.0299C9.6412 14.8209 9.6412 15.6061 9.6412 16.397C9.63541 17.4247 9.09684 17.9558 8.06605 17.9616C7.61435 17.9616 7.15686 17.9674 6.70516 17.9616C5.79019 17.95 5.11843 17.3438 5.0721 16.4316C5.03736 15.7793 5.03157 15.1211 5.06631 14.4687C5.11264 13.5334 5.83072 12.8753 6.78045 12.8637C7.02946 12.8579 7.28426 12.8637 7.53328 12.8637C7.7765 12.8579 7.86915 12.7194 7.86336 12.4884C7.86336 12.2575 7.75912 12.1536 7.52748 12.1651C7.26689 12.1709 7.0063 12.1709 6.7457 12.1651C6.10869 12.1536 5.75544 11.8072 5.76123 11.1837C5.76123 10.9296 5.64541 10.589 5.81335 10.4389C5.95813 10.3119 6.28821 10.3927 6.53722 10.3927C7.18582 10.3869 7.82862 10.3927 8.47721 10.3927C9.16634 10.3927 9.63541 10.8604 9.6412 11.5532C9.64699 12.373 9.6412 13.2043 9.6412 14.0299ZM7.86915 15.3405C7.86915 15.2423 7.86915 15.15 7.86915 15.0518C7.86915 14.4629 7.86915 14.4629 7.27847 14.486C6.98313 14.4976 6.82098 14.6477 6.81519 14.9537C6.8094 15.1961 6.8094 15.4329 6.81519 15.6753C6.82098 16.091 7.00629 16.2007 7.60856 16.218C8.05446 16.2296 7.82862 15.9178 7.86915 15.7446C7.89232 15.6176 7.86336 15.4733 7.86915 15.3405Z" fill="#06306F"/>
<path d="M14.7958 13.4007C14.7958 14.284 14.8074 15.1731 14.79 16.0564C14.7784 16.7377 14.6162 17.3554 13.9561 17.7191C13.6897 17.8635 13.4001 17.9443 13.099 17.9501C12.433 17.9616 11.7671 17.9501 11.1011 17.9616C10.939 17.9616 10.9042 17.9039 10.91 17.7595C10.9216 17.5171 10.9042 17.2803 10.9158 17.0379C10.9274 16.576 11.2806 16.2238 11.7439 16.2065C12.045 16.195 12.3404 16.2007 12.6415 16.2065C12.8847 16.2065 13.0179 16.1084 13.0179 15.8486C13.0179 15.583 12.8905 15.4906 12.6473 15.4848C12.2419 15.4733 11.8366 15.531 11.437 15.4156C10.7479 15.2135 10.244 14.6419 10.2267 13.9318C10.1919 12.806 10.2151 11.6802 10.2093 10.5544C10.2093 10.4274 10.2498 10.387 10.3772 10.3927C10.8521 10.3985 11.3212 10.4043 11.796 10.3927C12.0045 10.387 11.9756 10.5024 11.9756 10.6294C11.9756 11.4781 11.9756 12.321 11.9756 13.1697C11.9756 13.5392 12.1493 13.7355 12.4736 13.7471C12.8558 13.7586 13.0237 13.6027 13.0237 13.2159C13.0237 12.3615 13.0295 11.5012 13.0179 10.6468C13.0179 10.4447 13.0701 10.387 13.2727 10.3927C13.6955 10.4101 14.124 10.4158 14.5468 10.3927C14.7784 10.3812 14.8131 10.4678 14.8074 10.6699C14.79 11.5763 14.7958 12.4885 14.7958 13.4007Z" fill="#06306F"/>
<path d="M0.0396423 14.7112C0.0396423 13.7702 0.0396423 12.8234 0.0396423 11.8823C0.0396423 10.9586 0.60716 10.3812 1.53951 10.3928C2.14756 10.3985 2.75562 10.3235 3.35788 10.439C4.12808 10.5891 4.61453 11.1837 4.62032 11.9747C4.62611 12.8118 4.62032 13.6489 4.62032 14.4861C4.62032 15.5368 4.00068 16.1777 2.94672 16.2065C2.62822 16.2181 2.30971 16.2123 1.99121 16.2065C1.84643 16.2008 1.78273 16.247 1.78852 16.4028C1.8001 16.6338 1.79431 16.8647 1.78852 17.0956C1.77694 17.5921 1.42369 17.9501 0.931455 17.9559C0.641905 17.9616 0.277073 18.0771 0.0917612 17.9097C-0.0819685 17.7538 0.0454333 17.3843 0.0396423 17.1072C0.0338513 16.3105 0.0396423 15.508 0.0396423 14.7112ZM1.78852 13.2968C1.78852 13.4815 1.78852 13.6605 1.78852 13.8452C1.78852 14.4976 1.78852 14.4976 2.4429 14.4399C2.72666 14.4168 2.85986 14.2782 2.86565 13.9953C2.87144 13.672 2.85406 13.343 2.87144 13.0197C2.90618 12.0844 2.73245 12.1767 1.96804 12.171C1.82906 12.171 1.78273 12.2114 1.78273 12.3499C1.79431 12.6617 1.78852 12.9792 1.78852 13.2968Z" fill="#06306F"/>
<path d="M16.4349 14.7228C16.4349 13.9549 16.4291 13.1813 16.4407 12.4134C16.4407 12.2344 16.4002 12.1594 16.2033 12.1652C15.9427 12.1767 15.5952 12.2518 15.4504 12.1248C15.2709 11.9573 15.4099 11.5994 15.3867 11.3223C15.3867 11.3049 15.3867 11.2818 15.3867 11.2645C15.3867 10.9932 15.2999 10.6756 15.4157 10.4736C15.5315 10.2715 15.8848 10.3985 16.1338 10.335C16.626 10.208 16.9966 9.9251 17.2978 9.53251C17.5062 9.26694 17.7668 9.07642 18.1027 9.01291C18.2822 8.97827 18.3923 9.00137 18.3807 9.2323C18.3633 9.55561 18.3807 9.88469 18.3749 10.2138C18.3691 10.3523 18.4212 10.3985 18.5602 10.3927C18.7918 10.387 19.0235 10.3985 19.2551 10.387C19.3941 10.3812 19.4404 10.4332 19.4346 10.5717C19.4289 11.0451 19.4289 11.5128 19.4346 11.9862C19.4346 12.119 19.3999 12.1883 19.2551 12.1709C19.2262 12.1652 19.1972 12.1709 19.1683 12.1709C18.9135 12.194 18.5602 12.0555 18.427 12.2287C18.2996 12.3903 18.3807 12.7252 18.3807 12.985C18.3807 14.5553 18.3749 16.1199 18.3865 17.6903C18.3865 17.9096 18.3286 17.9789 18.1085 17.9616C17.9 17.9443 17.6858 17.9616 17.4715 17.9558C16.8461 17.9327 16.4349 17.5113 16.4349 16.8878C16.4349 16.1661 16.4349 15.4444 16.4349 14.7228Z" fill="#02B9EF"/>
</g>
<defs>
<clipPath id="clip0_2420_1047">
<rect width="28" height="28" rx="1.16667" fill="white"/>
</clipPath>
</defs>
</svg>
