<svg width="320" height="225" viewBox="0 0 320 312" fill="none" xmlns="http://www.w3.org/2000/svg">
<g clip-path="url(#clip0_2283_1303)">
<path d="M5.88249 169.706C5.88249 169.706 7.70074 225.905 54.691 263.362C101.681 300.819 166.797 303.502 219.509 307.059C272.221 310.616 312.712 280.823 318.814 235.793C324.917 190.757 284.637 177.54 262.784 126.275C240.931 75.0107 242.874 58.1627 196.634 26.628C150.388 -4.90103 78.0498 14.46 40.128 68.4757C2.20054 122.491 5.88249 169.706 5.88249 169.706Z" fill="#F1F3F9" stroke="#B5BCCC" stroke-width="1.1364" stroke-miterlimit="10"/>
<path d="M301.633 282.139H310.076" stroke="#1A2E35" stroke-width="0.568202" stroke-linecap="round" stroke-linejoin="round"/>
<path d="M294.418 282.139H297.748" stroke="#1A2E35" stroke-width="0.568202" stroke-linecap="round" stroke-linejoin="round"/>
<path d="M0.287109 282.139H292.013" stroke="#1A2E35" stroke-width="0.568202" stroke-linecap="round" stroke-linejoin="round"/>
<path d="M196.732 217.532V272.648C196.732 277.657 192.675 281.708 187.657 281.708H142.389V204.275L188.43 208.507C193.123 208.91 196.732 212.83 196.732 217.532Z" fill="#AAB2C5"/>
<path d="M196.732 217.532V272.648C196.732 277.658 192.669 281.713 187.652 281.713H142.389V278.367H183.919C188.936 278.367 192.998 274.311 192.998 269.302V214.185C192.998 212.427 192.493 210.787 191.618 209.392C194.663 210.861 196.732 213.981 196.732 217.538V217.532Z" fill="#6F7684"/>
<path d="M187.656 281.957H142.143V204.009L142.41 204.031L188.451 208.263C193.309 208.677 196.974 212.665 196.974 217.532V272.649C196.974 277.782 192.792 281.957 187.65 281.957H187.656ZM142.631 281.464H187.65C192.519 281.464 196.48 277.51 196.48 272.649V217.532C196.48 212.92 193.008 209.148 188.406 208.751L142.631 204.542V281.458V281.464Z" fill="#1A2E35"/>
<path d="M142.388 204.275V281.708H64.2038C60.9196 281.708 57.6354 281.135 54.6239 279.825C39.3223 273.199 44.277 256.016 44.277 256.016C44.277 256.016 37.8392 254.178 35.3164 247.989C32.7879 241.795 37.379 235.14 37.379 235.14C37.379 235.14 33.0152 230.313 32.7823 224.357C32.5152 217.362 40.1348 211.967 40.1348 211.967C40.1348 211.967 38.6404 200.27 47.7203 194.762C54.891 190.411 79.426 198.659 86.091 196.135C95.1311 192.714 76.2043 157.441 83.3352 146.583C85.6705 143.038 88.4604 141.359 91.2502 140.763C98.0403 139.322 104.495 144.428 105.018 151.337C105.546 158.326 107.08 169.615 111.455 181.176C118.575 199.987 142.383 204.269 142.383 204.269L142.388 204.275Z" fill="white"/>
<path d="M142.388 204.275V281.708H64.2038C60.9196 281.708 57.6354 281.135 54.6239 279.825C39.3223 273.199 44.277 256.016 44.277 256.016C44.277 256.016 37.8392 254.178 35.3164 247.989C32.7879 241.795 37.379 235.14 37.379 235.14C37.379 235.14 33.0152 230.313 32.7823 224.357C32.5152 217.362 40.1348 211.967 40.1348 211.967C40.1348 211.967 38.6404 200.27 47.7203 194.762C54.891 190.411 79.426 198.659 86.091 196.135C95.1311 192.714 76.2043 157.441 83.3352 146.583C85.6705 143.038 88.4604 141.359 91.2502 140.763C98.0403 139.322 104.495 144.428 105.018 151.337C105.546 158.326 107.08 169.615 111.455 181.176C118.575 199.987 142.383 204.269 142.383 204.269L142.388 204.275Z" fill="white"/>
<path d="M142.388 204.275V281.708H64.2032C60.919 281.708 57.6348 281.135 54.6234 279.824C50.2425 277.924 47.5208 275.167 45.873 272.189C46.7935 272.79 47.822 273.335 48.9527 273.828C51.9642 275.139 55.2484 275.712 58.5326 275.712H85.8915C113.966 275.712 136.717 252.998 136.717 224.975V202.726C140.098 203.861 142.388 204.275 142.388 204.275Z" fill="#F1F3F9" stroke="#B5BCCC" stroke-width="1.1364" stroke-miterlimit="10"/>
<path d="M142.639 281.957H64.2039C60.6867 281.957 57.4309 281.316 54.5217 280.051C40.169 273.834 43.4589 258.262 43.9759 256.181C42.7941 255.778 37.3564 253.651 35.0836 248.08C32.7482 242.368 36.3904 236.218 37.0666 235.157C36.345 234.307 32.7426 229.768 32.5323 224.362C32.2823 217.714 38.8678 212.591 39.8735 211.848C39.7428 210.47 39.0326 199.743 47.5897 194.552C51.6353 192.101 60.789 193.531 69.6416 194.909C76.5566 195.987 83.0853 197.008 86.0001 195.908C90.3128 194.274 87.8241 184.528 85.1876 174.21C82.3921 163.278 79.5056 151.973 83.1307 146.453C85.2672 143.203 87.9832 141.211 91.1992 140.525C94.4152 139.839 97.796 140.599 100.472 142.601C103.256 144.683 105.006 147.866 105.268 151.32C105.819 158.615 107.382 169.706 111.694 181.091C118.683 199.561 142.201 203.986 142.44 204.031L142.644 204.065V281.952L142.639 281.957ZM54.4365 193.73C51.6694 193.73 49.3454 194.07 47.8511 194.978C39.0155 200.333 40.3678 211.826 40.3849 211.939L40.4019 212.086L40.2826 212.172C40.2087 212.223 32.7767 217.572 33.0323 224.351C33.2596 230.148 37.5211 234.931 37.5666 234.982L37.6973 235.123L37.5893 235.282C37.5439 235.345 33.1005 241.902 35.5495 247.898C37.9984 253.9 44.2884 255.766 44.3509 255.783L44.5896 255.852L44.5214 256.09C44.4703 256.26 39.811 273.142 54.732 279.609C57.5787 280.846 60.7663 281.47 64.2153 281.47H142.156V204.485C139.815 204.003 117.979 199.079 111.24 181.278C106.91 169.836 105.336 158.7 104.785 151.371C104.535 148.053 102.859 145.001 100.188 143.004C97.6256 141.087 94.3925 140.366 91.3128 141.019C88.2275 141.677 85.6138 143.6 83.5512 146.731C80.0454 152.069 83.0341 163.772 85.6763 174.096C88.4889 185.09 90.9151 194.592 86.1876 196.379C83.1534 197.525 76.5566 196.498 69.5791 195.409C64.4369 194.603 58.8742 193.735 54.4479 193.735L54.4365 193.73Z" fill="#1A2E35"/>
<path d="M188.118 265.711C188.118 269.228 185.265 272.075 181.742 272.075C178.22 272.075 175.367 269.228 175.367 265.711C175.367 262.194 178.22 259.346 181.742 259.346C185.265 259.346 188.118 262.194 188.118 265.711Z" fill="white"/>
<path d="M181.742 272.32C178.089 272.32 175.117 269.353 175.117 265.711C175.117 262.069 178.089 259.096 181.742 259.096C185.396 259.096 188.362 262.063 188.362 265.711C188.362 269.358 185.39 272.32 181.742 272.32ZM181.742 259.59C178.362 259.59 175.612 262.336 175.612 265.711C175.612 269.086 178.362 271.832 181.742 271.832C185.123 271.832 187.873 269.086 187.873 265.711C187.873 262.336 185.123 259.59 181.742 259.59Z" fill="#1A2E35"/>
<path d="M144.861 77.5521C140.724 79.1518 136.94 82.2718 135.662 86.515C134.315 90.9794 135.912 95.7275 137.202 100.203C138.497 104.685 139.418 109.796 136.969 113.767C135.23 116.586 132.008 118.401 130.809 121.482C129.735 124.244 130.616 127.517 132.537 129.781C134.457 132.044 137.27 133.4 140.151 134.126C148.975 136.35 158.992 132.646 164.237 125.22C167.151 121.09 168.595 116.127 169.993 111.265C170.771 108.559 171.544 105.859 172.322 103.153C173.095 100.47 173.868 97.7583 174.061 94.973C174.544 87.9672 170.822 80.9897 165.095 77.0359C162.367 75.1525 160.157 74.4377 156.958 75.0504C152.918 75.8219 148.736 76.0431 144.867 77.5407L144.861 77.5521Z" fill="#1A2E35"/>
<path d="M169.602 136.588C169.602 136.588 179.841 158.729 186.153 160.028C192.421 161.321 218.251 137.456 221.2 134.699C221.643 134.461 222.558 133.973 223.439 133.502C224.66 132.838 233.036 126.627 233.331 124.715C233.541 123.337 232.234 123.2 232.234 123.2C232.234 123.2 233.394 122.072 232.717 121.209C232.098 120.421 231.019 120.801 230.871 120.858C230.99 120.784 231.922 120.177 231.536 119.059C231.121 117.874 229.445 118.464 229.337 118.503C229.547 118.35 236.388 113.25 235.149 111.798C233.888 110.323 221.836 120.704 221.836 120.704C221.836 120.704 222.155 115.769 220.507 116.041C218.37 116.399 215.08 124.891 215.08 124.891L190.881 140.775L186.182 134.103L169.602 136.588Z" fill="#FFBFAA"/>
<path d="M225.473 124.863C225.445 124.863 225.417 124.863 225.388 124.863C225.184 124.84 225.019 124.749 224.917 124.596C224.689 124.273 224.615 123.893 224.695 123.478C224.996 121.907 227.479 120.222 227.581 120.149L227.854 120.557C227.854 120.557 225.434 122.196 225.172 123.569C225.115 123.853 225.167 124.097 225.314 124.318C225.331 124.341 225.36 124.369 225.434 124.375C226.331 124.482 229.167 122.134 230.758 120.648L231.093 121.005C230.661 121.408 226.928 124.868 225.468 124.868L225.473 124.863Z" fill="#FFB29F"/>
<path d="M227.002 127.018C226.957 127.018 226.911 127.018 226.866 127.013C226.536 126.973 226.269 126.803 226.105 126.513C225.44 125.362 226.968 123.813 227.036 123.745L227.383 124.091C227.014 124.465 226.133 125.583 226.531 126.264C226.622 126.423 226.747 126.502 226.923 126.525C228.162 126.666 231.003 123.921 231.991 122.849L232.355 123.183C231.986 123.586 228.752 127.024 227.002 127.024V127.018Z" fill="#FFB29F"/>
<path d="M227.57 129.077C227.457 129.077 227.349 129.066 227.246 129.043C227.002 128.987 226.809 128.845 226.695 128.646C226.502 128.306 226.457 127.949 226.559 127.591C226.798 126.757 227.769 126.218 227.809 126.196L228.048 126.627C228.048 126.627 227.212 127.098 227.036 127.733C226.974 127.966 227.002 128.187 227.127 128.408C227.156 128.459 227.212 128.533 227.366 128.573C228.275 128.788 230.576 127.449 231.394 126.91L231.667 127.319C231.372 127.512 228.945 129.083 227.576 129.083L227.57 129.077Z" fill="#FFB29F"/>
<path d="M219.728 126.133L219.529 125.685C221.995 124.59 221.603 120.773 221.598 120.733L222.086 120.676C222.103 120.846 222.524 124.891 219.728 126.133Z" fill="#FFB29F"/>
<path d="M192.74 133.542L186.603 138.33L182.87 140.888L181.523 141.807L177.921 144.269L176.819 145.023L167.318 121.998L167.335 113.721C167.335 113.721 174.097 113.443 179.484 118.112C183.416 121.516 192.74 133.542 192.74 133.542Z" fill="#AAB2C5"/>
<path d="M182.871 140.888L181.53 141.807L177.927 144.269L176.098 129.821L182.871 140.888Z" fill="#6F7684"/>
<path d="M239.6 276.523L225.145 269.137L221.213 265.824L205.707 268.513L205.991 280.692C205.877 281.333 206.372 281.906 207.008 281.889L240.316 281.141C240.879 281.129 241.322 280.664 241.305 280.108L241.276 278.9C241.254 277.833 240.595 276.903 239.6 276.523Z" fill="#858D9E"/>
<path d="M221.213 265.824L220.935 251.79L205.463 258.24L205.702 268.513C212.077 271.026 217.759 269.988 221.208 265.824H221.213Z" fill="#FFCFC5"/>
<path d="M226.094 273.874L225.656 273.653C226.747 271.503 228.827 271.242 228.912 271.236L228.969 271.724C228.889 271.735 227.065 271.968 226.094 273.879V273.874Z" fill="white"/>
<path d="M229.248 275.536L228.811 275.315C229.901 273.165 231.981 272.904 232.066 272.898L232.123 273.386C232.044 273.397 230.22 273.63 229.248 275.542V275.536Z" fill="white"/>
<path d="M281.481 236.088L265.253 236.734L260.196 235.776L248.008 245.714L254.247 256.186C254.457 256.799 255.173 257.054 255.718 256.731L284.373 239.758C284.856 239.474 285.015 238.85 284.725 238.374L284.106 237.336C283.56 236.422 282.532 235.929 281.475 236.088H281.481Z" fill="#858D9E"/>
<path d="M260.196 235.776L253.059 223.687L242.752 236.882L248.014 245.714C254.804 244.784 259.241 241.091 260.201 235.776H260.196Z" fill="#FFCFC5"/>
<path d="M267.917 240.422C267.809 238.011 269.491 236.769 269.565 236.717L269.855 237.115C269.792 237.16 268.315 238.26 268.411 240.399L267.917 240.422Z" fill="white"/>
<path d="M271.48 240.325C271.372 237.914 273.054 236.672 273.127 236.621L273.417 237.018C273.355 237.063 271.877 238.164 271.974 240.303L271.48 240.325Z" fill="white"/>
<path d="M214.36 194.694L225.519 258.467C225.519 261.689 201.939 266.159 201.939 262.937L190.393 208.904L143.982 205.886L186.331 188.857L211.133 186.644L214.36 194.7V194.694Z" fill="#858D9E"/>
<path d="M229.137 257.911C229.336 259 229.086 260.095 228.546 260.917C228.052 261.672 227.302 262.222 226.433 262.381C218.785 263.754 211.137 265.019 203.483 266.182C201.903 266.42 200.318 265.41 199.807 263.68C199.454 262.477 199.665 261.275 200.244 260.39C200.727 259.658 201.472 259.13 202.347 259C210.051 257.831 217.756 256.555 225.461 255.176C227.126 254.876 228.796 256.044 229.137 257.911Z" fill="#858D9E"/>
<path d="M238.228 239.724L218.745 216.835L214.273 194.478C214.273 194.478 161.822 205.886 143.975 205.886C143.867 205.886 143.753 205.886 143.645 205.886C132.071 205.744 124.355 193.883 128.827 183.224L132.906 173.506L147.822 174.232L150.157 177.92L150.81 177.494C166.044 176.689 196.033 168.083 203.664 170.812C208.511 172.548 255.956 225.559 255.956 225.559C259.121 229.076 241.382 243.258 238.222 239.735L238.228 239.724Z" fill="#858D9E"/>
<path d="M173.489 115.973C169.397 110.363 143.476 115.565 135.47 121.516C125.76 128.737 126.623 182.401 126.623 182.401C146.005 182.401 158.869 183.768 175.199 174.306C175.199 174.306 182.199 127.915 173.489 115.968V115.973Z" fill="#AAB2C5"/>
<path d="M148.367 137.865L145.805 158.57L166.402 161.599L138.452 166.461C138.452 166.461 136.605 162.932 136.395 162.66C136.185 162.388 141.083 144.944 141.083 144.944L148.367 137.865Z" fill="#6F7684"/>
<path d="M164.256 204.088L164.182 203.6C185.967 200.361 213.945 194.291 214.223 194.229L214.325 194.711C214.047 194.773 186.052 200.843 164.25 204.088H164.256Z" fill="#1A2E35"/>
<path d="M214.606 194.641L214.121 194.737L218.509 216.88L218.994 216.784L214.606 194.641Z" fill="#1A2E35"/>
<path d="M259.804 224.737C260.508 225.593 260.821 226.671 260.747 227.652C260.679 228.554 260.292 229.4 259.611 229.956C253.588 234.862 247.514 239.673 241.388 244.393C240.121 245.368 238.246 245.249 236.962 243.984C236.07 243.105 235.667 241.948 235.746 240.893C235.809 240.019 236.206 239.196 236.911 238.658C243.082 233.904 249.195 229.059 255.264 224.124C256.576 223.058 258.599 223.267 259.809 224.737H259.804Z" fill="#858D9E"/>
<path d="M166.409 161.599L167.045 172.173C167.045 172.173 130.004 179.003 124.68 172.406C119.305 165.746 127.765 140.775 127.765 140.775L144.027 143.963L139.914 161.684L166.409 161.599Z" fill="#FFBFAA"/>
<path d="M139.807 119.201C128.136 121.623 123.357 148.019 123.357 148.019C129.914 152.574 139.29 153.413 145.807 151.116C145.807 151.116 148.557 139.022 149.387 130.189C150.114 122.503 142.943 118.549 139.807 119.196V119.201Z" fill="#AAB2C5"/>
<path d="M252.277 221.571L242.43 234.25L255.254 224.124L252.277 221.571Z" fill="#6F7684"/>
<path d="M223.995 250.757L209.268 257.916L224.887 255.273L223.995 250.757Z" fill="#6F7684"/>
<path d="M167.282 124.193C164.901 126.026 162.055 121.981 162.055 121.981L159.93 114.232L160.549 111.804L162.1 111.554L166.242 114.618C166.242 114.618 169.663 122.355 167.288 124.188L167.282 124.193Z" fill="#858D9E"/>
<path d="M162.056 121.981C162.056 121.981 159.567 127.722 156.919 127.183C154.271 126.644 146.691 116.677 146.691 116.677L149.459 113.103L156.493 112.468L158.737 117.312L162.05 121.987L162.056 121.981Z" fill="#858D9E"/>
<path d="M149.453 113.103C152.959 116.603 158.459 119.933 162.044 121.987C162.556 118.736 163.363 116.529 162.476 112.944L149.453 113.103Z" fill="#FFBFAA"/>
<path d="M162.482 112.939L149.453 113.103L149.141 97.9172L150.305 99.3127L150.692 99.7722L150.868 99.982L151.05 100.039L160.448 102.989L160.465 103.108L161.692 110.028L161.704 110.102L162.482 112.939Z" fill="#FFBFAA"/>
<path d="M162.078 111.475C162.078 111.475 153.577 106.897 151.236 101.82C151.089 101.491 150.969 101.19 150.878 100.912C150.85 100.827 150.822 100.742 150.799 100.657L151.236 101.179L151.361 101.332L160.646 104.248L162.072 111.475H162.078Z" fill="#FB987C"/>
<path d="M169.487 92.0319C169.859 90.9176 169.257 89.7125 168.141 89.3403C167.024 88.9681 165.817 89.5697 165.445 90.684C165.072 91.7984 165.674 93.0035 166.791 93.3757C167.907 93.7479 169.114 93.1462 169.487 92.0319Z" fill="#FFB902"/>
<path d="M164.806 107.419C160.164 109.149 153.533 106.319 149.953 100.26C148.885 100.51 147.169 100.328 146.01 99.5169C144.175 98.2178 143.459 96.0565 144.442 94.6951C144.993 93.9122 145.896 93.2712 146.982 93.362C145.686 86.9405 148.413 81.0862 152.777 79.3447C156.039 78.0456 161.295 78.1251 164.505 81.16C166.477 83.0263 168.204 85.5507 169.391 88.5402C172.539 96.3685 169.392 105.706 164.806 107.425V107.419Z" fill="#FFBFAA"/>
<path d="M164.027 90.571L167.618 96.2834L164.647 97.6449L164.027 90.571Z" fill="#FB987C"/>
<path d="M149.957 95.2794C149.588 94.1448 149.411 92.8004 150.127 91.8417C150.667 91.1212 151.593 90.8036 152.468 90.588C154.031 90.2079 155.201 89.4875 156.781 89.2946C158.65 89.0677 160.52 88.7047 162.236 87.9105C164.463 86.8724 166.423 84.989 166.963 82.5951C167.367 80.8025 166.918 78.8341 165.764 77.4046C164.611 75.9694 161.741 74.2449 159.9 74.2732C158.696 74.2903 156.27 75.0164 155.128 75.3851C152.559 76.2133 150.508 77.0018 147.94 77.83C146.701 78.2271 145.531 79.3163 144.729 80.3431C143.002 82.5554 146.252 85.8967 145.014 88.4153C144.514 89.4364 143.536 90.3668 143.712 91.49C143.815 92.1593 144.337 92.7096 144.945 93.0216C145.718 93.4187 146.553 93.3279 147.32 93.6172C147.741 93.7761 149.826 94.8879 149.951 95.2794H149.957Z" fill="#1A2E35"/>
<path d="M187.403 166.495C183.352 163.874 179.437 160.391 176.408 157.418C177.721 153.981 179.016 150.549 179.016 150.549L184.511 146.64C184.511 146.64 185.079 159.245 187.403 166.5V166.495Z" fill="#242B2B"/>
<path d="M171.059 162.172C171.059 162.172 176.343 156.585 179.03 157.521C181.712 158.457 175.377 163.148 175.377 163.148" fill="#FFCFC5"/>
<path d="M177.804 180.444H199.373C200.93 180.444 202.237 179.292 202.436 177.749L206.033 149.312C206.266 147.474 204.834 145.846 202.97 145.846H181.407C179.85 145.846 178.543 146.998 178.344 148.541L174.748 176.978C174.515 178.816 175.946 180.444 177.804 180.444Z" fill="#242B2B"/>
<path d="M199.373 180.694H177.804C176.849 180.694 175.94 180.285 175.309 179.57C174.679 178.856 174.383 177.903 174.503 176.955L178.099 148.518C178.31 146.861 179.73 145.608 181.401 145.608H202.964C203.918 145.608 204.833 146.016 205.464 146.731C206.095 147.446 206.39 148.399 206.271 149.346L202.674 177.783C202.464 179.44 201.043 180.694 199.373 180.694ZM181.406 146.096C179.98 146.096 178.77 147.162 178.588 148.575L174.991 177.012C174.889 177.818 175.139 178.634 175.679 179.241C176.219 179.848 176.991 180.2 177.804 180.2H199.373C200.799 180.2 202.009 179.134 202.191 177.721L205.788 149.284C205.89 148.478 205.64 147.661 205.1 147.054C204.56 146.447 203.788 146.096 202.969 146.096H181.406Z" fill="#242B2B"/>
<path d="M178.906 180.444H200.475C202.032 180.444 203.339 179.292 203.538 177.749L207.134 149.312C207.367 147.474 205.935 145.846 204.072 145.846H182.508C180.952 145.846 179.645 146.997 179.446 148.54L175.849 176.978C175.616 178.816 177.048 180.444 178.906 180.444Z" fill="white"/>
<path d="M178.906 180.444H200.475C201.72 180.444 202.81 179.701 203.293 178.612C203.146 178.634 202.981 178.646 202.828 178.646H181.259C179.406 178.646 177.969 177.023 178.202 175.18L181.798 146.742C181.838 146.436 181.923 146.141 182.043 145.88C180.696 146.084 179.622 147.156 179.452 148.54L175.855 176.978C175.622 178.816 177.054 180.444 178.912 180.444H178.906Z" fill="#E5E8FF"/>
<path d="M200.476 180.694H178.907C177.953 180.694 177.044 180.285 176.413 179.57C175.782 178.856 175.487 177.903 175.606 176.955L179.203 148.518C179.413 146.861 180.834 145.608 182.51 145.608H204.073C205.028 145.608 205.942 146.016 206.573 146.731C207.204 147.446 207.499 148.399 207.38 149.346L203.783 177.783C203.573 179.44 202.152 180.694 200.482 180.694H200.476ZM182.51 146.096C181.084 146.096 179.873 147.162 179.691 148.575L176.095 177.012C175.992 177.818 176.242 178.634 176.782 179.241C177.322 179.848 178.095 180.2 178.907 180.2H200.476C201.902 180.2 203.113 179.134 203.295 177.721L206.891 149.284C206.994 148.478 206.744 147.661 206.204 147.054C205.664 146.447 204.891 146.096 204.073 146.096H182.51Z" fill="#242B2B"/>
<path d="M166.407 161.599L172.469 161.628C172.469 161.628 174.384 160.198 177.146 159.727C179.907 159.256 187.288 158.32 187.572 159.37C188.05 161.134 182.186 161.94 180.151 161.764C180.151 161.764 187.993 163.222 188.05 164.05C188.106 164.878 179.538 164.05 179.538 164.05C179.538 164.05 187.072 165.309 186.817 166.359C186.561 167.408 178.794 166.319 178.794 166.319C178.794 166.319 185.413 167.692 184.924 168.906C184.436 170.12 177.066 170.46 177.066 170.46C177.066 170.46 175.379 171.901 173.89 172.185C172.401 172.468 167.037 172.173 167.037 172.173C165.299 170.817 164.441 162.501 166.401 161.599H166.407Z" fill="#FFBFAA"/>
<path d="M183.402 165.098C181.527 164.634 179.521 164.299 179.498 164.299L179.578 163.817C179.578 163.817 181.623 164.157 183.515 164.628L183.396 165.104L183.402 165.098Z" fill="#FFB29F"/>
<path d="M183.448 164.588C181.453 164.48 179.533 164.299 179.516 164.299L179.561 163.812C179.561 163.812 181.487 163.999 183.47 164.101L183.442 164.588H183.448Z" fill="#FFB29F"/>
<path d="M183.179 162.636C181.554 162.274 180.117 162.002 180.105 162.002L180.196 161.52C180.196 161.52 181.657 161.792 183.293 162.16L183.185 162.636H183.179Z" fill="#FFB29F"/>
<path d="M180.799 162.03C180.555 162.03 180.328 162.018 180.129 162.001L180.169 161.514C181.004 161.587 182.691 161.485 184.288 161.151L184.39 161.633C183.197 161.882 181.828 162.03 180.799 162.03Z" fill="#FFB29F"/>
<path d="M192.318 167.624C194.159 167.624 195.863 166.132 196.119 164.288C196.375 162.45 195.085 160.958 193.244 160.958C191.403 160.958 189.698 162.444 189.442 164.288C189.187 166.126 190.477 167.624 192.318 167.624Z" fill="#AAB2C5"/>
<path d="M192.317 167.624C193.17 167.624 193.999 167.306 194.658 166.773C194.306 166.886 193.942 166.949 193.567 166.949C191.726 166.949 190.437 165.457 190.692 163.613C190.829 162.632 191.38 161.747 192.141 161.14C190.766 161.582 189.641 162.825 189.437 164.288C189.181 166.132 190.471 167.624 192.312 167.624H192.317Z" fill="#858D9E"/>
<path d="M85.5398 216.012C70.9768 212.529 40.4416 212.223 40.1348 212.217V211.723C40.4473 211.723 71.0393 212.035 85.6534 215.53L85.5398 216.006V216.012Z" fill="#1A2E35"/>
<path d="M81.7949 237.88C63.1692 236.258 37.6229 235.396 37.3672 235.39L37.3842 234.896C37.6399 234.908 63.1976 235.764 81.8404 237.387L81.7949 237.875V237.88Z" fill="#1A2E35"/>
<path d="M77.9486 257.06C63.4936 255.619 44.4702 256.26 44.2827 256.266L44.2656 255.772C44.4588 255.766 63.5106 255.125 77.9998 256.572L77.9486 257.06Z" fill="#1A2E35"/>
<path d="M125.575 243.417L125.086 243.394C125.092 243.247 125.78 228.293 120.205 222.473C118.745 220.947 116.955 220.17 114.898 220.17H114.859C112.995 220.181 111.359 220.902 109.983 222.32C104.449 228.033 104.813 243.247 104.813 243.4L104.319 243.411C104.301 242.776 103.943 227.84 109.626 221.98C111.091 220.465 112.853 219.694 114.853 219.682H114.898C117.097 219.682 119.001 220.505 120.563 222.133C126.285 228.106 125.615 242.793 125.581 243.417H125.575Z" fill="#1A2E35"/>
<path d="M139.525 281.713H93.8301L97.9609 235.566H126.377L139.525 281.713Z" fill="#AAB2C5"/>
<path d="M139.526 281.957H93.8253C93.7571 281.957 93.6889 281.929 93.6434 281.878C93.598 281.827 93.5753 281.759 93.5809 281.691L97.7118 235.549C97.7231 235.424 97.8311 235.328 97.9561 235.328H126.372C126.48 235.328 126.576 235.401 126.611 235.503L139.764 281.645C139.787 281.719 139.77 281.799 139.725 281.861C139.679 281.923 139.605 281.957 139.526 281.957ZM94.098 281.464H139.202L126.19 235.81H98.1834L94.098 281.464Z" fill="#1A2E35"/>
<g opacity="0.1">
<path d="M130.337 281.713H86.4375L90.5683 235.566H126.206L130.337 281.713Z" fill="#1A2E35"/>
</g>
<path d="M130.603 281.957H86.1641L90.3404 235.322H126.427L126.45 235.543L130.603 281.952V281.957ZM86.7039 281.464H130.069L125.984 235.81H90.7949L86.7095 281.464H86.7039Z" fill="#1A2E35"/>
<path d="M119.115 243.411L118.621 243.389C118.627 243.201 119.354 224.408 113.183 218.02C111.837 216.625 110.234 215.916 108.427 215.916H108.388C106.757 215.927 105.291 216.585 104.035 217.878C97.9554 224.13 98.3361 243.201 98.3418 243.394L97.8475 243.406C97.8304 242.611 97.4554 223.942 103.677 217.538C105.03 216.148 106.609 215.439 108.376 215.428C110.359 215.428 112.075 216.176 113.53 217.68C119.848 224.22 119.138 242.628 119.104 243.411H119.115Z" fill="#1A2E35"/>
<path d="M99.4854 251.007L98.9968 250.984C99.0024 250.865 99.5479 238.901 95.0932 234.25C93.9284 233.036 92.5136 232.423 90.8715 232.423H90.8374C89.36 232.429 88.0532 233.008 86.9622 234.131C82.5359 238.697 82.8257 250.871 82.8314 250.996L82.3371 251.007C82.32 250.497 82.0359 238.504 86.6043 233.785C87.7918 232.559 89.2123 231.935 90.826 231.93H90.8601C92.6386 231.93 94.1784 232.599 95.4341 233.909C100.037 238.714 99.4968 250.514 99.4684 251.013L99.4854 251.007Z" fill="#1A2E35"/>
<path d="M110.62 281.713H73.9824L77.295 244.716H100.074L110.62 281.713Z" fill="#6F7684"/>
<path d="M110.621 281.957H73.9776C73.9094 281.957 73.8412 281.929 73.7958 281.878C73.7503 281.827 73.7276 281.759 73.7333 281.691L77.0459 244.693C77.0573 244.569 77.1652 244.472 77.2902 244.472H100.075C100.183 244.472 100.28 244.546 100.314 244.648L110.86 281.645C110.882 281.719 110.865 281.799 110.82 281.861C110.774 281.923 110.701 281.957 110.621 281.957ZM74.2503 281.464H110.297L99.8933 244.96H77.5232L74.256 281.464H74.2503Z" fill="#1A2E35"/>
<path d="M103.255 281.713H68.0547L71.3616 244.716H99.9422L103.255 281.713Z" fill="#858D9E"/>
<path d="M103.256 281.957H68.0557C67.9875 281.957 67.9194 281.929 67.8739 281.878C67.8285 281.827 67.8057 281.759 67.8114 281.691L71.124 244.693C71.1354 244.569 71.2433 244.472 71.3684 244.472H99.9432C100.068 244.472 100.176 244.569 100.188 244.693L103.5 281.691C103.506 281.759 103.483 281.827 103.438 281.878C103.392 281.929 103.324 281.957 103.256 281.957ZM68.3228 281.464H102.983L99.716 244.96H71.5899L68.3228 281.464Z" fill="#1A2E35"/>
<path d="M94.3014 251.007L93.8071 250.984C93.8128 250.831 94.3923 235.787 89.4603 230.682C88.3808 229.564 87.0966 229.025 85.6534 229.008C84.3579 229.014 83.1988 229.541 82.1987 230.568C77.3406 235.566 77.6474 250.837 77.6474 250.99L77.1531 251.001C77.136 250.366 76.8406 235.373 81.8408 230.228C82.9317 229.105 84.2158 228.526 85.642 228.52H85.6761C87.25 228.52 88.6365 229.133 89.8069 230.341C94.8867 235.6 94.3185 250.377 94.2901 251.007H94.3014Z" fill="#1A2E35"/>
<path d="M84.4207 262.154C84.4207 262.154 79.2784 256.113 77.2727 261.445C75.2726 266.777 84.8525 273.647 84.8525 273.647C84.8525 273.647 93.8358 264.877 91.4323 261.343C88.381 256.861 84.4207 262.154 84.4207 262.154Z" fill="white"/>
<path d="M287.9 71.3119V93.549C287.9 98.6885 283.729 102.858 278.575 102.858H224.983L205.584 109.586C203.738 110.227 201.891 108.616 202.277 106.704L203.061 102.858H199.709C194.561 102.858 190.385 98.6885 190.385 93.549V71.3119C190.385 66.1724 194.561 62.003 199.709 62.003H278.57C283.718 62.003 287.894 66.1724 287.894 71.3119H287.9Z" fill="white"/>
<path d="M287.899 71.3121V93.5492C287.899 98.6887 283.728 102.858 278.575 102.858H224.982L205.583 109.586C203.731 110.227 201.89 108.616 202.276 106.704L202.504 105.581L220.038 99.4999H273.631C278.779 99.4999 282.955 95.3304 282.955 90.1909V67.9538C282.955 65.8493 282.257 63.9092 281.075 62.3492C285.012 63.4327 287.899 67.0349 287.899 71.3121Z" fill="#AAB2C5"/>
<path d="M204.747 109.977C204.094 109.977 203.452 109.739 202.935 109.291C202.173 108.627 201.844 107.646 202.043 106.659L202.764 103.108H199.713C194.434 103.108 190.145 98.8248 190.145 93.5548V71.3177C190.145 66.0478 194.434 61.7649 199.713 61.7649H278.574C283.852 61.7649 288.142 66.0478 288.142 71.3177V93.5548C288.142 98.8248 283.852 103.108 278.574 103.108H225.026L205.668 109.824C205.367 109.932 205.054 109.983 204.747 109.983V109.977ZM199.713 62.2527C194.707 62.2527 190.639 66.3201 190.639 71.3121V93.5492C190.639 98.5468 194.713 102.609 199.713 102.609H203.065C203.139 102.609 203.207 102.643 203.253 102.699C203.298 102.756 203.315 102.83 203.304 102.903L202.52 106.75C202.355 107.561 202.628 108.372 203.253 108.917C203.878 109.461 204.719 109.626 205.503 109.353L224.901 102.626C224.901 102.626 224.953 102.614 224.981 102.614H278.574C283.58 102.614 287.648 98.5468 287.648 93.5548V71.3177C287.648 66.3201 283.574 62.2584 278.574 62.2584H199.713V62.2527Z" fill="#1A2E35"/>
<path d="M212.38 82.8674C212.13 83.1114 212.011 83.4687 212.068 83.8148L212.562 86.6625C212.71 87.5304 211.795 88.1998 211.005 87.7857L208.449 86.4412C208.136 86.2767 207.761 86.2767 207.448 86.4412L204.886 87.7857C204.102 88.1998 203.181 87.5304 203.335 86.6625L203.823 83.8148C203.88 83.4687 203.767 83.1114 203.517 82.8674L201.443 80.8536C200.801 80.2353 201.159 79.1575 202.034 79.0327L204.897 78.6129C205.244 78.5618 205.545 78.3406 205.704 78.0286L206.983 75.4418C207.375 74.6476 208.511 74.6476 208.903 75.4418L210.187 78.0286C210.341 78.3406 210.647 78.5618 210.988 78.6129L213.858 79.0327C214.733 79.1631 215.085 80.2353 214.449 80.8536L212.38 82.8674Z" fill="#F1F3F9" stroke="#B5BCCC" stroke-width="1.1364" stroke-miterlimit="10"/>
<path d="M232.461 82.8674C232.211 83.1114 232.091 83.4687 232.148 83.8148L232.642 86.6625C232.79 87.5304 231.875 88.1998 231.086 87.7857L228.529 86.4412C228.216 86.2767 227.841 86.2767 227.529 86.4412L224.966 87.7857C224.182 88.1998 223.261 87.5304 223.415 86.6625L223.903 83.8148C223.96 83.4687 223.847 83.1114 223.597 82.8674L221.523 80.8536C220.881 80.2353 221.239 79.1575 222.114 79.0327L224.977 78.6129C225.324 78.5618 225.625 78.3406 225.784 78.0286L227.063 75.4418C227.455 74.6476 228.591 74.6476 228.983 75.4418L230.267 78.0286C230.421 78.3406 230.728 78.5618 231.068 78.6129L233.938 79.0327C234.813 79.1631 235.165 80.2353 234.529 80.8536L232.461 82.8674Z" fill="#F1F3F9" stroke="#B5BCCC" stroke-width="1.1364" stroke-miterlimit="10"/>
<path d="M252.541 82.8674C252.291 83.1114 252.171 83.4687 252.228 83.8148L252.722 86.6625C252.87 87.5304 251.955 88.1998 251.166 87.7857L248.609 86.4412C248.296 86.2767 247.921 86.2767 247.609 86.4412L245.046 87.7857C244.262 88.1998 243.341 87.5304 243.495 86.6625L243.984 83.8148C244.04 83.4687 243.927 83.1114 243.677 82.8674L241.603 80.8536C240.961 80.2353 241.319 79.1575 242.194 79.0327L245.057 78.6129C245.404 78.5618 245.705 78.3406 245.864 78.0286L247.143 75.4418C247.535 74.6476 248.671 74.6476 249.063 75.4418L250.347 78.0286C250.501 78.3406 250.808 78.5618 251.149 78.6129L254.018 79.0327C254.893 79.1631 255.245 80.2353 254.609 80.8536L252.541 82.8674Z" fill="#F1F3F9" stroke="#B5BCCC" stroke-width="1.1364" stroke-miterlimit="10"/>
<path d="M272.621 82.8674C272.371 83.1114 272.251 83.4687 272.308 83.8148L272.803 86.6625C272.95 87.5304 272.035 88.1998 271.246 87.7857L268.689 86.4412C268.376 86.2767 268.001 86.2767 267.689 86.4412L265.126 87.7857C264.342 88.1998 263.422 87.5304 263.575 86.6625L264.064 83.8148C264.12 83.4687 264.007 83.1114 263.757 82.8674L261.683 80.8536C261.041 80.2353 261.399 79.1575 262.274 79.0327L265.138 78.6129C265.484 78.5618 265.785 78.3406 265.944 78.0286L267.223 75.4418C267.615 74.6476 268.751 74.6476 269.143 75.4418L270.427 78.0286C270.581 78.3406 270.888 78.5618 271.229 78.6129L274.098 79.0327C274.973 79.1631 275.325 80.2353 274.689 80.8536L272.621 82.8674Z" fill="#F1F3F9" stroke="#B5BCCC" stroke-width="1.1364" stroke-miterlimit="10"/>
<path d="M122.801 107.856C126.679 102.641 125.588 95.2754 120.365 91.4041C115.142 87.5327 107.764 88.6217 103.886 93.8364C100.009 99.0511 101.099 106.417 106.323 110.288C111.546 114.159 118.924 113.07 122.801 107.856Z" fill="#AAB2C5"/>
<path d="M123.923 95.6708C126.786 101.502 124.371 108.548 118.525 111.407C115.74 112.768 112.678 112.933 109.928 112.099C112.235 112.462 114.672 112.15 116.934 111.044C122.775 108.185 125.195 101.134 122.332 95.3077C120.832 92.2558 118.189 90.1398 115.167 89.2265C118.831 89.7995 122.172 92.0913 123.928 95.6708H123.923Z" fill="#6F7684"/>
<path d="M106.982 103.476C106.801 103.476 106.624 103.374 106.539 103.204C106.232 102.586 106.153 101.899 106.301 101.275C106.46 100.617 106.857 100.101 107.426 99.8289C108.556 99.2786 110 99.8913 110.642 101.202C110.761 101.446 110.659 101.741 110.414 101.86C110.17 101.979 109.875 101.877 109.755 101.633C109.352 100.81 108.499 100.396 107.852 100.714C107.556 100.861 107.34 101.145 107.249 101.514C107.153 101.916 107.21 102.365 107.414 102.779C107.534 103.023 107.431 103.318 107.187 103.437C107.119 103.471 107.045 103.488 106.971 103.488L106.982 103.476Z" fill="#1A2E35"/>
<path d="M115.711 99.2105C115.529 99.2105 115.353 99.1084 115.268 98.9383C114.626 97.6279 115.024 96.1132 116.154 95.5573C117.285 95.0014 118.728 95.6197 119.37 96.9244C119.49 97.1684 119.387 97.4633 119.143 97.5825C118.899 97.7016 118.603 97.5995 118.484 97.3556C118.081 96.533 117.228 96.1189 116.581 96.4366C115.938 96.7542 115.74 97.6789 116.143 98.5014C116.262 98.7454 116.16 99.0404 115.916 99.1595C115.848 99.1935 115.774 99.2105 115.7 99.2105H115.711Z" fill="#1A2E35"/>
<path d="M111.125 105.371C112.153 107.215 114.449 107.952 116.37 107.011C118.284 106.075 119.108 103.805 118.279 101.865L111.125 105.365V105.371Z" fill="white"/>
</g>
<defs>
<clipPath id="clip0_2283_1303">
<rect width="320" height="312" fill="white"/>
</clipPath>
</defs>
</svg>
