<svg width="24" height="24" viewBox="0 0 24 24" fill="none" xmlns="http://www.w3.org/2000/svg">
<path d="M17.7068 12.293C17.6141 12.2001 17.5039 12.1263 17.3825 12.076C17.2612 12.0257 17.1312 11.9998 16.9998 11.9998C16.8685 11.9998 16.7385 12.0257 16.6172 12.076C16.4958 12.1263 16.3856 12.2001 16.2928 12.293L14.6988 13.887C13.9598 13.667 12.5808 13.167 11.7068 12.293C10.8328 11.419 10.3328 10.04 10.1128 9.30102L11.7068 7.70702C11.7998 7.61423 11.8735 7.50403 11.9238 7.38271C11.9742 7.2614 12 7.13135 12 7.00002C12 6.86868 11.9742 6.73864 11.9238 6.61732C11.8735 6.49601 11.7998 6.38581 11.7068 6.29302L7.70685 2.29302C7.61406 2.20007 7.50385 2.12633 7.38254 2.07602C7.26122 2.02571 7.13118 1.99982 6.99985 1.99982C6.86851 1.99982 6.73847 2.02571 6.61715 2.07602C6.49584 2.12633 6.38563 2.20007 6.29285 2.29302L3.58085 5.00502C3.20085 5.38502 2.98685 5.90702 2.99485 6.44002C3.01785 7.86402 3.39485 12.81 7.29285 16.708C11.1908 20.606 16.1368 20.982 17.5618 21.006H17.5898C18.1178 21.006 18.6168 20.798 18.9948 20.42L21.7068 17.708C21.7998 17.6152 21.8735 17.505 21.9238 17.3837C21.9741 17.2624 22 17.1324 22 17.001C22 16.8697 21.9741 16.7396 21.9238 16.6183C21.8735 16.497 21.7998 16.3868 21.7068 16.294L17.7068 12.293ZM17.5798 19.005C16.3318 18.984 12.0618 18.649 8.70685 15.293C5.34085 11.927 5.01485 7.64202 4.99485 6.41902L6.99985 4.41402L9.58585 7.00002L8.29285 8.29302C8.17531 8.41047 8.08889 8.55536 8.0414 8.71459C7.99391 8.87382 7.98684 9.04237 8.02085 9.20502C8.04485 9.32002 8.63185 12.047 10.2918 13.707C11.9518 15.367 14.6788 15.954 14.7938 15.978C14.9564 16.013 15.1251 16.0065 15.2845 15.9591C15.4439 15.9118 15.5888 15.8251 15.7058 15.707L16.9998 14.414L19.5858 17L17.5798 19.005Z" fill="#040620"/>
</svg>
