<svg width="750" height="288" viewBox="0 0 750 288" fill="none" xmlns="http://www.w3.org/2000/svg">
<mask id="mask0_6668_18691" style="mask-type:luminance" maskUnits="userSpaceOnUse" x="180" y="0" width="390" height="288">
<path d="M570 0H180V288H570V0Z" fill="white"/>
</mask>
<g mask="url(#mask0_6668_18691)">
<path d="M530.922 268.303H505.088V268.498H530.922V268.303Z" fill="#EBEBEB"/>
<path d="M438.351 270.428H431.572V270.623H438.351V270.428Z" fill="#EBEBEB"/>
<path d="M504.309 261.056H489.34V261.251H504.309V261.056Z" fill="#EBEBEB"/>
<path d="M254.606 262.368H220.918V262.563H254.606V262.368Z" fill="#EBEBEB"/>
<path d="M266.494 262.368H261.557V262.563H266.494V262.368Z" fill="#EBEBEB"/>
<path d="M355.617 265.664H282.547V265.859H355.617V265.664Z" fill="#EBEBEB"/>
<path d="M365.953 220.905H215.335C212.878 220.905 210.881 218.905 210.881 216.445V4.45949C210.881 1.99935 212.878 0 215.335 0H365.953C368.41 0 370.407 1.99935 370.407 4.45949V216.445C370.407 218.905 368.41 220.905 365.953 220.905ZM215.335 0.195249C212.987 0.195249 211.076 2.10869 211.076 4.45949V216.445C211.076 218.796 212.987 220.709 215.335 220.709H365.953C368.301 220.709 370.212 218.796 370.212 216.445V4.45949C370.212 2.10869 368.301 0.195249 365.953 0.195249H215.335Z" fill="#EBEBEB"/>
<path d="M534.666 220.905H384.048C381.591 220.905 379.594 218.905 379.594 216.445V4.45949C379.594 1.99935 381.591 0 384.048 0H534.666C537.123 0 539.12 1.99935 539.12 4.45949V216.445C539.12 218.905 537.123 220.905 534.666 220.905ZM384.048 0.195249C381.7 0.195249 379.789 2.10869 379.789 4.45949V216.445C379.789 218.796 381.7 220.709 384.048 220.709H534.666C537.014 220.709 538.925 218.796 538.925 216.445V4.45949C538.925 2.10869 537.014 0.195249 534.666 0.195249H384.048Z" fill="#EBEBEB"/>
<path d="M570 255.737H180V255.932H570V255.737Z" fill="#EBEBEB"/>
<path d="M497.288 85.8002H466.455C463.522 85.8002 461.143 88.1822 461.143 91.1188V111.003C461.143 113.939 463.522 116.322 466.455 116.322H475.323L479.286 121.507C480.588 123.218 483.162 123.218 484.465 121.507L488.427 116.322H497.296C500.229 116.322 502.608 113.939 502.608 111.003V91.1188C502.608 88.1822 500.229 85.8002 497.296 85.8002H497.288Z" fill="#E0E0E0"/>
<path d="M475.237 103.185C473.692 101.67 473.029 100.014 473.029 98.5304C473.029 96 474.714 94.313 477.272 94.313C479.659 94.313 480.47 95.4221 481.867 97.0231C483.263 95.4221 484.074 94.313 486.461 94.313C489.019 94.313 490.704 96 490.704 98.5304C490.704 100.014 490.033 101.67 488.497 103.185L481.867 109.792L475.237 103.185Z" fill="white"/>
<path d="M258.672 242.156C256.854 240.375 256.066 238.415 256.066 236.665C256.066 233.682 258.055 231.69 261.066 231.69C263.874 231.69 264.834 232.994 266.479 234.877C268.125 232.994 269.085 231.69 271.893 231.69C274.903 231.69 276.892 233.682 276.892 236.665C276.892 238.415 276.105 240.367 274.287 242.156L266.479 249.942L258.672 242.156Z" fill="#E0E0E0"/>
<path d="M276.306 250.942C275.198 249.848 274.715 248.653 274.715 247.591C274.715 245.764 275.932 244.553 277.772 244.553C279.488 244.553 280.074 245.35 281.08 246.506C282.086 245.35 282.671 244.553 284.387 244.553C286.228 244.553 287.445 245.772 287.445 247.591C287.445 248.661 286.961 249.856 285.854 250.942L281.08 255.698L276.306 250.942Z" fill="#EBEBEB"/>
<path d="M476.571 29.1545H441.198C437.837 29.1545 435.107 31.888 435.107 35.254V58.0669C435.107 61.433 437.837 64.1665 441.198 64.1665H451.37L455.909 70.1177C457.407 72.078 460.355 72.078 461.853 70.1177L466.393 64.1665H476.564C479.925 64.1665 482.655 61.433 482.655 58.0669V35.254C482.655 31.888 479.925 29.1545 476.564 29.1545H476.571Z" fill="#F5F5F5"/>
<path d="M447.775 55.8334H451.784V41.5646H447.104L447.775 55.8334Z" fill="#E0E0E0"/>
<path d="M470.372 43.7982C470.169 43.1656 469.529 41.8379 468.921 41.5724C467.166 40.7836 463.32 41.0335 459.912 41.4865C460.052 41.2131 460.177 40.971 460.239 40.7914C460.536 40.0182 461.004 38.3937 460.949 37.5737C460.902 36.8161 460.551 35.137 459.912 34.7387C459.569 34.52 458.586 34.4497 458.305 34.7387C457.634 35.4416 458.102 37.6752 457.829 38.6202C457.58 39.4793 456.464 41.0023 455.505 42.1972C454.319 42.4159 453.555 42.5799 453.555 42.5799V55.1773C453.555 55.1773 463.827 57.9733 467.135 57.0752C468.406 56.7237 469.007 54.5213 469.475 53.2873C470.309 51.0693 471.089 46.0709 470.364 43.8139L470.372 43.7982Z" fill="#E0E0E0"/>
<path d="M387.089 48.9685C386.715 44.3294 382.846 40.7603 378.205 40.7603H371.793C367.144 40.7603 363.283 44.3294 362.909 48.9685L362.371 54.4121H387.627L387.089 48.9685Z" fill="#EBEBEB"/>
<path d="M375 40.7602C378.321 40.7602 381.014 38.0643 381.014 34.7387C381.014 31.4131 378.321 28.7172 375 28.7172C371.679 28.7172 368.986 31.4131 368.986 34.7387C368.986 38.0643 371.679 40.7602 375 40.7602Z" fill="#EBEBEB"/>
<path d="M255.675 132.918C254.716 132.918 253.834 133.254 253.14 133.824L248.312 129.926C248.585 129.38 248.749 128.763 248.749 128.107C248.749 125.881 246.947 124.077 244.724 124.077C242.501 124.077 240.699 125.881 240.699 128.107C240.699 130.333 242.501 132.137 244.724 132.137C245.683 132.137 246.565 131.801 247.259 131.231L252.087 135.128C251.814 135.675 251.65 136.292 251.65 136.948C251.65 137.604 251.806 138.221 252.087 138.767L247.259 142.664C246.565 142.102 245.683 141.759 244.724 141.759C242.501 141.759 240.699 143.563 240.699 145.788C240.699 148.014 242.501 149.818 244.724 149.818C246.947 149.818 248.749 148.014 248.749 145.788C248.749 145.132 248.593 144.515 248.312 143.969L253.14 140.072C253.834 140.634 254.716 140.978 255.675 140.978C257.898 140.978 259.7 139.173 259.7 136.948C259.7 134.722 257.898 132.918 255.675 132.918Z" fill="#E0E0E0"/>
<path d="M375 288C458.524 288 526.234 284.042 526.234 279.159C526.234 274.276 458.524 270.318 375 270.318C291.476 270.318 223.766 274.276 223.766 279.159C223.766 284.042 291.476 288 375 288Z" fill="#F5F5F5"/>
<path d="M450.552 169.585H509.582C514.114 169.585 517.788 173.264 517.788 177.801V222.732C517.788 227.27 514.114 230.948 509.582 230.948H465.005C464.132 238.133 458.024 243.702 450.614 243.702C450.287 243.702 449.967 243.671 449.639 243.655C451.948 240.609 453.828 236.204 455.06 230.948H450.544C446.012 230.948 442.338 227.27 442.338 222.732V177.801C442.338 173.264 446.012 169.585 450.544 169.585H450.552Z" fill="#407BFF"/>
<path d="M450.552 169.585H509.582C514.114 169.585 517.788 173.264 517.788 177.801V222.732C517.788 227.27 514.114 230.948 509.582 230.948H465.005C464.132 238.133 458.024 243.702 450.614 243.702C450.287 243.702 449.967 243.671 449.639 243.655C451.948 240.609 453.828 236.204 455.06 230.948H450.544C446.012 230.948 442.338 227.27 442.338 222.732V177.801C442.338 173.264 446.012 169.585 450.544 169.585H450.552Z" fill="#375A64"/>
<path d="M447.758 187.048L444.841 182.113L446.666 178.957C446.908 178.543 446.947 178.051 446.776 177.606L446.643 177.247C446.417 176.653 445.847 176.247 445.208 176.232L442.345 176.154C441.752 176.138 441.206 176.458 440.918 176.974L440.341 178.036C440.06 178.551 440.036 179.176 440.286 179.715L441.518 182.378L443.804 188.501L447.766 187.041L447.758 187.048Z" fill="#FFB573"/>
<path d="M470.995 186.182L454.334 198.326L446.503 183.667L442.057 185.596C442.057 185.596 448.913 207.823 452.891 206.925C456.877 206.027 468.124 200.458 471.79 196.639C473.639 194.71 475.043 191.18 473.218 186.799C472.851 185.924 471.759 185.627 470.995 186.189V186.182Z" fill="#51BD88"/>
<path d="M477.219 157.269C477.219 157.269 471.33 158.815 474.06 165.923C474.06 165.923 476.985 165.149 477.468 163.252C477.944 161.354 478.397 158.691 478.397 158.691L477.227 157.269H477.219Z" fill="#263238"/>
<path opacity="0.3" d="M477.219 157.269C477.219 157.269 471.33 158.815 474.06 165.923C474.06 165.923 476.985 165.149 477.468 163.252C477.944 161.354 478.397 158.691 478.397 158.691L477.227 157.269H477.219Z" fill="black"/>
<path d="M491.125 185.486L480.377 185.127L475.931 185.775L475.322 193.89L483.988 196.772L493.231 194.929L493.715 187.111L493.052 185.549L491.125 185.486Z" fill="#FFB573"/>
<path d="M476.493 230.948H491.703C491.859 225.583 492.646 197.725 492.483 197.897C492.295 198.084 494.089 191.961 494.089 191.961V189.485L492.483 186.83C492.483 186.83 489.027 192.102 483.357 191.836C477.975 191.586 477.046 186.213 477.046 186.213L476.368 194.437L475.689 214.344L476.555 222.787L476.5 230.956L476.493 230.948Z" fill="white"/>
<path opacity="0.6" d="M476.493 230.948H491.703C491.859 225.583 492.646 197.725 492.483 197.897C492.295 198.084 494.089 191.961 494.089 191.961V189.485L492.483 186.83C492.483 186.83 489.027 192.102 483.357 191.836C477.975 191.586 477.046 186.213 477.046 186.213L476.368 194.437L475.689 214.344L476.555 222.787L476.5 230.956L476.493 230.948Z" fill="white"/>
<path d="M470.44 230.948H478.684C480.307 220.202 480.517 200.552 480.517 200.552C480.517 200.552 478.708 193.624 478.216 189.126C477.725 184.627 484.144 185.221 489.768 185.963C495.392 186.705 485.4 200.927 485.4 200.927C485.4 200.927 484.698 220.147 486.336 230.948H506.655C505.641 228.082 502.646 219.28 501.928 213.04C501.063 205.496 506.25 194.491 505.509 189.126C504.768 183.76 486.999 184.854 486.999 184.854C486.999 184.854 475.619 184.776 473.084 184.893C470.112 185.026 468.934 192.843 467.53 199.021C466.126 205.199 468.708 211.314 470.112 219.085C471.033 224.177 470.744 228.543 470.44 230.948Z" fill="#263238"/>
<path d="M479.488 184.823C483.193 184.823 486.999 184.846 486.999 184.846C486.999 184.846 489.277 184.705 492.225 184.776C493.403 185.58 494.955 187.447 493.715 191.399L491.141 192.39L491.609 194.929C491.609 194.929 488.645 199.63 485.377 201.419C485.385 201.106 485.392 200.927 485.392 200.927C485.392 200.927 495.384 186.705 489.76 185.963C484.136 185.221 477.717 184.627 478.209 189.126C478.7 193.624 480.509 200.552 480.509 200.552C480.509 200.552 480.509 200.63 480.509 200.763C478.926 199.349 477.577 196.842 476.602 193.874L477.655 190.953L475.33 189.673C475.33 189.673 475.697 186.236 479.488 184.83V184.823Z" fill="#51BD88"/>
<path d="M479.364 189.087C478.771 187.525 479.598 186.51 479.598 186.51C483.826 185.073 483.436 181.902 482.461 178.95L489.27 171.991C488.864 175.693 488.716 184.213 491.134 187.181V187.861C487.928 191.664 484.13 191.641 482.055 191.25C480.854 191.024 479.801 190.227 479.364 189.087Z" fill="#FFB573"/>
<path opacity="0.1" d="M482.461 178.95L487.866 173.428L489.114 173.881C489.075 174.545 489.052 175.271 489.036 176.036C488.35 177.442 486.704 179.418 482.858 180.41C482.749 179.926 482.609 179.434 482.445 178.957L482.461 178.95Z" fill="black"/>
<path d="M492.742 165.86C491.096 172.163 490.535 174.865 486.674 177.505C480.863 181.48 473.492 178.075 473.226 171.413C472.985 165.407 475.715 156.113 482.446 154.801C487.251 153.841 491.923 156.957 492.89 161.775C493.163 163.134 493.109 164.532 492.75 165.86H492.742Z" fill="#FFB573"/>
<path d="M477.781 167.485C477.086 168.578 476.244 169.578 475.285 170.437C475.745 170.929 476.392 171.186 477.063 171.155L477.788 167.485H477.781Z" fill="#630F0F"/>
<path d="M484.496 165.157C484.543 165.157 484.582 165.142 484.629 165.118C484.754 165.048 484.793 164.884 484.715 164.767C484.231 163.915 483.358 163.345 482.383 163.252C482.242 163.252 482.125 163.361 482.117 163.501C482.117 163.642 482.219 163.759 482.359 163.767C483.163 163.861 483.88 164.329 484.278 165.04C484.325 165.118 484.411 165.165 484.496 165.165V165.157Z" fill="#263238"/>
<path d="M474.068 163.252C474.115 163.252 474.153 163.236 474.2 163.212C474.894 162.799 475.745 162.744 476.486 163.064C476.61 163.134 476.766 163.088 476.837 162.963C476.899 162.83 476.852 162.681 476.72 162.611C475.823 162.213 474.785 162.267 473.943 162.767C473.818 162.83 473.763 162.986 473.834 163.111C473.88 163.197 473.974 163.259 474.075 163.252H474.068Z" fill="#263238"/>
<path d="M479.693 172.889C479.388 172.889 479.084 172.866 478.788 172.811C478.702 172.795 478.648 172.717 478.655 172.631C478.671 172.545 478.749 172.491 478.835 172.499C480.168 172.756 481.549 172.374 482.555 171.46C482.618 171.397 482.719 171.39 482.781 171.452C482.844 171.514 482.852 171.616 482.789 171.678C481.955 172.475 480.839 172.905 479.685 172.897L479.693 172.889Z" fill="#263238"/>
<path d="M490.618 170.788C490.618 170.788 488.271 168.523 488.707 164.384C488.707 164.384 486.172 161.791 486.297 159.003C486.297 159.003 485.548 161.221 486.297 162.799C486.297 162.799 479.722 162.322 479.878 159.003C479.878 159.003 479.449 160.674 480.432 161.541C480.432 161.541 474.589 161.791 475.385 158.761C476.173 155.731 480.751 154.247 480.751 154.247C480.751 154.247 485.112 150.537 491.141 157.089C491.141 157.089 498.239 161.526 493.208 168.929L490.626 170.788H490.618Z" fill="#263238"/>
<path d="M493.256 171.202C492.671 172.319 491.665 173.155 490.463 173.529C488.864 174.014 488.038 172.592 488.451 171.062C488.825 169.695 490.105 167.781 491.727 167.969C492.905 168.141 493.716 169.234 493.544 170.405C493.505 170.687 493.404 170.96 493.264 171.202H493.256Z" fill="#FFB573"/>
<path d="M482.516 166.586C482.461 167.125 482.126 167.539 481.767 167.5C481.408 167.469 481.174 166.993 481.237 166.446C481.299 165.899 481.627 165.493 481.978 165.532C482.329 165.571 482.571 166.04 482.516 166.586Z" fill="#2E353A"/>
<path d="M476.361 165.938C476.306 166.477 475.971 166.891 475.62 166.852C475.269 166.813 475.027 166.344 475.082 165.798C475.136 165.251 475.472 164.845 475.823 164.884C476.174 164.923 476.423 165.391 476.361 165.938Z" fill="#2E353A"/>
<path d="M475.971 164.93L474.707 164.423C474.707 164.423 475.277 165.507 475.971 164.93Z" fill="#2E353A"/>
<path d="M482.124 165.578L480.861 165.063C480.861 165.063 481.43 166.148 482.124 165.578Z" fill="#2E353A"/>
<path d="M490.073 176.474C491.235 176.474 492.179 175.529 492.179 174.365C492.179 173.834 491.984 173.326 491.625 172.936L491.353 173.186C491.649 173.506 491.813 173.928 491.813 174.365C491.813 175.326 491.033 176.107 490.073 176.107C489.114 176.107 488.334 175.326 488.334 174.365C488.334 173.404 489.114 172.623 490.073 172.623C490.323 172.623 490.557 172.678 490.783 172.772L490.931 172.436C490.658 172.311 490.37 172.249 490.073 172.249C488.911 172.249 487.967 173.194 487.967 174.357C487.967 175.521 488.911 176.466 490.073 176.466V176.474Z" fill="#407BFF"/>
<g opacity="0.6">
<path d="M490.073 176.474C491.235 176.474 492.179 175.529 492.179 174.365C492.179 173.834 491.984 173.326 491.625 172.936L491.353 173.186C491.649 173.506 491.813 173.928 491.813 174.365C491.813 175.326 491.033 176.107 490.073 176.107C489.114 176.107 488.334 175.326 488.334 174.365C488.334 173.404 489.114 172.623 490.073 172.623C490.323 172.623 490.557 172.678 490.783 172.772L490.931 172.436C490.658 172.311 490.37 172.249 490.073 172.249C488.911 172.249 487.967 173.194 487.967 174.357C487.967 175.521 488.911 176.466 490.073 176.466V176.474Z" fill="white"/>
</g>
<path d="M488.623 208.37L482.897 208.62L480.979 205.527C480.729 205.121 480.308 204.855 479.84 204.793L479.465 204.746C478.834 204.668 478.21 204.972 477.898 205.535L476.486 208.026C476.197 208.541 476.213 209.174 476.54 209.674L477.203 210.689C477.523 211.181 478.061 211.494 478.654 211.525L481.587 211.689L488.061 212.564L488.646 208.377L488.623 208.37Z" fill="#FFB573"/>
<path d="M498.802 187.447L501.649 207.885H485.042L484.645 212.72C484.645 212.72 507.452 217.14 508.544 213.204C509.628 209.26 510.026 196.702 508.388 191.664C507.561 189.126 505.112 186.221 500.393 185.768C499.449 185.682 498.677 186.502 498.809 187.439L498.802 187.447Z" fill="#51BD88"/>
<path d="M426.238 69.5634H408.01L389.625 279.948H407.854C416.301 279.948 423.75 273.091 424.491 264.633L440.2 84.8865C440.941 76.4283 434.686 69.5712 426.238 69.5712V69.5634Z" fill="#263238"/>
<path d="M437.534 90.6581C437.612 89.7756 438.454 89.0727 439.359 89.2054C439.25 89.8849 439.796 90.5722 440.466 90.7206L439.25 104.661C438.626 104.903 438.15 105.473 438.134 106.145C437.097 106.465 436.223 105.716 436.309 104.755L437.541 90.6581H437.534Z" fill="#407BFF"/>
<path d="M437.534 90.6581C437.612 89.7756 438.454 89.0727 439.359 89.2054C439.25 89.8849 439.796 90.5722 440.466 90.7206L439.25 104.661C438.626 104.903 438.15 105.473 438.134 106.145C437.097 106.465 436.223 105.716 436.309 104.755L437.541 90.6581H437.534Z" fill="#51BD88"/>
<path d="M404.126 279.94H329.02C320.573 279.94 314.317 273.083 315.058 264.625L330.767 84.8787C331.508 76.4205 338.957 69.5634 347.405 69.5634H422.511C430.958 69.5634 437.214 76.4205 436.473 84.8787L420.764 264.625C420.023 273.083 412.574 279.94 404.126 279.94Z" fill="#51BD88"/>
<path d="M422.206 73.0778H402.682C401.403 73.0778 400.241 74.0306 399.968 75.2958L399.835 75.905C399.172 79.0055 396.333 81.3329 393.205 81.3329H374.649C371.529 81.3329 369.095 79.0055 368.971 75.905L368.947 75.2958C368.893 74.0228 367.902 73.0778 366.623 73.0778H347.099C340.586 73.0778 334.846 78.3651 334.276 84.8786L318.567 264.625C317.998 271.146 322.81 276.426 329.323 276.426H404.429C410.942 276.426 416.683 271.138 417.253 264.625L432.962 84.8786C433.531 78.3573 428.719 73.0778 422.206 73.0778Z" fill="#407BFF"/>
<path opacity="0.7" d="M422.206 73.0778H402.682C401.403 73.0778 400.241 74.0306 399.968 75.2958L399.835 75.905C399.172 79.0055 396.333 81.3329 393.205 81.3329H374.649C371.529 81.3329 369.095 79.0055 368.971 75.905L368.947 75.2958C368.893 74.0228 367.902 73.0778 366.623 73.0778H347.099C340.586 73.0778 334.846 78.3651 334.276 84.8786L318.567 264.625C317.998 271.146 322.81 276.426 329.323 276.426H404.429C410.942 276.426 416.683 271.138 417.253 264.625L432.962 84.8786C433.531 78.3573 428.719 73.0778 422.206 73.0778Z" fill="white"/>
<g opacity="0.2">
<path d="M379.93 74.7726C380.039 75.827 379.056 76.7329 378.019 76.5377C377.964 75.9675 377.512 75.4754 376.95 75.3661C376.841 74.3117 377.824 73.4059 378.861 73.6089C378.916 74.1791 379.368 74.671 379.93 74.7803V74.7726Z" fill="black"/>
<path d="M390.569 73.5698H385.608C385.335 74.1009 384.633 74.5695 384.032 74.5382C383.564 75.6316 384.321 76.6391 385.39 76.5532C387.028 76.6938 388.658 76.6313 390.304 76.5532C391.247 76.6001 392.09 75.7566 391.996 74.7803C391.294 74.8272 390.686 74.2649 390.569 73.5698Z" fill="black"/>
</g>
<path d="M342.762 81.3017H344.338L344.478 79.724H342.903L342.762 81.3017Z" fill="#51BD88"/>
<path d="M346.063 79.7239L345.922 81.3016H347.498L347.638 79.7239L347.779 78.1385H346.195L346.063 79.7239Z" fill="#51BD88"/>
<path d="M349.493 76.561L349.353 78.1386L349.22 79.724L349.08 81.3017H350.655L350.796 79.724L350.936 78.1386L351.069 76.561H349.493Z" fill="#51BD88"/>
<path d="M417.408 76.6625L417.307 77.8262H416.535L416.332 80.1458H417.104L417.003 81.3017H423.953L424.358 76.6625H417.408ZM420.193 80.1458H417.876L418.079 77.8262H420.396L420.193 80.1458Z" fill="#51BD88"/>
<g opacity="0.4">
<path d="M374.704 81.3329L322.857 274.364C324.635 275.66 326.858 276.426 329.331 276.426H333.387L385.787 81.3329H374.711H374.704Z" fill="white"/>
<path d="M422.206 73.0777H402.682C401.403 73.0777 400.241 74.0305 399.968 75.2957L399.835 75.9049C399.188 78.9273 396.473 81.2 393.447 81.3172L341.047 276.426H381.014L432.962 83.0119C432.556 77.381 428.079 73.0699 422.206 73.0699V73.0777Z" fill="white"/>
</g>
<path d="M343.731 125.467L341.391 124.959C340.759 124.819 340.392 124.155 340.626 123.546L343.887 115.002L347.623 115.814L344.963 124.741C344.807 125.272 344.261 125.592 343.723 125.475L343.731 125.467Z" fill="#51BD88"/>
<path d="M352.793 114.533C352.146 114.392 351.733 113.752 351.873 113.104L352.193 111.643C352.333 110.995 352.973 110.581 353.62 110.722C354.268 110.862 354.681 111.503 354.541 112.151L354.221 113.611C354.08 114.26 353.441 114.674 352.793 114.533Z" fill="#51BD88"/>
<path d="M350.485 107.254C350.485 107.254 341.593 106.239 338.48 104.638C331.156 100.873 324.167 91.892 322.685 91.5718C320.267 91.0486 316.976 96.7733 315.322 104.372C313.676 111.971 314.293 118.555 316.711 119.078C318.193 119.399 328.278 114.143 336.499 113.76C339.994 113.596 348.503 116.376 348.503 116.376L350.485 107.254Z" fill="#407BFF"/>
<path d="M350.485 107.254C350.485 107.254 341.593 106.239 338.48 104.638C331.156 100.873 324.167 91.892 322.685 91.5718C320.267 91.0486 316.976 96.7733 315.322 104.372C313.676 111.971 314.293 118.555 316.711 119.078C318.193 119.399 328.278 114.143 336.499 113.76C339.994 113.596 348.503 116.376 348.503 116.376L350.485 107.254Z" fill="#EBEBEB"/>
<path d="M324.075 106.278C322.429 113.877 319.13 119.602 316.712 119.078C314.294 118.555 313.67 111.971 315.323 104.372C316.969 96.7733 320.268 91.0486 322.686 91.5718C325.104 92.0951 325.728 98.6789 324.075 106.278Z" fill="#407BFF"/>
<path d="M324.075 106.278C322.429 113.877 319.13 119.602 316.712 119.078C314.294 118.555 313.67 111.971 315.323 104.372C316.969 96.7733 320.268 91.0486 322.686 91.5718C325.104 92.0951 325.728 98.6789 324.075 106.278Z" fill="#51BD88"/>
<path d="M349.042 106.223L344.915 105.325C343.792 105.083 342.685 105.833 342.529 106.973C342.388 108.012 342.193 109.082 341.959 110.175C341.725 111.268 341.452 112.323 341.148 113.322C340.82 114.424 341.515 115.572 342.638 115.814L347.528 116.876C350.461 117.516 352.567 115.447 353.168 112.495C353.745 109.636 351.889 106.84 349.034 106.215L349.042 106.223Z" fill="#263238"/>
<path d="M319.832 104.732L319.574 105.919C319.426 106.606 319.793 107.309 320.44 107.582L323.443 108.832C323.677 108.012 323.888 107.16 324.083 106.278C324.27 105.395 324.434 104.536 324.558 103.693L321.314 103.583C320.604 103.56 319.988 104.044 319.832 104.732Z" fill="#263238"/>
<path opacity="0.8" d="M319.832 104.732L319.574 105.919C319.426 106.606 319.793 107.309 320.44 107.582L323.443 108.832C323.677 108.012 323.888 107.16 324.083 106.278C324.27 105.395 324.434 104.536 324.558 103.693L321.314 103.583C320.604 103.56 319.988 104.044 319.832 104.732Z" fill="white"/>
<path opacity="0.2" d="M322.093 105.848C321.929 106.606 321.742 107.332 321.547 108.051L323.434 108.832C323.668 108.012 323.879 107.16 324.074 106.278C324.261 105.395 324.425 104.536 324.55 103.693L322.506 103.622C322.389 104.349 322.249 105.091 322.085 105.848H322.093Z" fill="black"/>
<path d="M394.156 106.317C394.156 106.317 396.426 107.324 398.711 105.825C401.106 104.255 405.606 106.231 404.241 112.62C401.901 123.616 397.018 131.512 400.185 134.839C400.185 134.839 389.64 135.323 391.2 125.998C392.37 119.008 400.302 111.065 398.391 109.488C397.752 108.965 396.823 109.23 393.828 109.23L394.148 106.309L394.156 106.317Z" fill="#263238"/>
<path d="M393.838 109.238C395.694 109.238 397.091 109.417 398.12 109.753C398.791 107.824 398.752 106.137 398.682 105.341C396.24 105.606 394.166 106.317 394.166 106.317L393.846 109.238H393.838Z" fill="#407BFF"/>
<path d="M383.908 98.3039C383.908 98.3039 379.524 97.0465 382.418 94.2193C386.193 90.5252 391.567 97.437 391.567 97.437C391.567 97.437 404.141 102.943 393.759 115.712C393.759 115.712 390.015 122.429 389.227 119.82C388.447 117.212 393.658 109.792 393.658 109.792L393.346 103.154L391.903 100.561L387.371 97.9759L383.908 98.3039Z" fill="#263238"/>
<path d="M366.521 135.698C365.273 133.652 362.598 133.011 360.554 134.261L360.484 134.3C359.127 135.136 357.668 136.073 356.233 136.924L351.904 139.525C349.876 140.72 347.84 141.876 345.789 143C345.664 141.555 345.656 139.939 345.719 138.314C345.773 136.487 345.898 134.62 346.046 132.754C346.171 130.879 346.366 128.981 346.53 127.123V127.076C346.616 126.123 346.062 125.201 345.126 124.858C344.003 124.444 342.763 125.022 342.349 126.146C341.655 128.029 341.109 129.887 340.571 131.793C340.056 133.699 339.604 135.628 339.237 137.604C338.894 139.595 338.582 141.602 338.582 143.867C338.605 145.015 338.621 146.187 339.089 147.788C339.377 148.584 339.713 149.608 340.961 150.709C341.577 151.24 342.451 151.685 343.332 151.857C344.206 152.029 344.97 151.966 345.61 151.841C345.781 151.81 345.968 151.755 346.14 151.685L346.397 151.576C348.059 150.888 349.712 150.201 351.319 149.42C352.942 148.663 354.533 147.874 356.101 147.03C357.676 146.202 359.221 145.328 360.749 144.422C362.278 143.485 363.76 142.594 365.297 141.532C367.161 140.228 367.723 137.666 366.521 135.698Z" fill="#FFB573"/>
<path d="M370.342 130.005C372.971 135.308 369.188 139.908 362.254 147.28C356.076 142.11 355.07 135.721 355.07 135.721C355.07 135.721 363.065 129.099 370.342 130.012V130.005Z" fill="#51BD88"/>
<path opacity="0.2" d="M370.592 136.299C368.026 134.73 365.148 134.034 363.12 136.588C360.865 139.439 359.017 141.126 357.73 142.11C358.791 143.789 360.241 145.593 362.254 147.28C366.396 142.875 369.399 139.462 370.592 136.299Z" fill="black"/>
<path d="M344.548 117.157L346.334 118.336C347.005 118.782 347.418 119.516 347.449 120.32L347.582 124.077C347.637 125.576 346.958 127.013 345.772 127.927L345.031 128.489C341.943 126.74 339.891 122.569 339.891 122.569L339.174 121.445C338.534 120.445 338.784 119.188 339.743 118.555L341.95 117.103C342.715 116.603 343.744 116.618 344.548 117.149V117.157Z" fill="#FFB573"/>
<path d="M364.228 276.426C368.277 263.898 371.03 250.051 368.284 239.922C384.976 190.829 377.449 176.536 377.449 176.536L357.583 169.281C357.583 169.281 354.744 213.493 353.886 234.869C353.41 246.834 351.366 262.376 349.018 276.418H364.221L364.228 276.426Z" fill="#263238"/>
<path opacity="0.5" d="M374.532 194.702L370.499 188.197L368.027 193.273C368.027 193.273 365.702 212.767 369.844 235.212C373.713 223.248 376.069 213.516 377.441 205.66L374.532 194.702Z" fill="black"/>
<path d="M376.436 276.426H391.49C393.027 263.445 393.042 249.473 388.448 240.125C395.445 188.743 385.32 176.154 385.32 176.154L364.432 172.842C364.432 172.842 370.103 216.781 373.355 237.93C375.04 248.88 375.992 263.086 376.436 276.418V276.426Z" fill="#263238"/>
<path d="M361.023 139.876C360.501 142.649 359.814 144.711 359.151 151.419C358.481 157.082 357.989 162.674 357.342 172.022L385.617 176.505C386.311 168.437 388.674 159.495 396.591 142.352C398.424 138.377 396.435 133.964 392.309 132.879C391.209 132.59 390.032 132.301 388.823 132.051C384.119 131.067 380.25 130.301 375.984 130.012C374.564 129.919 373.098 129.864 371.678 129.841C366.577 129.747 361.959 134.909 361.023 139.876Z" fill="#51BD88"/>
<path d="M390.209 117.431C388.438 121.39 385.864 128.755 388.119 131.941C388.119 131.941 384.297 130.731 375.178 134.558C373.322 130.723 375.28 129.903 375.28 129.903C380.147 129.544 380.818 126.146 380.763 122.843L390.209 117.431Z" fill="#FFB573"/>
<path d="M377.09 133.8C378.151 134.128 378.822 134.995 379.251 135.932C379.93 137.416 381.708 138.018 383.12 137.205C385.429 135.885 388.408 134.003 389.882 132.332C388.985 131.668 387.722 130.426 387.722 130.426C387.722 130.426 378.939 132.472 377.09 133.8Z" fill="white"/>
<path d="M374.555 132.949C374.555 132.949 373.697 133.043 372.715 133.769C372.028 134.277 371.077 133.589 371.357 132.785C372.332 130.02 374.009 129.692 374.009 129.692C374.009 129.692 374.961 129.216 376.537 129.723C374.189 130.528 374.548 132.949 374.548 132.949H374.555Z" fill="white"/>
<path opacity="0.2" d="M386.358 119.641L380.765 122.843C380.781 123.624 380.75 124.413 380.633 125.162C382.45 125.186 385.32 123.663 385.937 121.867C386.241 120.968 386.412 120.094 386.358 119.641Z" fill="black"/>
<path d="M395.055 109.691C392.746 116.173 391.904 118.953 387.59 121.554C381.101 125.467 373.636 121.671 373.964 114.744C374.252 108.504 377.981 98.96 385.203 97.8431C392.317 96.7419 397.356 103.216 395.047 109.699L395.055 109.691Z" fill="#FFB573"/>
<path d="M386.357 109.449C386.185 110.003 385.756 110.378 385.405 110.3C385.046 110.214 384.898 109.699 385.07 109.144C385.241 108.59 385.67 108.215 386.021 108.293C386.38 108.379 386.528 108.894 386.357 109.449Z" fill="#263238"/>
<path d="M379.454 107.598C379.282 108.152 378.853 108.527 378.502 108.449C378.143 108.363 377.995 107.848 378.167 107.293C378.338 106.739 378.767 106.364 379.118 106.442C379.469 106.52 379.625 107.043 379.454 107.598Z" fill="#263238"/>
<path d="M379.266 106.52L378.072 105.833C378.072 105.833 378.423 107.028 379.266 106.52Z" fill="#263238"/>
<path d="M381.459 108.738C381.459 108.738 379.797 110.901 378.424 111.807C378.939 112.659 380.257 112.635 380.257 112.635L381.459 108.738Z" fill="#BA4D3C"/>
<path d="M388.455 106.231C388.369 106.215 388.291 106.169 388.237 106.098C387.457 104.888 386.224 104.927 386.209 104.927C386.029 104.927 385.881 104.794 385.881 104.607C385.881 104.419 386.045 104.271 386.224 104.263C386.287 104.263 387.839 104.216 388.806 105.716C388.9 105.864 388.853 106.075 388.689 106.184C388.611 106.239 388.525 106.254 388.44 106.239L388.455 106.231Z" fill="#263238"/>
<path d="M377.972 102.966C377.894 102.935 377.831 102.873 377.8 102.795C377.738 102.631 377.831 102.435 378.011 102.373C379.805 101.693 381.084 102.529 381.131 102.56C381.279 102.662 381.31 102.865 381.201 103.013C381.084 103.162 380.873 103.201 380.717 103.099C380.67 103.068 379.664 102.428 378.245 102.974C378.151 103.006 378.057 103.006 377.972 102.974V102.966Z" fill="#263238"/>
<path d="M386.171 108.363L384.977 107.676C384.977 107.676 385.328 108.871 386.171 108.363Z" fill="#263238"/>
<path d="M360.444 161.166H353.697C353.058 161.166 352.434 160.651 352.301 160.01L349.173 145.39C349.041 144.75 349.446 144.234 350.078 144.234H356.825C357.465 144.234 358.089 144.75 358.221 145.39L361.349 160.01C361.482 160.651 361.076 161.166 360.444 161.166Z" fill="#263238"/>
<path d="M359.665 161.166H352.918C352.279 161.166 351.655 160.651 351.522 160.01L348.394 145.39C348.262 144.75 348.667 144.234 349.299 144.234H356.046C356.686 144.234 357.31 144.75 357.442 145.39L360.57 160.01C360.703 160.651 360.297 161.166 359.665 161.166Z" fill="#263238"/>
<path opacity="0.2" d="M359.665 161.166H352.918C352.279 161.166 351.655 160.651 351.522 160.01L348.394 145.39C348.262 144.75 348.667 144.234 349.299 144.234H356.046C356.686 144.234 357.31 144.75 357.442 145.39L360.57 160.01C360.703 160.651 360.297 161.166 359.665 161.166Z" fill="white"/>
<path d="M357.247 152.552L359.33 152.091C360.118 151.919 360.937 152.13 361.53 152.669L364.322 155.184C365.437 156.191 365.999 157.675 365.827 159.167L365.718 160.089C362.31 161.096 357.887 159.667 357.887 159.667L356.584 159.401C355.422 159.167 354.689 158.113 354.907 156.98L355.399 154.387C355.57 153.489 356.304 152.763 357.24 152.552H357.247Z" fill="#FFB573"/>
<path d="M393.197 137.338C390.811 137.112 388.697 138.869 388.471 141.251L388.455 141.384C388.385 142.165 388.276 143.117 388.174 144C388.073 144.898 387.948 145.796 387.808 146.694C387.542 148.491 387.223 150.279 386.872 152.044C386.505 153.809 386.068 155.535 385.585 157.238C385.171 158.597 384.695 159.909 384.188 161.19C383.681 161.221 383.011 161.182 382.309 161.073C380.639 160.815 378.175 160.331 376.349 159.745C374.516 159.175 372.668 158.503 370.819 157.8C368.971 157.121 367.106 156.34 365.289 155.606L365.234 155.582C364.345 155.223 363.284 155.496 362.684 156.301C361.974 157.261 362.177 158.62 363.136 159.331C364.852 160.596 366.576 161.697 368.37 162.806C370.164 163.884 372.005 164.892 373.939 165.821C375.881 166.727 378.502 167.586 380.803 168.187C381.958 168.476 383.182 168.734 384.695 168.75C385.452 168.75 386.302 168.679 387.301 168.367C388.268 168.078 389.469 167.422 390.358 166.352C390.491 166.188 390.631 165.993 390.733 165.798L390.811 165.657C391.832 163.767 392.714 161.838 393.431 159.885C394.141 157.933 394.757 155.965 395.249 153.981C395.748 152.005 396.146 150.014 396.458 148.006C396.606 147.007 396.746 145.999 396.856 144.992C396.98 143.969 397.058 143.008 397.113 141.868C397.222 139.564 395.506 137.549 393.19 137.33L393.197 137.338Z" fill="#FFB573"/>
<path d="M394.5 133.886C399.328 137.299 399.554 142.407 396.949 152.193C393.463 153.942 384.992 151.724 384.992 151.724C384.992 151.724 387.659 136.541 394.5 133.886Z" fill="#51BD88"/>
<path d="M377.152 114.51C377.152 114.51 379.453 114.049 385.849 114.244C385.045 116.15 383.602 117.665 380.326 117.563C378.681 117.673 377.269 116.423 377.16 114.783C377.16 114.689 377.16 114.603 377.16 114.51H377.152Z" fill="#263238"/>
<path d="M381.879 116.072C380.623 115.962 379.359 116.259 378.283 116.907C378.876 117.321 379.586 117.548 380.319 117.54C381.575 117.649 382.83 117.36 383.915 116.704C383.322 116.282 382.612 116.056 381.887 116.064L381.879 116.072Z" fill="#BA4D3C"/>
<path d="M377.441 114.463C377.558 114.947 377.933 115.33 378.416 115.447C380.312 115.494 382.215 115.384 384.095 115.127C384.703 115.088 385.249 114.744 385.553 114.221C382.847 114.096 380.132 114.174 377.434 114.471L377.441 114.463Z" fill="white"/>
<path d="M385.266 97.4058C384.852 97.4683 384.447 97.562 384.057 97.6791V98.0462C384.961 98.0384 385.968 98.1477 387.083 98.4914C392.481 100.139 393.346 103.146 391.513 107.668C390.648 109.808 390.18 114.346 391.178 115.197C391.435 115.416 392.215 115.384 393.229 115.22C393.9 113.682 394.54 111.839 395.359 109.542C397.722 102.904 392.559 96.2733 385.266 97.398V97.4058Z" fill="#263238"/>
<path d="M395.669 115.611C394.538 116.774 393.048 117.298 391.8 117.29C389.936 117.282 389.632 115.353 390.685 113.744C391.629 112.299 393.742 110.566 395.357 111.347C396.948 112.12 396.956 114.283 395.661 115.611H395.669Z" fill="#FFB573"/>
<g opacity="0.9">
<path d="M384.164 148.795C371.037 147.983 365.101 145.554 362.737 144.18C362.659 144.133 362.597 144.086 362.535 144.031C361.856 143.438 362.714 142.344 363.494 142.797C365.561 143.992 371.255 146.421 384.258 147.225C384.687 147.249 385.022 147.616 384.999 148.046C384.975 148.475 384.601 148.811 384.164 148.78V148.795Z" fill="white"/>
</g>
<g opacity="0.9">
<path d="M383.479 156.23C383.463 156.668 383.089 157.004 382.66 156.988C371.209 156.449 363.316 153.067 360.952 151.927C360.547 151.732 360.399 151.24 360.609 150.849C360.812 150.482 361.257 150.342 361.631 150.521C363.877 151.591 371.677 154.91 382.73 155.426C383.159 155.449 383.494 155.801 383.479 156.23Z" fill="white"/>
</g>
<g opacity="0.9">
<path d="M370.265 169.257C364.189 168.062 361.054 167.258 359.743 166.883C359.314 166.758 359.08 166.305 359.221 165.883C359.353 165.493 359.767 165.266 360.164 165.384C361.436 165.743 364.548 166.555 370.562 167.734C370.983 167.82 371.264 168.226 371.178 168.648C371.1 169.07 370.687 169.351 370.258 169.265L370.265 169.257Z" fill="white"/>
</g>
<path d="M384.149 100.038C383.65 100.303 382.972 99.9986 382.73 99.4831C382.488 98.9677 382.621 98.3351 382.948 97.8665C383.276 97.3979 383.767 97.0777 384.274 96.8199C383.962 97.2885 383.361 98.0773 383.377 98.6475C383.393 99.2098 383.603 100.202 384.142 100.038H384.149Z" fill="#263238"/>
<path d="M390.663 115.947C390.695 116.236 390.375 116.478 390.086 116.431C389.798 116.384 389.579 116.134 389.493 115.853C389.408 115.572 389.431 115.275 389.462 114.986C389.532 114.322 389.649 113.658 389.938 113.057C390.227 112.456 390.695 111.917 391.311 111.675C391.553 111.893 391.56 112.331 391.428 112.627C391.295 112.924 391.069 113.158 390.882 113.424C390.406 114.119 390.281 115.033 390.546 115.829C390.648 115.829 390.562 115.947 390.663 115.954V115.947Z" fill="#263238"/>
<path d="M302.78 165.485H247.243C242.977 165.485 239.521 168.945 239.521 173.217V215.485C239.521 219.757 242.977 223.216 247.243 223.216H289.177C289.996 229.98 295.744 235.213 302.717 235.213C303.029 235.213 303.326 235.189 303.63 235.166C301.462 232.307 299.691 228.152 298.529 223.209H302.78C307.046 223.209 310.502 219.749 310.502 215.477V173.209C310.502 168.937 307.046 165.477 302.78 165.477V165.485Z" fill="#407BFF"/>
<path d="M302.78 165.485H247.243C242.977 165.485 239.521 168.945 239.521 173.217V215.485C239.521 219.757 242.977 223.216 247.243 223.216H289.177C289.996 229.98 295.744 235.213 302.717 235.213C303.029 235.213 303.326 235.189 303.63 235.166C301.462 232.307 299.691 228.152 298.529 223.209H302.78C307.046 223.209 310.502 219.749 310.502 215.477V173.209C310.502 168.937 307.046 165.477 302.78 165.477V165.485Z" fill="#375A64"/>
<path d="M313.903 183.44L318.224 179.442L321.913 186.283C321.913 186.283 317.639 189.563 315.096 187.548L313.895 183.44H313.903Z" fill="#FFB573"/>
<path d="M313.904 183.44L310.963 189.704L315.003 193.047L318.521 187.322L313.904 183.44Z" fill="#FFB573"/>
<path d="M322.333 180.363L323.043 182.948C323.394 184.213 322.918 185.619 321.912 186.283L320.329 187.322L315.914 179.567L319.697 178.614C320.844 178.301 321.975 179.059 322.333 180.371V180.363Z" fill="#FFB573"/>
<path d="M313.902 183.44C313.902 183.44 315.438 178.614 315.212 177.138C315.079 176.255 315.976 176.404 316.725 176.661C317.302 176.864 317.7 177.395 317.724 178.012C317.786 179.59 317.747 182.62 316.53 182.815C314.877 183.081 313.902 183.44 313.902 183.44Z" fill="#FFB573"/>
<path d="M318.95 188.462C317.78 187.15 316.197 186.189 314.34 185.807L313.022 185.533C312.273 185.377 312.094 185.557 312 185.76L311.626 186.346L310.861 187.517C310.339 188.29 309.832 189.071 309.294 189.829C308.256 191.367 307.172 192.851 306.08 194.273C304.996 195.686 303.849 197.022 302.718 198.1C302.609 198.201 302.5 198.303 302.391 198.396C301.993 197.951 301.595 197.498 301.213 197.022C300.097 195.616 299.029 194.101 298.023 192.515C297.016 190.922 293.756 186.221 292.867 184.526C292.422 183.682 291.985 182.823 291.572 181.964L290.971 180.676C290.784 180.269 290.574 179.777 290.449 179.465C290.425 179.41 290.386 179.324 290.363 179.262C289.045 176.31 285.582 174.982 282.633 176.31C279.685 177.63 278.359 181.097 279.685 184.049C279.965 184.682 280.192 185.135 280.441 185.666L281.198 187.166C281.713 188.157 282.243 189.126 282.789 190.094C283.889 192.023 287.422 196.944 288.717 198.787C290.012 200.63 291.432 202.434 293.015 204.16C294.606 205.886 296.361 207.55 298.405 209.049L298.654 209.229C299.824 210.08 301.361 210.4 302.866 209.963C304.832 209.401 306.127 208.518 307.227 207.682C308.319 206.831 309.184 205.964 309.972 205.097C311.548 203.363 312.796 201.606 313.958 199.833C315.105 198.061 316.111 196.249 317.062 194.437C317.523 193.515 317.975 192.601 318.396 191.672L319.02 190.266L319.324 189.555C319.449 189.321 319.496 189.071 318.966 188.478L318.95 188.462Z" fill="#263238"/>
<path opacity="0.4" d="M290.041 185.979L285.751 189.009L284.48 191.953C284.691 192.344 284.893 192.734 285.112 193.117C286.212 195.046 287.421 196.92 288.715 198.771C290.01 200.614 291.43 202.418 293.013 204.144C293.754 204.949 294.534 205.738 295.361 206.503C293.286 201.559 290.041 185.979 290.041 185.979Z" fill="black"/>
<path d="M251.698 209.721C252.033 217.507 250.801 217.171 250.769 223.209H288.779C290.846 204.769 289.878 201.934 289.917 189.696C289.941 182.808 288.864 175.779 282.016 175.06C274.403 174.264 264.895 174.342 257.836 175.216C252.774 175.841 249.186 180.512 249.927 185.565C251.464 195.975 250.629 201.88 251.698 209.721Z" fill="#263238"/>
<path opacity="0.9" d="M278.546 174.771C273.616 174.443 268.219 174.435 263.336 174.724C263.445 176.279 264.631 180.223 273.265 183.573C273.265 183.573 275.192 179.387 276.814 181.277C276.814 181.277 278.117 178.871 280.91 183.292C280.91 183.292 285.075 178.825 278.546 174.771Z" fill="white"/>
<path opacity="0.4" d="M258.008 185.846C258.843 193.086 254.225 205.191 251.737 211.048C251.737 210.635 251.714 210.189 251.698 209.721C251.027 204.824 251.105 200.692 250.879 195.749L258.008 185.846Z" fill="black"/>
<path d="M267.064 160.893C267.072 167.422 265.84 171.186 264.381 174.717C264.241 175.052 264.319 175.451 264.592 175.701C267.08 177.95 270.886 179.785 276.058 179.856C281.167 179.926 280.87 178.325 279.661 176.528C279.49 176.271 279.256 176.06 278.99 175.904C275.496 173.826 275.371 171.046 276.346 169.375L267.064 160.901V160.893Z" fill="#FFB573"/>
<path opacity="0.2" d="M267.07 160.893L276.352 169.367C275.798 170.304 275.603 171.6 276.157 172.92C274.324 172.983 272.452 172.397 270.814 170.999C268.42 168.961 267.608 166.555 267.016 163.166C267.055 162.447 267.07 161.697 267.07 160.893Z" fill="black"/>
<path d="M264.303 156.519C264.717 162.76 263.827 163.759 267.002 166.922C271.768 171.678 279.529 172.592 280.629 166.258C281.619 160.557 282.165 150.24 276.034 147.843C269.997 145.476 263.898 150.279 264.311 156.519H264.303Z" fill="#FFB573"/>
<path d="M279.449 163.236C279.449 163.236 277.258 162.541 271.041 162.275C271.704 164.517 273.007 166.376 276.189 166.469C279.371 166.571 279.449 163.228 279.449 163.228V163.236Z" fill="#263238"/>
<path d="M274.77 164.681C276.307 164.728 277.407 165.188 278.202 165.891C277.742 166.258 277.087 166.5 276.198 166.469C274.661 166.422 273.569 165.969 272.773 165.259C273.234 164.892 273.881 164.65 274.77 164.681Z" fill="#FF5652"/>
<path d="M279.169 163.166C278.982 163.626 278.787 164.095 278.163 164.22C276.868 164.267 273.569 163.697 272.679 163.439C272.11 163.306 271.634 163.056 271.307 162.299C276.088 162.517 278.412 162.986 279.161 163.173L279.169 163.166Z" fill="white"/>
<path d="M277.008 157.433C277.008 157.433 278.256 159.636 279.434 160.604C278.81 161.385 277.554 161.26 277.554 161.26L277.008 157.433Z" fill="#FF5652"/>
<path d="M270.855 154.739C270.8 154.731 270.753 154.707 270.714 154.668C270.589 154.551 270.574 154.356 270.691 154.223C271.853 152.927 273.288 153.13 273.343 153.138C273.514 153.161 273.631 153.325 273.6 153.497C273.577 153.669 273.413 153.786 273.241 153.762C273.195 153.762 272.079 153.614 271.151 154.645C271.073 154.731 270.956 154.762 270.847 154.746L270.855 154.739Z" fill="#263238"/>
<path d="M281.214 155.848C281.112 155.863 281.011 155.832 280.933 155.754C279.997 154.746 278.881 154.918 278.835 154.926C278.663 154.957 278.507 154.84 278.476 154.668C278.445 154.497 278.562 154.34 278.733 154.309C278.796 154.301 280.215 154.059 281.393 155.324C281.51 155.449 281.502 155.652 281.378 155.77C281.331 155.816 281.276 155.84 281.214 155.848Z" fill="#263238"/>
<path d="M240.123 210.986C240.13 211.275 240.177 211.572 240.255 211.861C241.012 214.688 241.987 216.89 242.993 219.132C243.562 220.374 244.147 221.584 244.748 222.779C245.536 223.045 246.37 223.201 247.244 223.201H255.652C255.372 222.576 255.099 221.951 254.818 221.334C253.897 219.296 253.032 217.25 252.259 215.227C251.596 213.501 250.988 211.72 250.621 210.197C250.684 209.713 250.816 208.987 251.011 208.26C251.261 207.315 251.581 206.3 251.955 205.277C252.704 203.223 253.593 201.106 254.529 198.998C255.473 196.889 256.503 194.78 257.54 192.687C258.577 190.602 259.677 188.462 260.761 186.478L260.8 186.408C260.8 186.408 260.839 186.33 260.863 186.291C262.337 183.409 261.198 179.879 258.32 178.403C255.442 176.927 251.916 178.067 250.442 180.949C249.264 183.245 248.211 185.44 247.158 187.712C246.121 189.977 245.138 192.273 244.194 194.624C243.258 196.975 242.377 199.365 241.62 201.903C241.238 203.168 240.887 204.488 240.598 205.902C240.325 207.331 240.06 208.807 240.107 210.806V210.978L240.123 210.986Z" fill="#263238"/>
<path d="M261.47 160.698C262.086 162.197 263.241 163.259 264.348 163.736C266.018 164.454 266.938 162.814 266.54 160.948C266.181 159.261 264.887 156.855 263.178 156.941C261.494 157.019 260.76 158.987 261.462 160.698H261.47Z" fill="#FFB573"/>
<path d="M272.329 156.863C272.297 157.41 272.563 157.863 272.921 157.886C273.28 157.91 273.592 157.488 273.616 156.933C273.647 156.379 273.382 155.934 273.031 155.91C272.68 155.887 272.36 156.308 272.329 156.863Z" fill="#2E353A"/>
<path d="M278.499 157.222C278.467 157.769 278.733 158.222 279.084 158.245C279.435 158.269 279.754 157.847 279.786 157.293C279.817 156.746 279.552 156.293 279.201 156.269C278.85 156.246 278.522 156.668 278.499 157.222Z" fill="#2E353A"/>
<path d="M296.344 55.9349H240.808C236.541 55.9349 233.086 59.3947 233.086 63.6668V105.934C233.086 110.206 236.541 113.666 240.808 113.666H282.741C283.56 120.43 289.308 125.662 296.282 125.662C296.594 125.662 296.89 125.639 297.194 125.615C295.026 122.757 293.255 118.602 292.093 113.666H296.344C300.611 113.666 304.066 110.206 304.066 105.934V63.6668C304.066 59.3947 300.611 55.9349 296.344 55.9349Z" fill="#407BFF"/>
<path d="M296.344 55.9349H240.808C236.541 55.9349 233.086 59.3947 233.086 63.6668V105.934C233.086 110.206 236.541 113.666 240.808 113.666H282.741C283.56 120.43 289.308 125.662 296.282 125.662C296.594 125.662 296.89 125.639 297.194 125.615C295.026 122.757 293.255 118.602 292.093 113.666H296.344C300.611 113.666 304.066 110.206 304.066 105.934V63.6668C304.066 59.3947 300.611 55.9349 296.344 55.9349Z" fill="#375A64"/>
<path d="M282.742 113.666C282.188 107.676 282.773 100.03 282.773 100.03C283.256 92.0325 280.87 83.3869 279.068 81.9108C276.47 79.7709 274.052 77.7481 273.194 80.4426C272.703 81.9889 272.547 84.5818 272.578 87.4637C272.656 94.4458 274.099 103.154 274.84 107.176C275.105 108.605 275.745 113.674 275.745 113.674H282.742V113.666Z" fill="#51BD88"/>
<path d="M277.89 82.2467C277.71 81.0752 276.86 80.1224 275.721 79.81C273.764 79.2867 270.402 78.4355 267.329 77.8888C263.725 77.3031 260.09 76.9671 256.44 76.889C254.131 76.7953 251.861 76.8657 250.059 76.9672C249.849 76.9829 249.63 77.0218 249.428 77.0765C247.829 77.5295 246.9 79.2008 247.353 80.794C251.978 97.3277 252.938 105.247 253.179 113.666H275.753C276.806 106.028 278.873 99.7566 279.06 95.2659C279.325 88.6977 278.217 84.1836 277.89 82.2546V82.2467Z" fill="white"/>
<path opacity="0.8" d="M277.89 82.2467C277.71 81.0752 276.86 80.1224 275.721 79.81C273.764 79.2867 270.402 78.4355 267.329 77.8888C263.725 77.3031 260.09 76.9671 256.44 76.889C254.131 76.7953 251.861 76.8657 250.059 76.9672C249.849 76.9829 249.63 77.0218 249.428 77.0765C247.829 77.5295 246.9 79.2008 247.353 80.794C251.978 97.3277 252.938 105.247 253.179 113.666H275.753C276.806 106.028 278.873 99.7566 279.06 95.2659C279.325 88.6977 278.217 84.1836 277.89 82.2546V82.2467Z" fill="white"/>
<path d="M268.616 74.0695C267.134 76.0767 266.042 78.4509 268.375 81.1063C268.866 81.6686 269.194 82.3715 269.209 83.1135C269.233 84.3084 268.546 85.4643 264.662 83.1759C259.03 79.8567 259.506 76.1079 259.506 76.1079C262.47 75.2098 264.233 68.9854 264.919 65.424L268.616 74.0617V74.0695Z" fill="#FFB573"/>
<path opacity="0.2" d="M265.232 70.7738C264.795 72.289 266.402 74.7101 267.618 75.6629C267.899 75.1006 268.235 74.5617 268.609 74.0618L266.417 68.9541C265.902 69.4696 265.497 70.0866 265.224 70.7738H265.232Z" fill="black"/>
<path d="M280.051 55.3414C282.032 57.8562 277.571 65.424 277.087 63.8464C276.307 61.2613 275.168 56.0443 275.184 53.8809C275.207 50.4914 278.078 52.8266 280.051 55.3414Z" fill="#263238"/>
<path d="M263.624 56.1301C265.831 52.3579 270.675 51.1005 274.443 53.3107C279.754 56.3879 279.349 65.01 277.399 69.9928C275.262 75.5379 268.047 76.2408 264.303 71.2033C261.791 67.8451 262.111 65.4005 262.555 59.6134C262.633 58.3794 263 57.1845 263.624 56.1223V56.1301Z" fill="#FFB573"/>
<path d="M270.682 62.5497C270.643 63.0183 270.854 63.4245 271.158 63.4635C271.462 63.4947 271.759 63.1355 271.806 62.6669C271.852 62.1983 271.634 61.7922 271.33 61.7531C271.026 61.7219 270.753 62.1046 270.682 62.5497Z" fill="#263238"/>
<path d="M271.174 61.8078L272.336 61.5894C272.336 61.5894 271.681 62.385 271.174 61.8078Z" fill="#263238"/>
<path d="M276.596 63.8695C276.557 64.3381 276.768 64.7442 277.072 64.7833C277.376 64.8145 277.673 64.4553 277.72 63.9867C277.766 63.5181 277.548 63.1121 277.244 63.073C276.94 63.0418 276.667 63.4244 276.596 63.8695Z" fill="#263238"/>
<path d="M277.086 63.1276L278.248 62.9092C278.248 62.9092 277.593 63.7048 277.086 63.1276Z" fill="#263238"/>
<path d="M274.357 67.439C274.911 67.6655 275.535 67.6342 276.066 67.3609C275.504 66.3534 275.083 65.2678 274.818 64.1432L274.357 67.439Z" fill="#ED893E"/>
<path d="M269.926 67.2359C269.895 67.1656 269.926 67.0797 269.989 67.0485C270.059 67.0172 270.145 67.0485 270.176 67.111C270.761 68.1497 271.806 68.8448 272.984 68.9775C273.054 68.9932 273.109 69.0556 273.101 69.1337C273.093 69.204 273.023 69.2509 272.953 69.2431C272.726 69.2197 272.508 69.1728 272.29 69.1103C271.284 68.8213 270.426 68.1419 269.926 67.2203V67.2359Z" fill="#263238"/>
<path d="M270.504 59.5041C270.411 59.3791 270.442 59.2073 270.559 59.1214C271.815 58.1686 273.609 58.7153 273.679 58.7465C273.827 58.7934 273.905 58.9496 273.858 59.0901C273.811 59.2385 273.655 59.3166 273.515 59.2698C273.499 59.2698 271.947 58.7543 270.902 59.5509C270.808 59.6212 270.676 59.629 270.582 59.5587L270.504 59.5041Z" fill="#263238"/>
<path d="M278.989 61.3082C278.607 60.7146 277.959 60.3397 277.257 60.3163C277.101 60.3163 276.977 60.1992 276.977 60.043C276.977 59.8868 277.094 59.7618 277.25 59.7618C278.139 59.793 278.966 60.2538 279.457 60.9958C279.543 61.1207 279.504 61.2925 279.379 61.3785C279.301 61.4331 279.192 61.4409 279.106 61.4019C279.059 61.3785 279.02 61.3472 278.989 61.3082Z" fill="#263238"/>
<path d="M271.891 54.9743C270.152 55.2867 268.584 56.4269 267.741 57.9889C267.344 58.7309 264.785 60.3475 264.348 61.0582C262.968 63.3388 264.473 69.8601 263.826 70.3521C263.178 70.8441 263.412 68.9151 262.788 68.5402C262.172 68.1731 261.455 67.9544 260.916 67.478C260.168 66.8298 257.438 59.754 260.768 55.4741C262.476 53.2795 264.863 51.5535 267.601 51.0693C270.339 50.5851 273.264 51.2489 275.526 52.8734C276.259 53.3967 277.523 54.8337 275.495 55.4663C274.956 55.6381 274.925 55.2008 274.356 55.0602C273.552 54.8571 272.71 54.8259 271.891 54.9665V54.9743Z" fill="#263238"/>
<path d="M258.617 61.0582C260.543 59.1839 262.946 59.1839 265.067 59.1839C266.253 59.1839 267.283 59.1839 268.055 58.848C270.192 57.9108 271.51 54.865 271.744 53.8575C271.978 52.8734 273.109 52.1939 273.53 52.1705C273.835 52.1471 274.833 52.2564 275.317 52.9593C275.699 53.5138 275.66 54.3104 275.2 55.3335L275.496 55.4663C276.003 54.3339 276.034 53.4279 275.582 52.7719C275.012 51.944 273.897 51.8269 273.507 51.8425C272.938 51.8737 271.69 52.6547 271.424 53.7794C271.206 54.7009 269.919 57.6687 267.922 58.5434C267.212 58.8558 266.214 58.8558 265.067 58.8558C262.985 58.8558 260.411 58.8558 258.391 60.8239L258.617 61.0582Z" fill="#263238"/>
<path opacity="0.1" d="M258.617 61.0582C260.543 59.1839 262.946 59.1839 265.067 59.1839C266.253 59.1839 267.283 59.1839 268.055 58.848C270.192 57.9108 271.51 54.865 271.744 53.8575C271.978 52.8734 273.109 52.1939 273.53 52.1705C273.835 52.1471 274.833 52.2564 275.317 52.9593C275.699 53.5138 275.66 54.3104 275.2 55.3335L275.496 55.4663C276.003 54.3339 276.034 53.4279 275.582 52.7719C275.012 51.944 273.897 51.8269 273.507 51.8425C272.938 51.8737 271.69 52.6547 271.424 53.7794C271.206 54.7009 269.919 57.6687 267.922 58.5434C267.212 58.8558 266.214 58.8558 265.067 58.8558C262.985 58.8558 260.411 58.8558 258.391 60.8239L258.617 61.0582Z" fill="white"/>
<path d="M260.269 63.245C260.41 62.2063 261.361 61.4722 262.407 61.6049C263.842 61.8236 264.497 63.7605 264.497 65.0257C264.481 66.4237 263.452 67.4624 262.196 66.6736C261.252 66.0722 260.581 65.1116 260.332 64.0182C260.262 63.7683 260.238 63.5028 260.269 63.2372V63.245Z" fill="#FFB573"/>
<path d="M262.82 83.8633C262.508 87.8542 258.818 102.959 250.831 103.38C249.583 103.443 248.32 102.966 247.345 102.146C247.337 102.146 247.321 102.131 247.313 102.123C240.871 98.2414 245.933 79.396 247.228 78.3026C249.388 76.4985 253.171 76.8812 254.357 80.4347C254.528 79.8412 254.661 79.232 254.762 78.6228C255.098 76.5766 256.205 71.836 258.249 71.4923C259.481 71.2815 262.016 71.1643 262.75 72.1796C263.491 73.1871 263.327 77.2639 262.82 83.8711V83.8633Z" fill="#51BD88"/>
<g opacity="0.2">
<path d="M262.398 61.6128L262.437 61.972L262.804 65.4318V69.8991L263.412 67.2437C263.568 66.5486 263.607 65.8379 263.514 65.135L263.085 61.8158L262.398 61.6206V61.6128Z" fill="black"/>
</g>
<path d="M258.391 72.3124L257.432 65.3537L263.219 65.3069C263.219 65.3069 262.743 70.5317 261.293 72.3124H258.383H258.391Z" fill="#FFB573"/>
<path d="M258.453 60.5975L262.743 61.355L263.204 65.2912L257.432 65.3459L258.453 60.5975Z" fill="#FFB573"/>
<path opacity="0.2" d="M252.626 86.7764C252.626 86.7764 249.155 94.8129 249.054 91.6264C248.937 88.1744 252.626 86.7764 252.626 86.7764Z" fill="black"/>
<path d="M466.563 133.73H445.098C443.054 133.73 441.4 135.386 441.4 137.432V151.279C441.4 153.325 443.054 154.981 445.098 154.981H451.267L454.021 158.589C454.933 159.776 456.72 159.776 457.632 158.589L460.386 154.981H466.555C468.599 154.981 470.253 153.325 470.253 151.279V137.432C470.253 135.386 468.599 133.73 466.555 133.73H466.563Z" fill="#407BFF"/>
<path d="M466.563 133.73H445.098C443.054 133.73 441.4 135.386 441.4 137.432V151.279C441.4 153.325 443.054 154.981 445.098 154.981H451.267L454.021 158.589C454.933 159.776 456.72 159.776 457.632 158.589L460.386 154.981H466.555C468.599 154.981 470.253 153.325 470.253 151.279V137.432C470.253 135.386 468.599 133.73 466.555 133.73H466.563Z" fill="#375A64"/>
<path d="M465.316 143.242L458.444 139.041V141.555H455.293C451.089 141.555 447.68 144.968 447.68 149.178C447.68 149.756 447.751 150.318 447.875 150.857C448.64 147.46 451.666 144.914 455.293 144.914H458.444V147.429L465.316 143.227V143.242Z" fill="white"/>
<path d="M315.525 49.0231H331.983C333.551 49.0231 334.814 50.2961 334.814 51.8581V62.4718C334.814 64.0416 333.543 65.3069 331.983 65.3069H327.248L325.135 68.0716C324.44 68.9854 323.068 68.9854 322.366 68.0716L320.252 65.3069H315.517C313.949 65.3069 312.686 64.0338 312.686 62.4718V51.8581C312.686 50.2883 313.957 49.0231 315.525 49.0231Z" fill="#407BFF"/>
<path d="M315.525 49.0231H331.983C333.551 49.0231 334.814 50.2961 334.814 51.8581V62.4718C334.814 64.0416 333.543 65.3069 331.983 65.3069H327.248L325.135 68.0716C324.44 68.9854 323.068 68.9854 322.366 68.0716L320.252 65.3069H315.517C313.949 65.3069 312.686 64.0338 312.686 62.4718V51.8581C312.686 50.2883 313.957 49.0231 315.525 49.0231Z" fill="#375A64"/>
<path d="M316.477 56.3176L321.742 53.0999V55.029H324.152C327.373 55.029 329.986 57.6453 329.986 60.8708C329.986 61.316 329.932 61.7455 329.838 62.1594C329.253 59.5509 326.929 57.6062 324.152 57.6062H321.742V59.5353L316.477 56.3176Z" fill="white"/>
</g>
</svg>
