<svg width="600" height="600" viewBox="0 0 600 600" fill="none" xmlns="http://www.w3.org/2000/svg">
<path d="M24.1703 324.16C24.1703 324.16 27.3703 423.23 110.07 489.26C192.77 555.29 307.37 560.02 400.14 566.29C492.91 572.56 564.17 520.04 574.91 440.66C585.65 361.27 514.76 337.97 476.3 247.6C437.84 157.23 441.26 127.53 359.88 71.9398C278.49 16.3598 151.19 50.4898 84.4403 145.71C17.6903 240.93 24.1703 324.16 24.1703 324.16Z" fill="#F1F3F9" stroke="#B5BCCC" stroke-width="2" stroke-miterlimit="10"/>
<path d="M550.53 502.5C550.53 502.6 447.1 502.69 319.54 502.69C191.98 502.69 88.5303 502.61 88.5303 502.5C88.5303 502.39 191.94 502.31 319.54 502.31C447.14 502.31 550.53 502.39 550.53 502.5Z" fill="#1A2E35"/>
<path d="M264.811 310.475L181.141 272.395L184.071 269.655C190.121 263.995 198.091 262.295 205.391 265.105L254.991 283.185L263.321 289.225L264.041 296.325L273.291 301.895L264.811 310.475Z" fill="#E0E0E0"/>
<path d="M264.811 310.474C264.811 310.474 265.001 310.264 265.361 309.874C265.741 309.484 266.281 308.914 266.981 308.194C268.421 306.714 270.511 304.574 273.201 301.814L273.221 302.004C270.621 300.444 267.491 298.584 263.951 296.464L263.881 296.424V296.344C263.641 294.134 263.391 291.754 263.131 289.244L263.201 289.374C260.631 287.524 257.831 285.494 254.861 283.354L254.911 283.384C246.541 280.344 236.961 276.864 226.541 273.084C221.331 271.194 215.911 269.214 210.331 267.184C208.931 266.674 207.531 266.164 206.111 265.644C205.401 265.384 204.691 265.144 203.991 264.894C203.271 264.694 202.551 264.484 201.801 264.364C198.841 263.794 195.721 263.984 192.761 264.854C190.481 265.554 188.341 266.634 186.461 268.004C184.581 269.374 182.971 271.064 181.301 272.584L181.231 272.164C204.831 282.944 225.701 292.484 240.691 299.334C248.171 302.774 254.191 305.544 258.351 307.454C260.411 308.414 262.011 309.154 263.121 309.664C263.651 309.914 264.061 310.104 264.361 310.254C264.641 310.384 264.781 310.474 264.781 310.474C264.781 310.474 264.641 310.424 264.361 310.304C264.061 310.174 263.661 309.994 263.131 309.764C262.021 309.274 260.431 308.554 258.371 307.644C254.201 305.764 248.181 303.054 240.681 299.684C225.631 292.864 204.681 283.374 181.001 272.634L180.641 272.474L180.931 272.214C182.601 270.694 184.201 269.014 186.131 267.594C188.051 266.194 190.251 265.084 192.591 264.364C195.621 263.464 198.831 263.274 201.871 263.864C202.631 263.984 203.371 264.204 204.111 264.404C204.841 264.654 205.561 264.904 206.261 265.164C207.671 265.684 209.081 266.194 210.481 266.704C216.061 268.744 221.481 270.724 226.681 272.624C237.091 276.434 246.651 279.934 255.021 282.994H255.051L255.071 283.024C258.031 285.174 260.821 287.214 263.381 289.084L263.451 289.134V289.214C263.711 291.724 263.941 294.114 264.161 296.324L264.081 296.204C267.601 298.344 270.711 300.234 273.301 301.814L273.431 301.894L273.321 302.004C270.581 304.734 268.441 306.874 266.971 308.334C266.261 309.034 265.711 309.584 265.321 309.964C264.951 310.324 264.751 310.494 264.751 310.494L264.811 310.474Z" fill="#263238"/>
<path d="M251.701 411.804L224.591 240.724C223.901 235.964 221.241 231.714 217.261 229.014L149.141 182.744C141.791 177.754 131.841 179.204 126.221 186.084L74.141 249.874C71.101 253.604 69.761 258.434 70.451 263.194L97.561 434.274C98.931 443.644 107.631 450.134 117.001 448.764L237.201 431.244C246.571 429.874 253.061 421.174 251.691 411.804H251.701ZM146.361 240.714C137.501 241.404 129.751 234.774 129.061 225.914C128.371 217.054 135.001 209.304 143.861 208.614C152.721 207.924 160.471 214.554 161.161 223.414C161.851 232.274 155.221 240.024 146.361 240.714Z" fill="#9199AA"/>
<path d="M146.361 240.714C146.351 240.624 147.791 240.624 150.211 239.814C151.421 239.424 152.831 238.724 154.301 237.694C155.761 236.654 157.261 235.194 158.471 233.284C159.671 231.384 160.641 229.024 160.891 226.374C161.131 223.744 160.821 220.824 159.541 218.124C158.941 216.764 158.101 215.464 157.071 214.294C156.581 213.684 155.981 213.164 155.411 212.624C154.781 212.144 154.161 211.624 153.461 211.224C150.721 209.484 147.311 208.644 143.891 208.884C140.471 209.184 137.231 210.534 134.791 212.684C134.161 213.194 133.631 213.794 133.081 214.374C132.591 215.004 132.091 215.604 131.691 216.284C130.861 217.594 130.221 219.004 129.851 220.454C129.011 223.324 129.151 226.254 129.791 228.814C130.451 231.394 131.771 233.564 133.251 235.264C134.751 236.964 136.451 238.164 138.061 238.974C139.671 239.774 141.171 240.244 142.431 240.434C144.941 240.864 146.371 240.644 146.371 240.734C146.371 240.734 146.281 240.754 146.111 240.764C145.911 240.774 145.651 240.794 145.341 240.814C145.001 240.844 144.581 240.854 144.091 240.814C143.601 240.784 143.021 240.764 142.391 240.644C141.111 240.474 139.581 240.024 137.931 239.244C136.281 238.454 134.531 237.244 132.981 235.524C131.441 233.804 130.071 231.584 129.371 228.944C128.691 226.314 128.531 223.304 129.381 220.344C129.761 218.854 130.411 217.404 131.271 216.044C131.671 215.344 132.191 214.724 132.691 214.074C133.251 213.474 133.801 212.854 134.451 212.324C136.961 210.104 140.311 208.704 143.841 208.394C147.381 208.154 150.901 209.024 153.721 210.824C154.441 211.244 155.081 211.774 155.731 212.274C156.321 212.834 156.941 213.374 157.441 214.004C158.501 215.214 159.361 216.554 159.971 217.964C161.271 220.754 161.581 223.764 161.311 226.464C161.031 229.184 160.021 231.594 158.771 233.524C157.511 235.464 155.961 236.924 154.451 237.964C152.941 238.994 151.491 239.674 150.261 240.044C149.661 240.264 149.091 240.374 148.611 240.474C148.131 240.594 147.711 240.644 147.381 240.674C147.071 240.704 146.821 240.724 146.621 240.744C146.451 240.754 146.361 240.764 146.361 240.744V240.714Z" fill="#263238"/>
<path d="M251.701 411.804C251.701 411.804 251.791 412.444 251.891 413.704C251.911 414.964 251.891 416.874 251.181 419.254C251.091 419.554 250.991 419.854 250.901 420.164C250.771 420.464 250.651 420.774 250.511 421.094C250.271 421.744 249.891 422.364 249.531 423.044C248.731 424.344 247.731 425.694 246.401 426.934C245.061 428.154 243.431 429.274 241.521 430.094C241.041 430.294 240.561 430.514 240.031 430.654C239.511 430.804 239.001 431.004 238.451 431.084C237.361 431.324 236.241 431.474 235.081 431.644C216.541 434.364 189.731 438.304 156.591 443.164C148.311 444.374 139.631 445.644 130.581 446.974C126.061 447.634 121.441 448.304 116.741 448.984C111.971 449.634 106.861 448.134 103.101 444.844C101.211 443.224 99.6809 441.144 98.6609 438.824C97.5909 436.504 97.2809 433.924 96.8809 431.434C96.0809 426.414 95.2709 421.304 94.4509 416.124C92.8009 405.764 91.1109 395.104 89.3809 384.174C85.9109 362.304 82.2709 339.354 78.4909 315.554C76.6009 303.654 74.681 291.544 72.731 279.264C72.241 276.194 71.7509 273.104 71.2609 270.014C71.0109 268.464 70.7709 266.914 70.5209 265.364C70.2809 263.824 69.9809 262.244 70.0009 260.634C70.0209 257.434 70.921 254.224 72.641 251.494C73.481 250.104 74.5809 248.934 75.5609 247.684C76.5709 246.454 77.5809 245.214 78.5909 243.974C94.7609 224.174 110.541 204.854 125.781 186.184C126.751 185.024 127.811 183.894 129.051 183.004C129.641 182.514 130.311 182.154 130.951 181.744C131.631 181.414 132.291 181.024 133.011 180.774C135.821 179.624 138.911 179.284 141.881 179.674C143.371 179.894 144.821 180.294 146.201 180.854C147.571 181.444 148.871 182.214 150.061 183.054C152.481 184.704 154.891 186.334 157.291 187.964C166.881 194.484 176.261 200.854 185.421 207.084C194.581 213.304 203.511 219.374 212.181 225.274C213.261 226.014 214.341 226.744 215.421 227.474C216.491 228.214 217.591 228.904 218.611 229.734C220.641 231.384 222.261 233.504 223.351 235.834C223.891 237.004 224.301 238.224 224.581 239.474C224.841 240.734 225.001 241.974 225.201 243.204C225.591 245.674 225.981 248.124 226.361 250.564C229.431 270.014 232.291 288.134 234.901 304.674C240.111 337.754 244.321 364.524 247.231 383.034C248.671 392.284 249.801 399.464 250.561 404.344C250.931 406.774 251.221 408.634 251.411 409.884C251.601 411.134 251.681 411.774 251.681 411.774C251.681 411.774 251.561 411.134 251.351 409.894C251.151 408.644 250.841 406.784 250.451 404.354C249.671 399.484 248.511 392.304 247.031 383.064C244.081 364.564 239.811 337.804 234.531 304.734C231.901 288.194 229.021 270.084 225.921 250.634C225.531 248.204 225.141 245.754 224.751 243.274C224.541 242.044 224.381 240.784 224.131 239.574C223.861 238.354 223.461 237.164 222.931 236.024C221.871 233.744 220.291 231.694 218.311 230.084C217.331 229.284 216.221 228.594 215.151 227.854C214.071 227.124 212.991 226.394 211.911 225.654C203.231 219.764 194.301 213.704 185.141 207.484C175.981 201.264 166.591 194.894 157.001 188.384C154.601 186.754 152.191 185.124 149.771 183.474C148.571 182.624 147.331 181.904 145.991 181.324C144.651 180.774 143.241 180.384 141.801 180.174C138.921 179.794 135.911 180.124 133.181 181.244C132.481 181.484 131.851 181.864 131.181 182.184C130.561 182.584 129.911 182.934 129.341 183.404C128.131 184.264 127.121 185.354 126.161 186.494C110.921 205.164 95.141 224.494 78.981 244.294C77.971 245.534 76.9609 246.764 75.9509 248.004C74.9609 249.254 73.8809 250.424 73.0709 251.754C71.4009 254.404 70.5309 257.514 70.5109 260.624C70.4909 262.174 70.7809 263.714 71.0209 265.274C71.2709 266.824 71.5109 268.374 71.7609 269.924C72.2509 273.014 72.741 276.104 73.231 279.174C75.181 291.464 77.091 303.574 78.981 315.474C82.751 339.274 86.3809 362.224 89.8409 384.094C91.5709 395.024 93.261 405.694 94.891 416.054C95.711 421.234 96.5209 426.334 97.3109 431.364C97.7109 433.884 98.011 436.384 99.051 438.644C100.041 440.904 101.531 442.934 103.371 444.514C107.031 447.724 112.011 449.194 116.671 448.564C121.371 447.884 125.981 447.224 130.511 446.574C139.561 445.264 148.241 444.004 156.521 442.794C189.661 437.994 216.491 434.114 235.031 431.434C236.191 431.264 237.321 431.124 238.391 430.884C238.941 430.804 239.441 430.604 239.961 430.464C240.481 430.334 240.961 430.114 241.431 429.914C243.331 429.104 244.951 428.004 246.281 426.804C247.601 425.584 248.601 424.244 249.401 422.964C249.761 422.294 250.141 421.674 250.381 421.034C250.511 420.714 250.641 420.414 250.771 420.114C250.871 419.804 250.961 419.504 251.061 419.214C251.781 416.854 251.831 414.954 251.821 413.694C251.801 413.064 251.731 412.594 251.711 412.274C251.681 411.954 251.681 411.794 251.681 411.794L251.701 411.804Z" fill="#263238"/>
<path d="M98.9513 323.684C96.2913 306.994 105.171 295.254 119.381 292.994C133.731 290.704 145.811 299.104 148.471 315.794C151.151 332.624 142.251 344.224 127.911 346.514C113.701 348.774 101.641 340.514 98.9513 323.684ZM131.781 318.454C130.221 308.664 126.161 305.344 121.471 306.094C117.061 306.794 113.951 311.254 115.511 321.044C117.071 330.834 121.411 334.104 125.821 333.404C130.511 332.654 133.341 328.244 131.781 318.454ZM176.681 285.134L196.541 281.964L145.991 389.024L126.131 392.194L176.681 285.134ZM174.341 358.344C171.681 341.654 180.421 329.934 194.771 327.654C209.121 325.364 221.201 333.764 223.861 350.454C226.541 367.284 217.641 378.884 203.291 381.174C188.941 383.464 177.021 375.174 174.341 358.344ZM207.171 353.114C205.611 343.324 201.411 340.024 196.861 340.754C192.311 341.474 189.341 345.914 190.901 355.704C192.461 365.494 196.661 368.784 201.211 368.064C205.761 367.334 208.731 362.904 207.171 353.114Z" fill="white"/>
<path d="M411.551 111.654C413.191 109.554 415.871 108.304 418.531 108.394C419.611 108.424 420.821 108.644 421.691 107.994C422.321 107.534 422.601 106.754 423.031 106.114C424.381 104.154 427.521 103.764 429.301 105.354C429.741 105.744 430.111 106.234 430.651 106.454C432.841 107.354 434.781 103.214 436.961 104.134C436.091 104.634 435.231 105.274 434.811 106.184C434.381 107.094 434.511 108.334 435.321 108.924C437.431 110.454 440.281 106.314 442.591 107.534C443.841 108.194 444.181 110.174 445.581 110.374C446.121 110.454 446.651 110.214 447.181 110.104C448.971 109.734 450.941 111.044 451.291 112.834C451.591 114.364 450.991 116.334 452.251 117.264C453.031 117.834 454.111 117.634 455.051 117.394C455.161 118.814 454.951 120.264 454.421 121.594C457.081 122.804 458.341 126.394 457.021 128.994C458.341 129.844 459.691 130.734 460.581 132.014C461.481 133.304 461.831 135.094 461.031 136.444C460.851 136.754 460.611 137.034 460.521 137.374C460.421 137.744 460.521 138.144 460.621 138.514C461.051 139.934 461.821 141.284 461.921 142.764C462.021 144.244 461.071 145.974 459.581 145.984C459.231 145.984 458.841 145.904 458.571 146.124C458.371 146.284 458.301 146.564 458.281 146.824C458.181 147.894 458.551 148.934 458.791 149.974C459.031 151.014 459.141 152.174 458.601 153.094C458.061 154.014 456.631 154.454 455.891 153.684C456.471 155.294 457.041 156.904 457.621 158.514C457.961 159.474 458.271 160.634 457.621 161.424C456.771 162.454 455.021 161.874 454.201 160.814C453.391 159.764 453.061 158.384 452.221 157.354C451.881 156.934 451.451 156.574 451.201 156.084C451.001 155.704 450.901 155.234 450.551 154.994C449.841 154.504 448.901 155.534 449.071 156.374C449.241 157.224 449.981 157.804 450.591 158.424C451.191 159.044 451.721 159.954 451.351 160.734C451.171 161.114 450.811 161.384 450.641 161.764C450.061 163.084 452.011 164.134 452.361 165.534C452.621 166.564 451.941 167.594 451.261 168.404C450.431 169.404 448.721 170.314 448.031 169.204C447.791 168.824 447.821 168.324 447.631 167.914C447.401 167.434 446.921 167.144 446.501 166.824C445.451 166.034 444.631 164.934 444.191 163.694C445.411 164.944 446.731 166.614 446.101 168.244C445.841 168.924 445.271 169.434 444.821 170.004C443.931 171.124 443.441 172.514 442.561 173.644C441.681 174.774 440.151 175.634 438.841 175.054C439.401 176.384 438.931 178.064 437.771 178.904C436.611 179.754 434.861 179.674 433.771 178.734C433.471 178.474 433.201 178.154 432.821 178.044C432.411 177.924 431.981 178.074 431.571 178.194C429.111 178.884 426.291 178.054 424.611 176.134C425.021 175.944 425.431 175.754 425.841 175.564C423.311 175.474 420.671 175.354 418.461 174.124C416.251 172.894 414.631 170.184 415.501 167.814C415.881 166.784 416.681 165.684 416.181 164.714C415.831 164.044 415.021 163.794 414.281 163.614C411.211 162.844 408.141 162.084 405.071 161.314C403.581 160.944 402.011 160.524 400.941 159.424C399.871 158.324 399.591 156.304 400.791 155.334C399.971 154.024 398.781 152.954 397.391 152.284C395.821 151.534 394.061 151.294 392.461 150.614C390.861 149.934 389.341 148.584 389.281 146.844C389.231 145.104 391.481 143.554 392.791 144.694C392.311 142.114 387.661 142.394 387.021 139.854C386.501 137.794 389.081 136.454 390.311 134.714C389.961 134.014 389.171 133.614 388.801 132.924C388.021 131.474 389.451 129.824 390.861 128.974C392.271 128.134 394.011 127.244 394.221 125.614C394.431 123.944 392.861 122.234 393.591 120.714C394.001 119.874 395.131 119.484 395.971 119.884C396.881 116.774 402.731 118.504 404.111 115.574C404.221 115.344 404.291 115.084 404.231 114.834C404.181 114.614 404.041 114.434 403.891 114.274C403.161 113.514 402.121 113.174 401.231 112.604C400.341 112.034 399.551 111.034 399.831 110.024C400.111 109.014 401.971 108.874 402.051 109.914C403.021 108.864 405.041 109.174 405.651 110.464C406.291 109.524 407.711 109.394 408.741 109.884C409.771 110.374 410.511 111.304 411.201 112.214" fill="#263238"/>
<path d="M428.851 143.404C427.421 139.224 423.851 136.124 420.041 133.874C418.451 132.934 416.721 132.084 414.871 132.014C413.021 131.944 411.021 132.824 410.291 134.524L410.901 137.564C411.091 142.484 415.331 146.144 417.661 150.484C418.671 152.374 419.591 154.674 421.641 155.284C422.721 155.604 423.891 155.354 424.911 154.864C428.891 152.944 430.281 147.584 428.851 143.404Z" fill="#455A64"/>
<path d="M431.951 165.904C434.261 161.904 433.111 156.264 429.421 153.494C430.911 151.004 429.811 147.624 427.691 145.644C425.581 143.664 422.701 142.744 419.941 141.884C417.631 135.494 409.641 131.854 403.301 134.304C399.231 129.744 391.861 129.924 386.261 132.394C384.891 132.994 383.541 133.724 382.061 133.914C380.971 134.054 379.871 133.894 378.781 133.894C372.751 133.884 367.431 138.834 365.861 144.644C365.611 145.574 365.431 146.544 364.941 147.374C364.301 148.464 363.221 149.204 362.331 150.104C360.401 152.044 359.391 154.854 359.641 157.574C359.851 159.884 360.901 162.224 360.211 164.444C359.861 165.554 359.101 166.514 358.871 167.654C358.191 170.954 362.121 173.724 361.911 177.084C361.871 177.774 361.651 178.434 361.551 179.114C361.351 180.504 361.671 181.964 362.451 183.144C363.051 184.054 363.921 184.844 364.121 185.904C364.281 186.714 364.021 187.534 363.961 188.364C363.821 190.374 369.051 197.364 370.881 198.204L421.491 191.944C425.211 190.654 427.871 186.774 427.721 182.844C427.701 182.194 427.611 181.484 427.941 180.924C428.221 180.444 428.751 180.174 429.201 179.844C432.221 177.664 432.021 173.144 431.191 169.514C431.071 169.004 430.951 168.484 431.011 167.964C431.101 167.214 431.571 166.564 431.951 165.914V165.904Z" fill="#263238"/>
<path d="M417.551 167.894C416.511 158.924 409.541 149.394 400.071 146.204C394.101 144.194 389.731 144.754 386.741 144.804C380.041 144.914 375.151 148.884 375.151 148.884C372.451 149.904 363.481 160.614 364.301 170.824C365.211 182.174 366.761 195.994 369.301 204.194C374.401 220.684 387.651 220.974 387.651 220.974C387.651 220.944 390.201 242.784 390.201 242.784L424.951 229.904L417.561 167.904L417.551 167.894Z" fill="#FFBFAA"/>
<path d="M370.481 184.204C370.601 185.354 371.681 186.194 372.881 186.084C374.081 185.974 374.951 184.964 374.831 183.814C374.711 182.664 373.631 181.824 372.431 181.934C371.231 182.044 370.351 183.054 370.481 184.204Z" fill="#263238"/>
<path d="M369.031 176.744C369.341 176.984 370.801 175.544 373.131 175.214C375.451 174.854 377.331 175.804 377.541 175.484C377.651 175.344 377.301 174.874 376.481 174.434C375.671 174.004 374.351 173.654 372.901 173.874C371.451 174.094 370.311 174.804 369.681 175.444C369.041 176.094 368.871 176.644 369.021 176.744H369.031Z" fill="#263238"/>
<path d="M385.301 193.175C385.301 193.045 383.811 192.995 381.421 193.035C380.821 193.055 380.241 193.025 380.081 192.635C379.881 192.225 380.031 191.545 380.221 190.815C380.571 189.295 380.941 187.705 381.331 186.035C382.841 179.235 383.851 173.685 383.581 173.625C383.311 173.565 381.851 179.025 380.341 185.825C379.981 187.495 379.641 189.095 379.311 190.625C379.181 191.335 378.911 192.155 379.341 193.005C379.561 193.425 380.051 193.685 380.441 193.735C380.841 193.795 381.171 193.755 381.471 193.735C383.851 193.525 385.311 193.325 385.301 193.185V193.175Z" fill="#263238"/>
<path d="M387.65 220.964C387.65 220.964 399.11 220.064 409.38 211.684C409.38 211.684 405.35 225.114 388.23 225.954L387.65 220.954V220.964Z" fill="#FF9A6C"/>
<path d="M383.22 201.894C383.581 202.015 384.237 199.545 386.819 198.348C389.392 197.147 391.954 198.124 392.057 197.777C392.129 197.634 391.597 197.147 390.496 196.822C389.418 196.495 387.733 196.422 386.162 197.157C384.591 197.892 383.654 199.178 383.3 200.169C382.937 201.177 383.048 201.865 383.22 201.894Z" fill="#263238"/>
<path d="M368.72 167.884C369.19 168.394 370.92 167.764 373.03 167.634C375.13 167.444 376.94 167.804 377.33 167.234C377.5 166.954 377.19 166.434 376.39 165.964C375.6 165.494 374.29 165.144 372.84 165.254C371.39 165.364 370.16 165.904 369.45 166.494C368.73 167.074 368.51 167.644 368.72 167.894V167.884Z" fill="#263238"/>
<path d="M395.451 181.365C395.611 182.505 394.781 183.585 393.591 183.785C392.401 183.975 391.301 183.205 391.141 182.065C390.981 180.925 391.811 179.835 393.001 179.645C394.191 179.455 395.291 180.225 395.451 181.365Z" fill="#263238"/>
<path d="M401.021 173.084C400.781 173.394 399.001 172.354 396.671 172.604C394.331 172.824 392.741 174.214 392.461 173.954C392.321 173.844 392.541 173.304 393.231 172.674C393.911 172.054 395.111 171.394 396.571 171.244C398.031 171.094 399.311 171.504 400.071 171.984C400.851 172.464 401.151 172.944 401.031 173.084H401.021Z" fill="#263238"/>
<path d="M400.561 165.174C400.161 165.754 398.291 165.394 396.121 165.594C393.941 165.734 392.151 166.374 391.671 165.864C391.461 165.614 391.691 165.054 392.441 164.464C393.181 163.884 394.461 163.334 395.951 163.214C397.451 163.094 398.791 163.444 399.601 163.904C400.421 164.374 400.731 164.894 400.561 165.174Z" fill="#263238"/>
<path d="M417.061 184.274C416.881 183.014 417.911 179.844 419.121 179.474C422.361 178.484 428.371 177.884 429.641 186.294C431.371 197.784 419.471 197.154 419.401 196.824C419.351 196.574 417.671 188.614 417.061 184.274Z" fill="#FFBFAA"/>
<path d="M421.941 192.154C421.941 192.154 422.161 192.264 422.521 192.364C422.871 192.464 423.461 192.484 424.021 192.174C425.171 191.544 425.901 189.464 425.641 187.384C425.511 186.334 425.141 185.374 424.651 184.604C424.171 183.814 423.541 183.314 422.911 183.294C422.281 183.244 421.901 183.674 421.811 184.024C421.701 184.374 421.811 184.584 421.751 184.614C421.721 184.644 421.471 184.464 421.501 183.974C421.511 183.734 421.611 183.444 421.841 183.184C422.081 182.914 422.471 182.744 422.901 182.724C423.801 182.654 424.721 183.344 425.261 184.194C425.851 185.034 426.291 186.114 426.441 187.294C426.721 189.624 425.861 191.964 424.271 192.694C423.491 193.024 422.781 192.884 422.391 192.664C421.991 192.434 421.891 192.184 421.931 192.164L421.941 192.154Z" fill="#FF9A6C"/>
<path d="M361.701 171.354C363.821 169.564 365.021 167.384 364.481 164.664C366.091 164.904 367.371 162.694 368.081 161.234C368.791 159.774 369.791 158.944 369.491 157.344C369.431 157.024 369.361 156.694 369.471 156.394C369.641 155.924 370.171 155.694 370.621 155.484C372.961 154.364 374.651 151.984 374.931 149.404C377.551 150.134 380.351 150.194 383.001 149.574C384.441 151.134 386.701 151.884 388.781 151.484C390.861 151.094 392.701 149.574 393.481 147.604C394.381 148.944 396.011 149.654 397.611 149.824C399.221 149.994 400.831 149.694 402.421 149.404C402.171 152.594 404.671 155.754 407.831 156.254C408.261 156.324 408.751 156.374 408.991 156.734C409.241 157.104 409.091 157.604 408.991 158.044C408.361 160.824 410.581 163.884 413.411 164.164C411.741 165.894 412.411 169.244 414.631 170.184C415.081 170.374 415.671 170.604 415.681 171.094C415.681 171.284 415.591 171.454 415.501 171.624C414.811 172.884 414.131 174.254 414.231 175.684C414.331 177.124 415.521 178.574 416.951 178.434C416.301 179.204 415.721 180.164 415.851 181.164C415.981 182.164 417.131 183.044 418.011 182.544C418.381 182.334 423.951 180.384 424.161 180.014C426.781 175.134 421.991 170.834 420.881 165.394C419.771 159.964 417.101 154.924 413.681 150.564C412.251 148.734 410.671 146.994 408.801 145.604C406.681 144.014 404.241 142.914 401.811 141.854C398.641 140.464 395.401 139.084 391.951 138.774C385.531 138.194 379.401 141.374 374.001 144.874C371.941 146.204 369.901 147.624 368.281 149.454C366.331 151.644 365.061 154.344 364.001 157.084C362.471 161.034 361.331 165.224 361.521 169.454" fill="#263238"/>
<path d="M358.861 167.645C358.861 167.645 358.911 167.155 359.301 166.325C359.491 165.905 359.771 165.415 360.021 164.795C360.261 164.175 360.411 163.415 360.361 162.555C360.331 161.695 360.131 160.745 359.911 159.715C359.691 158.685 359.451 157.535 359.521 156.285C359.581 155.045 359.891 153.715 360.521 152.445C360.831 151.815 361.231 151.195 361.701 150.615C362.171 150.035 362.751 149.515 363.331 149.005C363.901 148.485 364.481 147.935 364.861 147.245C365.251 146.555 365.441 145.745 365.641 144.925C366.061 143.265 366.771 141.605 367.801 140.085C368.831 138.565 370.141 137.135 371.771 136.025C372.561 135.445 373.471 134.995 374.391 134.595C375.341 134.245 376.331 133.935 377.371 133.825C377.881 133.745 378.411 133.745 378.941 133.725C379.471 133.725 379.991 133.765 380.511 133.785C381.551 133.845 382.591 133.725 383.591 133.355C384.591 133.005 385.551 132.495 386.581 132.075C387.601 131.635 388.671 131.305 389.761 131.035C390.851 130.765 391.991 130.615 393.131 130.525C394.281 130.455 395.441 130.505 396.591 130.665C398.891 131.025 401.201 131.955 402.921 133.665C403.091 133.835 403.261 134.005 403.431 134.175L403.241 134.125C406.611 132.835 410.371 133.255 413.431 134.725C416.511 136.185 419.001 138.755 420.101 141.815L419.991 141.715C421.471 142.175 422.941 142.645 424.331 143.275C425.711 143.905 427.001 144.705 428.041 145.755C429.071 146.815 429.791 148.135 430.101 149.515C430.421 150.895 430.271 152.385 429.551 153.565L429.511 153.375C431.391 154.795 432.521 156.865 432.991 158.905C433.461 160.965 433.311 163.055 432.601 164.795C432.441 165.235 432.211 165.645 432.001 166.045C431.771 166.435 431.531 166.805 431.351 167.185C431.171 167.565 431.081 167.965 431.101 168.375C431.121 168.775 431.221 169.175 431.301 169.565C431.651 171.135 431.821 172.615 431.791 173.955C431.761 175.285 431.551 176.485 431.131 177.435C430.721 178.395 430.151 179.095 429.601 179.555C429.061 180.035 428.561 180.255 428.301 180.515C428.031 180.755 427.941 180.925 427.931 180.925C427.931 180.925 428.001 180.735 428.271 180.485C428.531 180.215 429.031 179.975 429.551 179.495C430.071 179.025 430.631 178.335 431.011 177.395C431.411 176.455 431.611 175.275 431.621 173.955C431.631 172.635 431.451 171.175 431.091 169.615C431.001 169.225 430.901 168.825 430.881 168.395C430.851 167.965 430.961 167.515 431.141 167.105C431.321 166.695 431.571 166.325 431.791 165.945C431.991 165.555 432.221 165.165 432.371 164.725C433.051 163.025 433.191 160.985 432.721 158.985C432.251 156.995 431.131 154.985 429.321 153.625L429.211 153.545L429.281 153.435C429.951 152.325 430.091 150.925 429.781 149.605C429.481 148.285 428.781 147.015 427.791 145.995C426.791 144.985 425.531 144.205 424.171 143.595C422.811 142.975 421.351 142.515 419.871 142.055L419.791 142.035L419.761 141.955C418.691 138.995 416.261 136.485 413.261 135.065C410.271 133.635 406.601 133.225 403.341 134.475L403.231 134.515L403.141 134.425C402.981 134.265 402.811 134.105 402.651 133.935C400.991 132.285 398.751 131.375 396.511 131.025C395.381 130.865 394.241 130.815 393.121 130.885C392.001 130.965 390.891 131.115 389.811 131.385C388.741 131.655 387.681 131.975 386.681 132.405C385.671 132.815 384.711 133.325 383.671 133.685C383.161 133.865 382.621 134.005 382.081 134.075C381.541 134.145 381.001 134.145 380.471 134.125C379.941 134.105 379.421 134.065 378.911 134.065C378.401 134.085 377.891 134.085 377.391 134.155C376.381 134.265 375.421 134.555 374.491 134.895C373.591 135.295 372.701 135.725 371.921 136.285C370.321 137.365 369.031 138.765 368.011 140.255C366.981 141.745 366.281 143.375 365.871 145.005C365.661 145.825 365.471 146.655 365.051 147.385C364.631 148.115 364.031 148.685 363.461 149.195C362.871 149.715 362.311 150.205 361.851 150.775C361.381 151.335 360.991 151.935 360.681 152.555C360.061 153.795 359.741 155.085 359.681 156.305C359.601 157.525 359.831 158.655 360.041 159.695C360.251 160.725 360.451 161.685 360.471 162.565C360.511 163.445 360.341 164.225 360.091 164.845C359.831 165.465 359.541 165.955 359.341 166.365C359.131 166.775 359.011 167.095 358.941 167.315C358.871 167.535 358.841 167.655 358.831 167.655L358.861 167.645Z" fill="#455A64"/>
<path d="M397.541 132.534C397.541 132.534 397.211 132.404 396.611 132.204C396.011 132.014 395.121 131.794 394.001 131.824C392.891 131.844 391.551 132.134 390.291 132.904C389.051 133.674 387.911 134.934 387.291 136.504C387.111 136.954 386.971 137.434 386.901 137.884C386.841 138.334 386.881 138.804 387.151 139.084L387.491 139.434L387.011 139.364C385.681 139.184 384.401 139.614 383.511 140.294C382.601 140.974 382.091 141.894 381.861 142.694C381.621 143.504 381.631 144.194 381.681 144.654C381.731 145.114 381.801 145.364 381.781 145.374C381.781 145.374 381.741 145.314 381.701 145.204C381.661 145.084 381.611 144.914 381.571 144.674C381.491 144.204 381.441 143.494 381.661 142.644C381.881 141.804 382.391 140.804 383.341 140.064C384.281 139.324 385.631 138.854 387.071 139.034L386.921 139.324C386.541 138.914 386.501 138.334 386.571 137.844C386.641 137.344 386.791 136.854 386.981 136.374C387.631 134.724 388.831 133.414 390.141 132.624C391.461 131.824 392.861 131.554 394.011 131.564C395.171 131.564 396.081 131.824 396.671 132.064C396.971 132.184 397.191 132.294 397.341 132.374C397.491 132.454 397.561 132.504 397.551 132.514L397.541 132.534Z" fill="#455A64"/>
<path d="M418.081 143.115C418.081 143.115 417.981 143.295 417.741 143.585C417.491 143.865 417.111 144.265 416.571 144.675C416.021 145.075 415.291 145.505 414.371 145.685C413.471 145.865 412.351 145.815 411.391 145.225L411.641 145.155C411.551 145.325 411.461 145.495 411.371 145.675C411.271 145.845 411.151 146.015 411.041 146.185C410.321 147.185 409.371 147.925 408.421 148.375C407.471 148.845 406.521 149.055 405.731 149.105C404.931 149.155 404.291 149.045 403.861 148.945C403.431 148.825 403.211 148.725 403.211 148.705C403.221 148.625 404.161 149.005 405.711 148.855C406.471 148.775 407.381 148.545 408.281 148.085C409.191 147.635 410.081 146.915 410.761 145.975C410.861 145.815 410.981 145.655 411.071 145.495C411.161 145.325 411.241 145.165 411.331 145.005L411.421 144.835L411.581 144.935C412.441 145.465 413.471 145.545 414.321 145.385C415.181 145.235 415.891 144.855 416.441 144.485C417.531 143.725 418.051 143.075 418.091 143.115H418.081Z" fill="#455A64"/>
<path d="M425.661 152.924C425.661 152.924 425.671 152.994 425.661 153.144C425.641 153.284 425.601 153.494 425.481 153.734C425.261 154.224 424.711 154.864 423.801 155.224C422.891 155.604 421.691 155.574 420.461 155.334C419.841 155.204 419.211 155.084 418.541 154.874C417.891 154.664 417.171 154.324 416.751 153.654C416.721 153.594 416.681 153.534 416.651 153.474L416.931 153.514C415.941 154.534 414.911 155.454 413.811 156.044C412.721 156.654 411.571 156.884 410.621 156.834C409.671 156.794 408.941 156.494 408.501 156.214C408.281 156.074 408.121 155.944 408.021 155.844C407.921 155.744 407.881 155.694 407.881 155.684C407.901 155.664 408.111 155.854 408.561 156.094C409.001 156.334 409.711 156.584 410.621 156.594C411.521 156.614 412.601 156.374 413.641 155.774C414.691 155.184 415.691 154.294 416.671 153.284L416.831 153.114L416.951 153.324C416.951 153.324 417.001 153.424 417.031 153.474C417.381 154.034 418.011 154.354 418.631 154.554C419.261 154.754 419.901 154.894 420.501 155.024C421.701 155.284 422.831 155.324 423.691 155.004C424.551 154.694 425.101 154.124 425.341 153.674C425.591 153.224 425.601 152.924 425.641 152.924H425.661Z" fill="#455A64"/>
<path d="M432.191 110.094C432.191 110.094 431.991 110.134 431.661 110.264C431.331 110.404 430.861 110.704 430.491 111.274C430.121 111.834 429.851 112.644 429.931 113.594C429.991 114.544 430.361 115.564 430.801 116.674L430.871 116.854L430.681 116.874C429.381 117.014 427.981 117.594 426.871 118.654C425.761 119.694 425.041 121.314 425.261 122.994C425.421 124.524 426.291 125.904 427.481 126.594L427.911 126.844L427.421 126.914C425.641 127.154 424.171 128.214 423.331 129.444C422.471 130.684 422.271 132.084 422.361 133.184C422.451 134.294 422.821 135.134 423.111 135.674C423.411 136.214 423.631 136.464 423.611 136.484C423.611 136.484 423.541 136.434 423.441 136.304C423.331 136.184 423.181 135.994 423.021 135.724C422.691 135.194 422.291 134.344 422.161 133.194C422.041 132.064 422.211 130.594 423.101 129.274C423.961 127.964 425.501 126.834 427.391 126.564L427.331 126.874C426.031 126.134 425.111 124.644 424.941 123.024C424.831 122.144 424.941 121.244 425.271 120.444C425.581 119.644 426.091 118.964 426.671 118.404C427.851 117.294 429.321 116.704 430.681 116.574L430.561 116.774C430.131 115.664 429.771 114.594 429.721 113.604C429.651 112.614 429.961 111.744 430.381 111.174C430.791 110.584 431.301 110.294 431.651 110.174C431.831 110.114 431.971 110.084 432.071 110.084C432.171 110.084 432.221 110.084 432.221 110.084L432.191 110.094Z" fill="#455A64"/>
<path d="M456.251 132.134C456.251 132.134 456.201 132.184 456.081 132.274C455.961 132.354 455.791 132.484 455.541 132.614C455.061 132.894 454.301 133.234 453.301 133.464C452.301 133.694 451.021 133.804 449.621 133.544C448.221 133.314 446.691 132.674 445.381 131.554L445.641 131.494C444.861 133.324 443.241 135.144 440.961 135.774C438.551 136.434 435.931 135.404 434.801 133.534L435.101 133.484C434.931 134.324 434.511 135.054 433.991 135.634C433.471 136.214 432.871 136.644 432.251 136.964C431.011 137.604 429.781 137.764 428.801 137.824C427.811 137.874 427.021 137.824 426.491 137.774C425.961 137.724 425.671 137.684 425.671 137.674C425.671 137.654 425.961 137.664 426.491 137.674C427.021 137.674 427.811 137.704 428.781 137.624C429.751 137.534 430.941 137.344 432.121 136.714C433.271 136.094 434.461 134.974 434.771 133.404L434.851 132.994L435.071 133.344C436.131 135.074 438.611 136.044 440.861 135.414C443.011 134.824 444.571 133.094 445.331 131.344L445.421 131.134L445.591 131.284C446.841 132.374 448.311 133.004 449.661 133.254C451.021 133.524 452.261 133.444 453.241 133.254C455.231 132.844 456.201 132.044 456.231 132.114L456.251 132.134Z" fill="#455A64"/>
<path d="M446.561 150.674C446.561 150.674 446.561 150.764 446.451 150.904C446.351 151.034 446.141 151.194 445.841 151.284C445.231 151.454 444.321 151.484 443.241 151.224C442.171 150.954 440.931 150.334 439.971 149.194C439.021 148.074 438.381 146.454 438.481 144.734V144.694L438.761 144.844C437.351 145.824 435.691 146.184 434.241 146.134C432.771 146.094 431.501 145.634 430.531 145.124C429.561 144.604 428.871 144.024 428.441 143.604C428.001 143.174 427.801 142.904 427.821 142.894C427.871 142.834 428.731 143.924 430.651 144.914C431.611 145.394 432.841 145.804 434.251 145.824C435.651 145.854 437.231 145.494 438.561 144.574L438.851 144.374V144.724L438.841 144.754C438.751 146.374 439.341 147.914 440.231 148.984C441.121 150.074 442.301 150.694 443.321 150.984C444.351 151.264 445.251 151.274 445.821 151.154C446.421 151.024 446.551 150.654 446.571 150.674H446.561Z" fill="#455A64"/>
<path d="M407.101 114.064C407.191 114.064 406.651 115.454 407.081 117.674C407.301 118.764 407.791 120.034 408.721 121.174C409.651 122.304 411.021 123.264 412.651 123.744C413.561 124.014 414.501 124.104 415.381 124.054H415.601L415.571 124.254C415.351 125.604 415.431 126.904 415.671 128.034C415.921 129.164 416.321 130.114 416.741 130.864C416.951 131.234 417.151 131.574 417.361 131.824C417.561 132.074 417.821 132.224 418.031 132.204C418.251 132.204 418.411 132.094 418.471 131.994C418.541 131.904 418.551 131.834 418.561 131.834C418.561 131.834 418.581 131.904 418.521 132.024C418.461 132.144 418.291 132.284 418.041 132.314C417.781 132.354 417.461 132.194 417.231 131.924C417.001 131.654 416.781 131.334 416.551 130.964C416.091 130.214 415.661 129.244 415.381 128.094C415.111 126.944 415.011 125.594 415.231 124.194L415.411 124.394C414.491 124.454 413.521 124.364 412.561 124.084C410.861 123.584 409.431 122.574 408.481 121.374C407.531 120.174 407.041 118.844 406.851 117.714C406.651 116.584 406.741 115.634 406.851 115.014C406.911 114.704 406.971 114.464 407.031 114.304C407.081 114.144 407.111 114.064 407.131 114.064H407.101Z" fill="#455A64"/>
<path d="M374.152 469.144L412.322 462.234C412.322 462.234 432.162 498.704 439.342 498.114L428.592 423.634L368.682 431.964L374.152 469.144Z" fill="#858D9E"/>
<path d="M405.772 439.664C405.962 438.164 407.432 436.934 408.942 437.064C410.452 437.184 411.712 438.684 411.552 440.184C411.392 441.684 409.662 443.214 408.182 442.924C406.702 442.634 405.312 440.804 405.832 439.384" fill="#E0E0E0"/>
<path d="M430.102 423.674L424.292 424.474L435.082 496.044C435.082 496.044 437.002 499.154 439.282 498.444L430.092 423.684L430.102 423.674Z" fill="#E0E0E0"/>
<path d="M412.112 463.494C412.472 463.434 412.372 461.584 413.292 459.624C414.152 457.644 415.592 456.494 415.402 456.174C415.282 455.844 413.192 456.704 412.122 459.094C411.042 461.474 411.792 463.614 412.122 463.484L412.112 463.494Z" fill="white"/>
<path d="M416.472 470.844C416.832 470.874 417.232 469.214 418.592 467.754C419.912 466.254 421.532 465.704 421.462 465.344C421.462 464.994 419.302 465.054 417.652 466.894C415.982 468.724 416.132 470.884 416.482 470.844H416.472Z" fill="white"/>
<path d="M426.462 473.924C426.492 473.584 424.602 473.334 422.742 474.564C420.872 475.774 420.342 477.604 420.662 477.714C420.992 477.874 421.902 476.614 423.442 475.634C424.962 474.624 426.472 474.294 426.462 473.924Z" fill="white"/>
<path d="M406.622 464.874C406.902 464.634 405.922 463.164 405.462 461.134C404.952 459.114 405.152 457.364 404.802 457.274C404.482 457.144 403.642 459.054 404.222 461.434C404.782 463.824 406.402 465.134 406.632 464.874H406.622Z" fill="white"/>
<path d="M374.151 376.354C372.741 375.964 318.771 428.014 308.501 440.794C298.021 453.834 308.841 470.754 316.611 470.934C332.661 471.294 408.331 466.374 408.331 466.374L400.421 431.344L430.651 421.174L403.631 371.734L374.141 376.364L374.151 376.354Z" fill="white"/>
<g opacity="0.6">
<path d="M359.451 391.134L357.461 393.274C357.461 393.274 393.091 430.644 404.011 430.134L421.501 424.204L362.321 387.884L359.441 391.124L359.451 391.134Z" fill="#AAB2C5"/>
</g>
<path d="M400.632 432.255C400.692 432.475 387.732 436.475 371.672 441.195C355.612 445.915 342.542 449.565 342.482 449.345C342.422 449.125 355.382 445.125 371.442 440.405C387.502 435.685 400.572 432.035 400.632 432.255Z" fill="white"/>
<path d="M323.011 436.104L335.091 474.434C335.091 474.434 300.191 499.584 301.731 506.884L376.881 486.124L360.511 425.634L323.011 436.104Z" fill="#858D9E"/>
<path d="M357.431 464.754C358.991 464.754 360.451 466.105 360.521 467.675C360.591 469.235 359.221 470.735 357.661 470.765C356.101 470.795 354.301 469.225 354.401 467.655C354.511 466.095 356.211 464.425 357.731 464.775" fill="#E0E0E0"/>
<path d="M377.372 487.694L375.792 481.834L303.642 502.254C303.642 502.254 300.702 504.634 301.732 506.884L377.372 487.694Z" fill="#E0E0E0"/>
<path d="M333.762 474.384C333.872 474.744 335.752 474.404 337.892 475.084C340.042 475.714 341.412 477.044 341.712 476.804C342.032 476.644 340.882 474.594 338.282 473.814C335.692 473.014 333.592 474.064 333.772 474.374L333.762 474.384Z" fill="white"/>
<path d="M326.781 479.824C326.791 480.204 328.561 480.384 330.231 481.594C331.941 482.754 332.721 484.344 333.081 484.224C333.441 484.184 333.101 481.964 330.991 480.504C328.891 479.024 326.691 479.464 326.781 479.814V479.824Z" fill="white"/>
<path d="M324.911 490.494C325.261 490.484 325.271 488.504 323.771 486.754C322.281 484.994 320.341 484.674 320.261 485.024C320.141 485.384 321.551 486.154 322.761 487.604C324.001 489.034 324.531 490.544 324.911 490.484V490.494Z" fill="white"/>
<path d="M331.981 465.344C332.231 465.634 333.771 464.664 335.881 464.234C337.981 463.754 339.791 464.014 339.901 463.644C340.041 463.324 338.091 462.394 335.611 462.944C333.121 463.464 331.731 465.114 331.991 465.354L331.981 465.344Z" fill="white"/>
<g opacity="0.6">
<path d="M376.251 468.764L372.801 455.174L376.241 453.564L355.221 396.344L351.211 399.834L367.731 452.254L371.911 467.744L376.251 468.764Z" fill="#AAB2C5"/>
</g>
<path d="M327.812 331.674C319.572 329.974 310.882 331.694 304.162 336.744C298.522 340.984 293.812 347.774 295.332 358.454C298.722 382.184 329.052 463.194 329.052 463.194L371.012 450.574C371.252 450.504 371.492 449.814 371.352 450.024C371.012 450.574 350.062 383.094 350.592 383.884C351.162 384.734 392.942 418.444 410.312 424.654C428.152 431.034 445.802 423.404 454.302 411.524C458.372 405.834 467.752 375.764 449.162 350.944L414.422 357.484C414.422 357.484 332.162 332.924 330.942 332.464C330.322 332.234 329.172 331.954 327.822 331.684L327.812 331.674Z" fill="white"/>
<path d="M455.941 410.684C455.941 410.684 455.781 410.964 455.431 411.484C455.111 412.024 454.511 412.744 453.731 413.704C452.101 415.534 449.461 418.114 445.461 420.634C441.481 423.134 436.131 425.714 429.401 426.754C426.051 427.244 422.371 427.464 418.531 426.904C414.711 426.394 410.651 425.364 406.801 423.384C404.811 422.534 402.921 421.394 400.901 420.364C398.961 419.204 396.931 418.084 394.931 416.824C390.911 414.324 386.781 411.634 382.581 408.694C374.151 402.854 365.321 396.254 356.171 388.974C355.031 388.054 353.891 387.124 352.731 386.194L351.011 384.754L350.561 384.334L350.331 384.114C350.471 384.164 349.931 383.924 350.641 384.214C351.191 383.634 350.791 383.924 350.921 383.864L350.951 383.984L351.251 385.054C352.141 387.924 353.041 390.824 353.951 393.774C355.811 399.654 357.711 405.674 359.661 411.834C363.591 424.144 367.681 436.994 371.921 450.284L372.041 450.674L371.651 450.794C358.001 454.904 343.761 459.194 329.151 463.584L328.781 463.694L328.651 463.334C325.941 456.064 323.121 448.324 320.321 440.484C314.231 423.434 308.441 406.724 303.341 390.434C300.781 382.294 298.401 374.244 296.501 366.234C296.271 365.234 296.001 364.244 295.811 363.234C295.621 362.224 295.441 361.214 295.261 360.214C294.831 358.224 294.661 356.164 294.671 354.124C294.671 350.044 295.861 346.004 298.041 342.654C302.481 335.944 309.941 332.004 317.341 330.984C321.061 330.454 324.821 330.644 328.381 331.454C329.271 331.684 330.151 331.904 331.031 332.124C331.891 332.384 332.741 332.634 333.591 332.884C335.291 333.394 336.971 333.894 338.641 334.394C352.001 338.384 364.441 342.094 375.811 345.494C398.511 352.294 416.891 357.804 429.611 361.624C435.941 363.544 440.861 365.034 444.231 366.054C445.881 366.564 447.151 366.954 448.031 367.224C448.881 367.494 449.321 367.654 449.321 367.654C449.321 367.654 448.871 367.554 448.011 367.314C447.131 367.064 445.851 366.694 444.191 366.224C440.821 365.244 435.881 363.804 429.531 361.944C416.781 358.184 398.371 352.764 375.631 346.064C364.251 342.694 351.791 339.014 338.411 335.054C336.741 334.564 335.051 334.064 333.351 333.554C332.501 333.304 331.651 333.054 330.791 332.794C329.941 332.584 329.081 332.364 328.221 332.154C324.751 331.374 321.081 331.184 317.441 331.714C310.231 332.714 302.941 336.594 298.681 343.074C296.591 346.304 295.451 350.184 295.441 354.144C295.441 356.124 295.601 358.104 296.031 360.094C296.211 361.084 296.401 362.084 296.581 363.084C296.781 364.084 297.041 365.074 297.271 366.064C299.171 374.034 301.561 382.064 304.121 390.204C309.231 406.484 315.021 423.174 321.111 440.224C323.921 448.064 326.741 455.804 329.441 463.064L328.941 462.814C343.551 458.424 357.801 454.144 371.451 450.044L371.191 450.544C366.971 437.244 362.881 424.384 358.971 412.074C357.031 405.914 355.141 399.884 353.291 394.004C352.381 391.054 351.491 388.144 350.611 385.274L350.301 384.174L350.261 384.024C350.381 383.924 349.961 384.144 350.531 383.554C351.271 383.864 350.761 383.664 350.941 383.744L351.131 383.904L351.501 384.244L353.201 385.674C354.351 386.604 355.491 387.534 356.621 388.454C365.741 395.744 374.551 402.354 382.951 408.214C387.131 411.164 391.251 413.864 395.251 416.364C397.241 417.634 399.261 418.754 401.191 419.914C403.191 420.934 405.081 422.084 407.051 422.934C410.871 424.914 414.831 425.944 418.621 426.464C422.411 427.044 426.051 426.844 429.371 426.374C436.041 425.384 441.371 422.864 445.341 420.414C449.341 417.944 451.991 415.424 453.651 413.624C454.441 412.684 455.051 411.984 455.391 411.464C455.751 410.954 455.961 410.704 455.961 410.704L455.941 410.684Z" fill="#858D9E"/>
<path d="M331.411 365.305C331.461 365.215 332.831 365.874 334.901 367.194C336.971 368.514 339.701 370.545 342.421 373.125C345.141 375.715 347.281 378.374 348.651 380.414C350.021 382.454 350.671 383.834 350.591 383.884C350.481 383.954 349.661 382.684 348.181 380.764C346.711 378.834 344.531 376.284 341.861 373.734C339.181 371.184 336.541 369.115 334.581 367.685C332.621 366.255 331.361 365.425 331.421 365.315L331.411 365.305Z" fill="white"/>
<path d="M345.742 360.625C345.842 360.585 346.472 361.765 347.272 363.775C348.072 365.785 349.012 368.635 349.732 371.865C350.452 375.095 350.802 378.075 350.932 380.235C351.062 382.395 350.992 383.735 350.882 383.735C350.632 383.745 350.362 378.425 348.922 372.045C347.522 365.655 345.512 360.715 345.742 360.625Z" fill="white"/>
<path d="M314.091 313.624C312.721 312.124 310.961 311.264 309.121 311.064L287.411 307.424L264.461 296.574L255.601 306.284L277.381 316.134C279.461 317.194 280.791 319.674 280.771 322.394C280.741 327.094 281.181 334.224 283.951 337.094C291.521 344.934 300.741 346.804 304.941 345.604C309.141 344.414 319.491 337.484 319.221 329.964C319.001 323.944 317.601 317.474 314.091 313.624ZM311.041 331.734C309.591 334.074 307.371 335.564 305.101 336.594C301.461 338.244 297.381 338.874 293.681 337.444C289.981 336.014 286.771 332.274 286.161 327.654C285.951 326.064 286.071 324.354 286.641 322.914C286.931 320.954 288.301 318.744 289.881 318.154C291.461 317.564 293.391 317.204 295.041 317.354C298.351 317.644 301.671 318.004 304.941 318.764C307.651 319.394 310.611 320.564 311.911 323.504C313.051 326.084 312.511 329.394 311.051 331.734H311.041Z" fill="#9199AA"/>
<path d="M325.311 252.084C325.311 252.084 317.391 242.494 313.611 240.734C309.831 238.974 293.471 238.974 293.471 238.974C293.471 238.974 290.831 242.054 294.611 243.814C298.391 245.574 304.201 244.954 306.401 246.544C308.601 248.124 307.811 254.814 313.261 257.974C318.711 261.144 323.731 259.474 323.731 259.474L325.311 252.084Z" fill="#FFBFAA"/>
<path d="M266.021 275.624C264.331 275.624 178.931 303.734 178.931 303.734L181.631 306.794C187.211 313.104 195.021 315.694 202.501 313.724L258.081 299.344L263.611 292.114L263.321 289.224L272.961 284.714L266.021 275.624Z" fill="#AAB2C5"/>
<path d="M266.021 275.624C266.021 275.624 266.181 275.804 266.491 276.194C266.811 276.604 267.261 277.174 267.851 277.924C269.051 279.474 270.811 281.734 273.061 284.644L273.151 284.764L273.021 284.824C270.341 286.094 267.091 287.624 263.401 289.374L263.491 289.214C263.581 290.104 263.691 291.094 263.791 292.104V292.174L263.761 292.224C262.081 294.434 260.221 296.874 258.251 299.464L258.211 299.514L258.151 299.534C249.181 301.864 238.651 304.614 227.031 307.634C221.221 309.144 215.131 310.724 208.841 312.354C207.271 312.764 205.681 313.174 204.081 313.584C202.501 314.004 200.841 314.424 199.151 314.554C195.761 314.854 192.261 314.214 189.111 312.734C186.961 311.754 185.011 310.404 183.321 308.844C181.621 307.274 180.221 305.524 178.761 303.904L178.501 303.614L178.881 303.494C203.451 295.424 225.201 288.354 240.841 283.344C248.661 280.844 254.941 278.854 259.291 277.534C261.461 276.864 263.151 276.374 264.291 276.054C264.851 275.884 265.321 275.794 265.611 275.724C265.911 275.654 266.051 275.634 266.051 275.634C266.051 275.634 265.891 275.684 265.601 275.774C265.311 275.864 264.881 275.964 264.311 276.144C263.161 276.504 261.491 277.034 259.341 277.714C255.001 279.124 248.741 281.154 240.941 283.674C225.331 288.794 203.591 295.924 179.041 303.984L179.151 303.564C180.611 305.174 182.021 306.934 183.681 308.464C185.331 309.994 187.241 311.304 189.341 312.264C192.411 313.704 195.821 314.324 199.121 314.034C200.771 313.914 202.361 313.514 203.971 313.084C205.571 312.674 207.161 312.264 208.731 311.854C215.031 310.234 221.111 308.664 226.931 307.164C238.561 304.174 249.101 301.464 258.081 299.154L257.981 299.224C259.961 296.644 261.831 294.214 263.531 292.014L263.501 292.134C263.401 291.114 263.301 290.124 263.221 289.244V289.134L263.311 289.084C267.021 287.364 270.271 285.864 272.971 284.614L272.931 284.794C270.731 281.874 269.021 279.594 267.841 278.034C267.271 277.264 266.831 276.674 266.521 276.264C266.221 275.864 266.081 275.644 266.081 275.644L266.021 275.624Z" fill="#263238"/>
<path d="M392.501 234.854C392.501 234.854 378.731 231.644 373.501 237.204C368.261 242.754 351.061 286.344 351.061 286.344L325.321 252.074L314.791 268.764C314.791 268.764 331.941 305.164 339.161 313.674C347.421 323.404 358.701 322.744 363.771 321.244C368.851 319.744 375.541 306.744 375.541 306.744L392.501 234.844V234.854Z" fill="#FFBFAA"/>
<path d="M307.881 244.744C303.791 243.084 294.471 243.914 286.321 250.864C283.341 253.404 282.071 260.164 281.741 264.844C281.551 267.554 280.121 269.494 277.961 270.314L254.951 279.084L265.881 288.014L287.451 279.604H309.341C311.191 279.604 313.011 278.944 314.491 277.614C318.291 274.174 320.181 267.894 320.871 261.924C321.731 254.464 311.961 246.404 307.871 244.744H307.881ZM313.081 267.534C311.561 270.314 308.521 271.144 305.771 271.474C302.461 271.864 299.131 271.844 295.811 271.764C294.161 271.724 292.261 271.154 290.741 270.384C289.211 269.624 288.031 267.264 287.891 265.274C287.441 263.784 287.451 262.064 287.781 260.504C288.751 255.974 292.231 252.604 296.031 251.604C299.831 250.594 303.851 251.674 307.341 253.734C309.521 255.014 311.611 256.754 312.871 259.244C314.141 261.734 314.421 265.094 313.081 267.534Z" fill="#9199AA"/>
<path d="M450.261 335.034L448.031 318.784L453.891 263.774C458.171 230.954 424.671 224.884 424.671 224.884C423.591 226.614 392.071 245.024 388.131 228.184C386.231 228.794 373.611 232.964 368.481 237.714C362.921 242.854 349.061 278.774 349.061 278.774L359.701 292.274C363.651 307.014 373.031 330.744 373.031 330.744L364.671 338.664C402.911 368.914 434.931 358.684 447.321 352.614C453.761 349.454 455.571 341.034 450.841 335.634C450.501 335.244 450.271 335.044 450.271 335.044L450.261 335.034Z" fill="#AAB2C5"/>
<path d="M450.26 335.034C450.26 335.034 450.791 335.474 451.591 336.554C452.331 337.634 453.381 339.434 453.531 342.044C453.611 343.334 453.481 344.794 452.971 346.314C452.461 347.824 451.561 349.364 450.211 350.674C449.871 350.994 449.531 351.334 449.121 351.604C448.921 351.744 448.731 351.894 448.531 352.044C448.311 352.164 448.101 352.294 447.881 352.414C447.011 352.924 446.041 353.294 445.081 353.764C444.101 354.194 443.071 354.594 442.021 355.024C440.951 355.414 439.841 355.784 438.711 356.184C429.601 359.134 417.681 360.624 404.501 358.164C397.941 356.864 391.171 354.584 384.401 351.384C382.741 350.524 381.061 349.654 379.351 348.764C378.481 348.354 377.691 347.794 376.861 347.294C376.041 346.784 375.211 346.264 374.371 345.744C373.541 345.224 372.701 344.704 371.861 344.174C371.041 343.624 370.251 343.004 369.431 342.424C367.811 341.234 366.171 340.034 364.521 338.824L364.311 338.664L364.51 338.474C367.11 336.014 369.961 333.304 372.861 330.544L372.801 330.804C370.481 324.874 368.151 318.694 365.871 312.274C363.601 305.854 361.341 299.224 359.451 292.314L359.501 292.404C356.141 288.134 352.521 283.554 348.861 278.904L348.771 278.784L348.821 278.644C352.131 270.184 355.751 261.344 359.801 252.504C361.221 249.464 362.661 246.454 364.251 243.534C365.071 242.084 365.881 240.644 366.841 239.284C367.051 238.934 367.331 238.614 367.611 238.294C367.901 237.984 368.141 237.634 368.461 237.364L369.421 236.564L370.431 235.834C373.171 233.984 376.111 232.564 379.071 231.284C382.041 230.014 385.041 228.894 388.061 227.914L388.321 227.824L388.381 228.094C388.801 229.844 389.621 231.514 390.941 232.704C392.261 233.894 393.99 234.514 395.73 234.774C399.26 235.274 402.831 234.534 406.181 233.594C409.551 232.604 412.771 231.294 415.861 229.814C417.401 229.074 418.911 228.284 420.381 227.454C421.111 227.034 421.841 226.614 422.541 226.154C423.221 225.714 424.001 225.224 424.471 224.724L424.601 224.594L424.721 224.624C430.781 225.964 436.371 228.494 441.151 231.904C445.901 235.334 449.691 239.854 451.861 244.924C452.961 247.454 453.671 250.084 454.091 252.704C454.461 255.334 454.531 257.944 454.401 260.484C453.951 265.564 453.361 270.374 452.881 275.004C450.881 293.474 449.261 308.404 448.131 318.774V318.754C448.831 323.984 449.37 328.034 449.73 330.804C449.91 332.174 450.041 333.224 450.141 333.944C450.23 334.654 450.26 335.024 450.26 335.024C450.26 335.024 450.191 334.674 450.091 333.974C449.991 333.254 449.831 332.214 449.641 330.854C449.251 328.084 448.671 324.024 447.931 318.794V318.774C449.021 308.394 450.58 293.454 452.51 274.974C452.97 270.354 453.561 265.504 453.991 260.474C454.111 257.954 454.031 255.374 453.671 252.774C453.251 250.184 452.551 247.594 451.461 245.104C449.311 240.104 445.571 235.664 440.871 232.284C436.161 228.924 430.591 226.414 424.621 225.104L424.871 224.994C424.531 225.414 424.201 225.594 423.851 225.864C423.501 226.104 423.151 226.344 422.791 226.574C422.081 227.034 421.351 227.464 420.611 227.884C419.131 228.724 417.611 229.514 416.061 230.264C412.961 231.754 409.711 233.084 406.311 234.084C402.921 235.034 399.311 235.794 395.641 235.284C393.831 235.024 392.001 234.364 390.581 233.094C389.171 231.824 388.301 230.044 387.861 228.224L388.191 228.404C385.191 229.384 382.201 230.494 379.251 231.764C376.311 233.034 373.381 234.444 370.701 236.264C367.861 237.954 366.321 240.934 364.691 243.794C363.121 246.694 361.68 249.704 360.26 252.734C356.22 261.554 352.591 270.394 349.281 278.844L349.241 278.594C352.901 283.244 356.511 287.824 359.881 292.094L359.911 292.134V292.184C361.801 299.064 364.061 305.694 366.321 312.104C368.591 318.514 370.92 324.704 373.23 330.624L373.291 330.774L373.171 330.884C370.261 333.634 367.411 336.334 364.801 338.804L364.781 338.454C366.431 339.664 368.051 340.864 369.671 342.044C370.481 342.634 371.271 343.244 372.081 343.794C372.921 344.314 373.751 344.844 374.581 345.354C375.411 345.874 376.231 346.384 377.051 346.904C377.881 347.404 378.661 347.964 379.531 348.374C381.221 349.254 382.901 350.124 384.551 350.994C391.281 354.184 398.011 356.474 404.541 357.784C417.651 360.264 429.521 358.804 438.601 355.914C439.731 355.524 440.841 355.164 441.901 354.774C442.951 354.344 443.98 353.954 444.951 353.534C445.91 353.074 446.881 352.704 447.741 352.204C447.961 352.084 448.171 351.964 448.381 351.844C448.581 351.704 448.771 351.554 448.961 351.414C449.361 351.154 449.701 350.824 450.041 350.504C451.371 349.224 452.271 347.714 452.781 346.234C453.291 344.754 453.431 343.304 453.361 342.034C453.231 339.454 452.221 337.664 451.501 336.574C451.091 336.054 450.811 335.634 450.571 335.394C450.341 335.144 450.23 335.014 450.23 335.014L450.26 335.034Z" fill="#263238"/>
<path d="M374.971 244.124C374.971 244.124 374.601 244.794 373.931 245.974C373.241 247.154 372.331 248.904 371.311 251.124C370.291 253.344 369.221 256.044 368.111 259.084C366.991 262.114 365.851 265.484 364.521 268.984C363.191 272.474 361.991 275.814 361.141 278.924C360.291 282.034 359.771 284.894 359.641 287.324C359.511 289.754 359.681 291.724 359.961 293.054C360.211 294.394 360.451 295.114 360.401 295.134C360.381 295.134 360.321 294.964 360.201 294.624C360.101 294.274 359.891 293.784 359.771 293.104C359.421 291.774 359.201 289.774 359.281 287.314C359.361 284.854 359.851 281.944 360.681 278.804C361.511 275.664 362.711 272.294 364.041 268.804C365.321 265.304 366.551 261.974 367.661 258.924C368.801 255.894 369.911 253.194 370.981 250.984C372.041 248.774 373.011 247.034 373.761 245.884C374.111 245.294 374.441 244.874 374.641 244.574C374.851 244.284 374.971 244.134 374.981 244.144L374.971 244.124Z" fill="#263238"/>
<path d="M334.981 319.794C334.981 319.794 321.981 313.194 318.731 310.904C315.481 308.614 311.371 308.134 310.801 308.134C310.231 308.134 301.621 307.464 299.901 310.234L309.081 314.824C309.081 314.824 303.821 316.644 302.871 316.354C301.911 316.064 293.221 313.294 291.781 314.534C290.351 315.774 289.291 317.304 290.731 319.024C292.161 320.744 296.851 321.604 296.851 321.604C296.851 321.604 297.331 326.864 300.861 328.484C300.861 328.484 299.521 331.164 302.011 332.694C302.011 332.694 306.501 338.144 308.801 339.484C311.091 340.824 310.231 340.154 315.491 339.484C320.751 338.814 325.531 335.274 328.871 335.564C332.221 335.854 334.991 319.794 334.991 319.794H334.981Z" fill="#FFBFAA"/>
<path d="M290.351 255.274C290.351 255.274 290.131 260.264 292.161 261.104C294.191 261.954 295.571 260.654 296.841 258.334C296.841 258.334 297.481 261.544 301.841 261.144C301.841 261.144 303.541 265.634 306.091 264.094C306.091 264.094 307.371 270.304 311.511 264.954C315.651 259.604 316.151 253.724 315.371 252.884C314.601 252.044 314.231 252.074 314.231 252.074C314.231 252.074 316.421 248.324 314.831 246.524C313.241 244.724 310.601 247.614 310.601 247.614C310.601 247.614 311.511 244.914 309.991 244.014C308.471 243.114 306.671 243.894 305.201 245.764C303.211 248.304 302.041 249.884 302.041 249.884C302.041 249.884 303.621 246.304 301.191 245.804C298.341 245.214 290.341 255.284 290.341 255.284L290.351 255.274Z" fill="#FFBFAA"/>
<path d="M290.351 255.274C290.351 255.274 290.411 255.164 290.551 254.974C290.711 254.764 290.921 254.494 291.181 254.154C291.751 253.444 292.591 252.424 293.741 251.154C294.891 249.904 296.301 248.364 298.201 246.884C298.681 246.524 299.201 246.164 299.791 245.884C300.091 245.754 300.411 245.624 300.771 245.594C301.141 245.554 301.511 245.654 301.831 245.824C302.541 246.184 302.791 247.064 302.751 247.774C302.721 248.524 302.531 249.244 302.241 249.954L301.871 249.744C302.531 248.874 303.211 247.974 303.921 247.054C304.641 246.154 305.271 245.094 306.311 244.304C306.811 243.914 307.401 243.584 308.071 243.444C308.741 243.304 309.481 243.414 310.081 243.774C310.401 243.964 310.671 244.244 310.831 244.574C310.991 244.904 311.071 245.264 311.101 245.614C311.151 246.324 311.041 247.004 310.841 247.684L310.421 247.434C311.051 246.794 311.741 246.214 312.621 245.864C313.061 245.694 313.581 245.604 314.081 245.744C314.581 245.894 315.001 246.244 315.261 246.674C315.791 247.564 315.711 248.614 315.511 249.534C315.291 250.464 314.931 251.344 314.461 252.194L314.211 251.804C314.561 251.824 314.661 251.944 314.851 252.044C315.011 252.154 315.161 252.284 315.301 252.414L315.571 252.684C315.651 252.814 315.771 252.964 315.791 253.094C315.881 253.364 315.901 253.614 315.931 253.874C315.961 254.374 315.941 254.874 315.881 255.354C315.771 256.324 315.561 257.264 315.301 258.174C314.741 259.984 313.971 261.704 313.001 263.234C312.511 264.004 312.011 264.744 311.431 265.424C310.871 266.114 310.211 266.754 309.381 267.144C309.161 267.234 308.951 267.324 308.701 267.324C308.461 267.374 308.221 267.314 307.981 267.254C307.531 267.084 307.141 266.784 306.891 266.424C306.351 265.714 306.071 264.924 305.881 264.114L306.221 264.264C305.731 264.544 305.131 264.684 304.571 264.544C304.021 264.404 303.561 264.074 303.201 263.704C302.491 262.944 302.011 262.074 301.651 261.184L301.861 261.314C300.701 261.414 299.531 261.274 298.561 260.744C297.591 260.214 296.921 259.314 296.671 258.334L297.001 258.384C296.521 259.234 296.001 260.034 295.331 260.644C294.681 261.264 293.761 261.594 292.961 261.434C292.561 261.354 292.201 261.274 291.871 261.044C291.541 260.844 291.321 260.544 291.131 260.264C290.791 259.674 290.641 259.084 290.531 258.554C290.321 257.494 290.311 256.654 290.301 256.094C290.301 255.814 290.311 255.594 290.321 255.454C290.331 255.314 290.341 255.234 290.351 255.234C290.371 255.234 290.371 255.524 290.401 256.084C290.441 256.644 290.481 257.474 290.721 258.514C290.841 259.024 291.011 259.604 291.341 260.144C291.661 260.704 292.261 261.064 293.001 261.154C293.731 261.284 294.511 260.984 295.121 260.404C295.741 259.834 296.231 259.054 296.691 258.214L296.901 257.824L297.021 258.264C297.251 259.114 297.871 259.954 298.751 260.404C299.631 260.874 300.721 261.004 301.821 260.894H301.971L302.031 261.024C302.371 261.854 302.851 262.704 303.501 263.384C303.821 263.724 304.221 263.994 304.661 264.094C305.101 264.204 305.551 264.094 305.971 263.854L306.241 263.704L306.321 264.004C306.501 264.734 306.781 265.514 307.261 266.114C307.481 266.434 307.801 266.644 308.121 266.774C308.291 266.804 308.461 266.864 308.651 266.814C308.831 266.814 309.011 266.744 309.191 266.664C309.891 266.334 310.521 265.744 311.051 265.074C311.601 264.424 312.101 263.684 312.571 262.934C313.511 261.434 314.261 259.754 314.801 257.984C315.061 257.094 315.261 256.184 315.361 255.254C315.421 254.794 315.431 254.324 315.401 253.864C315.381 253.644 315.351 253.414 315.291 253.224C315.271 253.104 315.211 253.074 315.181 252.994L314.941 252.744C314.821 252.624 314.691 252.514 314.561 252.434C314.461 252.344 314.251 252.274 314.271 252.274L314.021 251.884C314.461 251.094 314.811 250.224 315.021 249.364C315.221 248.504 315.261 247.584 314.841 246.894C314.641 246.544 314.311 246.294 313.961 246.184C313.601 246.084 313.201 246.144 312.821 246.284C312.061 246.574 311.371 247.144 310.811 247.714L310.091 248.444L310.391 247.464C310.571 246.864 310.681 246.204 310.641 245.594C310.611 244.984 310.361 244.414 309.871 244.144C308.831 243.504 307.531 243.884 306.621 244.624C305.671 245.334 305.031 246.374 304.301 247.274C303.591 248.194 302.901 249.084 302.241 249.944L301.271 251.204L301.881 249.734C302.151 249.084 302.341 248.384 302.371 247.714C302.411 247.054 302.211 246.384 301.671 246.114C301.131 245.784 300.531 245.904 299.971 246.164C299.411 246.424 298.911 246.764 298.431 247.104C296.551 248.534 295.121 250.044 293.941 251.264C292.781 252.494 291.901 253.494 291.301 254.174C291.021 254.494 290.801 254.744 290.621 254.944C290.461 255.124 290.381 255.204 290.371 255.194L290.351 255.274Z" fill="#FF9A6C"/>
<path d="M302.041 250.214C302.141 250.284 301.231 252.154 299.921 254.414C298.611 256.684 297.031 258.164 296.931 258.064C296.831 257.964 298.181 256.384 299.471 254.154C300.751 251.924 301.891 250.134 302.031 250.224L302.041 250.214Z" fill="#FF9A6C"/>
<path d="M310.741 247.094C310.801 247.114 310.531 248.004 309.911 249.364C309.301 250.724 308.301 252.534 307.141 254.484C305.961 256.414 305.021 258.254 303.991 259.384C302.971 260.534 302.021 260.844 302.011 260.794C301.961 260.714 302.811 260.304 303.711 259.154C304.621 258.024 305.521 256.164 306.701 254.224C307.861 252.274 308.901 250.514 309.591 249.204C310.291 247.904 310.671 247.064 310.751 247.094H310.741Z" fill="#FF9A6C"/>
<path d="M314.791 250.644C314.851 250.664 314.641 251.514 314.121 252.834C313.601 254.154 312.751 255.924 311.581 257.744C310.401 259.564 309.141 261.074 308.161 262.094C307.171 263.114 306.491 263.654 306.441 263.614C306.321 263.494 308.841 261.074 311.141 257.464C313.471 253.884 314.641 250.584 314.791 250.644Z" fill="#FF9A6C"/>
<path d="M251.871 291.545C251.871 294.115 249.791 296.195 247.221 296.195C244.651 296.195 242.571 294.115 242.571 291.545C242.571 288.975 244.651 286.895 247.221 286.895C249.791 286.895 251.871 288.975 251.871 291.545Z" fill="#AAB2C5"/>
<path d="M251.871 291.544C251.821 291.544 251.831 291.134 251.631 290.434C251.431 289.754 250.961 288.754 249.921 287.994C248.921 287.234 247.291 286.814 245.711 287.404C244.151 287.944 242.801 289.614 242.821 291.554C242.801 293.494 244.151 295.154 245.711 295.704C247.291 296.294 248.921 295.874 249.921 295.114C250.951 294.354 251.431 293.354 251.631 292.674C251.831 291.974 251.821 291.564 251.871 291.564C251.891 291.564 251.901 291.664 251.911 291.864C251.921 292.064 251.911 292.354 251.831 292.724C251.691 293.454 251.241 294.544 250.151 295.404C249.101 296.264 247.311 296.784 245.551 296.154C243.811 295.584 242.281 293.724 242.301 291.554C242.281 289.384 243.801 287.534 245.551 286.954C247.311 286.324 249.091 286.844 250.151 287.704C251.241 288.564 251.691 289.664 251.831 290.394C251.911 290.764 251.931 291.054 251.911 291.254C251.911 291.454 251.891 291.554 251.871 291.554V291.544Z" fill="#263238"/>
<path d="M250.221 293.284C250.181 293.414 248.641 292.944 247.001 291.864C245.361 290.784 244.331 289.554 244.431 289.454C244.541 289.344 245.701 290.384 247.291 291.424C248.871 292.474 250.281 293.144 250.221 293.284Z" fill="#263238"/>
<path d="M249.281 288.634C249.381 288.754 248.231 289.834 247.201 291.444C246.151 293.044 245.641 294.534 245.491 294.494C245.361 294.464 245.671 292.844 246.761 291.164C247.841 289.474 249.201 288.524 249.281 288.634Z" fill="#263238"/>
<path d="M360.191 310.224C360.111 310.234 359.881 308.784 359.371 306.484C358.861 304.184 357.991 301.024 356.681 297.674C355.361 294.324 353.841 291.424 352.651 289.394C351.461 287.354 350.631 286.144 350.701 286.094C350.731 286.074 350.971 286.354 351.371 286.884C351.781 287.414 352.331 288.204 352.971 289.204C354.251 291.204 355.841 294.104 357.171 297.484C358.501 300.874 359.321 304.074 359.741 306.404C359.951 307.574 360.091 308.524 360.151 309.184C360.221 309.844 360.241 310.214 360.201 310.214L360.191 310.224Z" fill="#FF9A6C"/>
<path d="M329.581 317.324L392.501 318.444C392.501 318.444 411.821 253.544 418.471 244.274C424.591 235.744 427.351 236.514 436.751 235.884C446.151 235.254 453.501 246.864 452.041 257.974C450.581 269.084 417.691 330.324 412.201 338.394C406.711 346.464 406.101 347.324 399.341 348.034C392.581 348.734 325.661 336.114 325.661 336.114L329.571 317.324H329.581Z" fill="#FFBFAA"/>
<path d="M398.601 284.734L438.691 300.954C438.691 300.954 454.381 263.074 454.281 254.104C454.181 245.134 448.011 234.884 440.731 232.564C433.451 230.244 422.891 233.424 418.201 241.374C413.511 249.314 398.611 284.734 398.611 284.734H398.601Z" fill="#AAB2C5"/>
<path d="M398.601 284.734C398.601 284.734 398.651 284.584 398.771 284.264C398.901 283.934 399.081 283.484 399.321 282.904C399.821 281.694 400.551 279.944 401.481 277.704C403.371 273.204 406.141 266.694 409.681 258.704C411.461 254.714 413.421 250.344 415.671 245.724C416.841 243.444 417.941 240.974 419.741 238.844C421.501 236.704 423.861 234.984 426.481 233.714C427.801 233.094 429.191 232.574 430.651 232.224C432.101 231.834 433.611 231.654 435.131 231.594C438.161 231.514 441.421 232.094 444.081 233.934C445.431 234.794 446.621 235.894 447.701 237.094C448.801 238.274 449.731 239.624 450.601 241.014C451.461 242.414 452.161 243.914 452.781 245.444C453.351 247.004 453.861 248.604 454.151 250.264C454.381 251.484 454.501 252.724 454.541 253.964C454.531 254.584 454.451 255.204 454.411 255.824C454.361 256.444 454.201 257.034 454.111 257.634C453.661 260.034 453.001 262.334 452.341 264.614C450.981 269.154 449.461 273.524 447.951 277.744C444.891 286.174 441.811 293.984 438.911 301.044L438.831 301.244L438.631 301.164C426.551 296.224 416.531 292.124 409.501 289.254C406.041 287.824 403.311 286.704 401.431 285.924C400.521 285.544 399.821 285.254 399.331 285.044C398.861 284.844 398.631 284.734 398.631 284.734C398.631 284.734 398.901 284.824 399.391 285.014C399.901 285.214 400.621 285.494 401.551 285.864C403.451 286.624 406.201 287.714 409.711 289.104C416.721 291.914 426.731 295.924 438.801 300.754L438.521 300.874C441.391 293.814 444.461 285.994 447.501 277.574C449.001 273.354 450.511 268.994 451.871 264.464C452.531 262.194 453.191 259.894 453.631 257.534C453.721 256.944 453.881 256.354 453.931 255.754C453.971 255.164 454.041 254.564 454.051 253.964C454.011 252.754 453.901 251.544 453.671 250.344C453.391 248.714 452.881 247.154 452.331 245.614C451.721 244.104 451.031 242.634 450.191 241.264C449.351 239.904 448.431 238.584 447.361 237.424C446.301 236.254 445.141 235.184 443.841 234.344C441.291 232.564 438.161 232.004 435.191 232.074C432.211 232.174 429.301 232.894 426.731 234.124C424.161 235.354 421.861 237.034 420.131 239.114C418.381 241.174 417.271 243.614 416.101 245.894C413.841 250.504 411.861 254.854 410.061 258.834C406.481 266.804 403.661 273.284 401.711 277.764C400.741 279.984 399.981 281.724 399.461 282.924C399.211 283.494 399.011 283.944 398.871 284.264C398.741 284.554 398.651 284.714 398.651 284.714L398.601 284.734Z" fill="#263238"/>
<path d="M399.681 329.394C399.681 329.394 399.481 329.154 399.131 328.664C398.761 328.124 398.271 327.414 397.651 326.514C396.361 324.584 394.551 321.874 392.331 318.564L392.491 318.654C385.951 318.694 377.281 318.604 367.781 318.414C357.371 318.194 347.951 318.004 341.061 317.864C337.681 317.804 334.931 317.754 332.961 317.714C332.041 317.694 331.311 317.674 330.761 317.654C330.261 317.634 329.991 317.614 329.991 317.604C329.991 317.594 330.251 317.574 330.761 317.554C331.311 317.544 332.051 317.534 332.961 317.514C334.871 317.494 337.641 317.484 341.061 317.504C347.901 317.534 357.351 317.704 367.791 317.904C377.281 318.094 385.951 318.224 392.491 318.264H392.601L392.661 318.354C394.821 321.714 396.581 324.454 397.831 326.404C398.411 327.334 398.871 328.064 399.221 328.614C399.531 329.124 399.691 329.394 399.671 329.404L399.681 329.394Z" fill="#FF9A6C"/>
<path d="M412.251 346.464C412.251 346.464 412.781 346.444 413.731 346.514C414.201 346.554 414.781 346.594 415.461 346.594C416.131 346.604 416.901 346.654 417.751 346.614C419.451 346.614 421.461 346.454 423.681 346.164C425.901 345.834 428.311 345.334 430.791 344.594C433.261 343.834 435.551 342.894 437.571 341.934C439.581 340.944 441.341 339.944 442.751 339.004C443.481 338.564 444.091 338.094 444.641 337.714C445.201 337.334 445.661 336.984 446.031 336.684C446.781 336.104 447.211 335.794 447.241 335.824C447.261 335.854 446.881 336.214 446.161 336.844C445.811 337.164 445.361 337.544 444.821 337.954C444.281 338.364 443.681 338.854 442.961 339.324C441.561 340.314 439.801 341.354 437.781 342.374C435.751 343.364 433.441 344.324 430.941 345.094C428.431 345.844 425.991 346.334 423.741 346.644C421.491 346.914 419.451 347.034 417.741 346.994C416.881 347.014 416.111 346.934 415.431 346.894C414.751 346.864 414.171 346.794 413.701 346.724C412.751 346.594 412.231 346.514 412.241 346.474L412.251 346.464Z" fill="#263238"/>
</svg>
